<svg width="213" height="265" viewBox="0 0 213 265" fill="none" xmlns="http://www.w3.org/2000/svg">
<path fill-rule="evenodd" clip-rule="evenodd" d="M-35.9485 14.1839C-19.9233 -1.5876 7.54172 -3.01399 39.2824 7.84847C52.4035 12.3388 66.2103 18.9169 80.1671 27.4023C60.5387 39.0492 40.604 54.3586 21.8011 72.8637C2.99863 91.3684 -12.6267 111.056 -24.5854 130.495C-32.8468 116.405 -39.2036 102.495 -43.4839 89.3042C-53.8384 57.3941 -51.9738 29.9554 -35.9485 14.1839ZM-25.0687 131.284C-53.566 82.8675 -59.7215 36.435 -36.5211 13.6021C-13.3208 -9.23088 33.0077 -2.33502 80.9636 26.9316C129.38 -1.56504 175.812 -7.72018 198.644 15.4799C221.477 38.6801 214.582 85.008 185.316 132.963C213.812 181.38 219.968 227.812 196.768 250.644C173.567 273.477 127.24 266.582 79.2845 237.316C30.8677 265.813 -15.5649 271.969 -38.3979 248.769C-61.2308 225.568 -54.3351 179.24 -25.0687 131.284ZM78.4957 236.833C64.4052 245.094 50.4952 251.451 37.3042 255.731C5.39412 266.086 -22.0446 264.221 -37.8161 248.196C-53.5876 232.171 -55.014 204.706 -44.1515 172.965C-39.6612 159.844 -33.0833 146.037 -24.598 132.081C-12.9512 151.709 2.35792 171.643 20.8626 190.445C39.3677 209.248 59.0556 224.874 78.4957 236.833ZM79.2921 236.364C59.796 224.415 40.027 208.754 21.4444 189.873C2.86221 170.992 -12.4807 150.976 -24.1165 131.292C-12.168 111.796 3.49246 92.0277 22.3737 73.4455C41.2553 54.8629 61.2716 39.5196 80.956 27.8838C100.452 39.8322 120.22 55.4926 138.802 74.3737C157.385 93.2552 172.728 113.271 184.363 132.956C172.415 152.452 156.754 172.221 137.873 190.803C118.992 209.385 98.976 224.728 79.2921 236.364ZM80.081 236.845C94.0372 245.33 107.843 251.908 120.964 256.398C152.705 267.26 180.17 265.834 196.195 250.063C212.22 234.291 214.085 206.852 203.73 174.942C199.45 161.752 193.093 147.842 184.832 133.752C172.874 153.192 157.248 172.88 138.445 191.385C119.643 209.889 99.7088 225.199 80.081 236.845ZM184.845 132.167C193.33 118.211 199.908 104.404 204.398 91.2835C215.261 59.5428 213.834 32.0778 198.063 16.0525C182.291 0.0272564 154.852 -1.83732 122.942 8.51715C109.752 12.7973 95.8423 19.1539 81.7524 27.4149C101.192 39.3735 120.879 54.9988 139.384 73.8011C157.889 92.6039 173.198 112.539 184.845 132.167ZM80.1233 67.4544L81.4544 115.662C81.6876 124.109 88.4801 130.902 96.9268 131.135L145.135 132.466L96.9268 133.797C88.4801 134.03 81.6876 140.823 81.4544 149.269L80.1233 197.477L78.7922 149.269C78.5589 140.823 71.7664 134.03 63.3197 133.797L15.1118 132.466L63.3197 131.135C71.7664 130.902 78.5589 124.109 78.7922 115.662L80.1233 67.4544Z" fill="white"/>
</svg>
