<svg width="224" height="322" viewBox="0 0 224 322" fill="none" xmlns="http://www.w3.org/2000/svg">
<path d="M162.417 204.536C162.417 248.884 161.06 321.198 159.387 321.198C157.713 321.198 156.357 248.884 156.357 204.536C156.357 160.188 157.713 160.599 159.387 160.599C161.06 160.599 162.417 160.188 162.417 204.536Z" fill="url(#paint0_linear_2_245)"/>
<path d="M162.417 116.661C162.417 72.3133 161.06 1.52588e-05 159.387 1.52588e-05C157.713 1.52588e-05 156.357 72.3133 156.357 116.661C156.357 161.01 157.713 160.599 159.387 160.599C161.06 160.599 162.417 161.01 162.417 116.661Z" fill="url(#paint1_linear_2_245)"/>
<path d="M202.112 157.569C246.46 157.569 318.774 158.925 318.774 160.599C318.774 162.272 246.46 163.629 202.112 163.629C157.764 163.629 158.175 162.272 158.175 160.599C158.175 158.925 157.764 157.569 202.112 157.569Z" fill="url(#paint2_linear_2_245)"/>
<path d="M116.661 157.569C72.3133 157.569 1.52588e-05 158.925 1.52588e-05 160.599C1.52588e-05 162.272 72.3133 163.629 116.661 163.629C161.01 163.629 160.599 162.272 160.599 160.599C160.599 158.925 161.01 157.569 116.661 157.569Z" fill="url(#paint3_linear_2_245)"/>
<path d="M129.806 126.733C98.4469 95.3737 46.3544 45.1998 45.171 46.3831C43.9877 47.5665 94.1616 99.659 125.52 131.018C156.879 162.377 157.548 161.127 158.732 159.944C159.915 158.76 161.165 158.091 129.806 126.733Z" fill="url(#paint4_linear_2_245)"/>
<path d="M193.528 131.018C224.887 99.659 275.061 47.5665 273.878 46.3831C272.695 45.1998 220.602 95.3737 189.243 126.733C157.884 158.091 159.134 158.76 160.317 159.944C161.501 161.127 162.17 162.377 193.528 131.018Z" fill="url(#paint5_linear_2_245)"/>
<path d="M191.71 187.425C223.069 218.784 273.243 270.877 272.06 272.06C270.876 273.243 218.784 223.069 187.425 191.71C156.066 160.352 157.316 159.683 158.499 158.499C159.683 157.316 160.351 156.066 191.71 187.425Z" fill="url(#paint6_linear_2_245)"/>
<path d="M127.339 187.425C95.9798 218.784 45.8058 270.877 46.9892 272.06C48.1725 273.243 100.265 223.069 131.624 191.71C162.983 160.352 161.733 159.683 160.55 158.499C159.366 157.316 158.698 156.066 127.339 187.425Z" fill="url(#paint7_linear_2_245)"/>
<defs>
<linearGradient id="paint0_linear_2_245" x1="159.387" y1="160.599" x2="159.387" y2="321.198" gradientUnits="userSpaceOnUse">
<stop stop-color="white"/>
<stop offset="0.515819" stop-color="white" stop-opacity="0"/>
<stop offset="1" stop-color="white"/>
</linearGradient>
<linearGradient id="paint1_linear_2_245" x1="159.387" y1="160.599" x2="159.387" y2="1.52588e-05" gradientUnits="userSpaceOnUse">
<stop stop-color="white"/>
<stop offset="0.515819" stop-color="white" stop-opacity="0"/>
<stop offset="1" stop-color="white"/>
</linearGradient>
<linearGradient id="paint2_linear_2_245" x1="158.175" y1="160.599" x2="318.774" y2="160.599" gradientUnits="userSpaceOnUse">
<stop stop-color="white"/>
<stop offset="0.515819" stop-color="white" stop-opacity="0"/>
<stop offset="1" stop-color="white"/>
</linearGradient>
<linearGradient id="paint3_linear_2_245" x1="160.599" y1="160.599" x2="1.52588e-05" y2="160.599" gradientUnits="userSpaceOnUse">
<stop stop-color="white"/>
<stop offset="0.515819" stop-color="white" stop-opacity="0"/>
<stop offset="1" stop-color="white"/>
</linearGradient>
<linearGradient id="paint4_linear_2_245" x1="158.732" y1="159.944" x2="45.171" y2="46.3831" gradientUnits="userSpaceOnUse">
<stop stop-color="white"/>
<stop offset="0.515819" stop-color="white" stop-opacity="0"/>
<stop offset="1" stop-color="white"/>
</linearGradient>
<linearGradient id="paint5_linear_2_245" x1="160.317" y1="159.944" x2="273.878" y2="46.3831" gradientUnits="userSpaceOnUse">
<stop stop-color="white"/>
<stop offset="0.515819" stop-color="white" stop-opacity="0"/>
<stop offset="1" stop-color="white"/>
</linearGradient>
<linearGradient id="paint6_linear_2_245" x1="158.499" y1="158.499" x2="272.06" y2="272.06" gradientUnits="userSpaceOnUse">
<stop stop-color="white"/>
<stop offset="0.515819" stop-color="white" stop-opacity="0"/>
<stop offset="1" stop-color="white"/>
</linearGradient>
<linearGradient id="paint7_linear_2_245" x1="160.55" y1="158.499" x2="46.9892" y2="272.06" gradientUnits="userSpaceOnUse">
<stop stop-color="white"/>
<stop offset="0.515819" stop-color="white" stop-opacity="0"/>
<stop offset="1" stop-color="white"/>
</linearGradient>
</defs>
</svg>
