<svg id="Layer_1" enable-background="new 0 0 64 64" height="512" viewBox="0 0 64 64" width="512" xmlns="http://www.w3.org/2000/svg"><g><g><path d="m32 60.5c-15.715 0-28.5-12.785-28.5-28.5s12.785-28.5 28.5-28.5 28.5 12.785 28.5 28.5-12.785 28.5-28.5 28.5zm0-54c-14.061 0-25.5 11.439-25.5 25.5s11.439 25.5 25.5 25.5 25.5-11.439 25.5-25.5-11.439-25.5-25.5-25.5z"/></g><g><path d="m42 45.5h-20c-.935 0-1.813-.364-2.475-1.025s-1.025-1.54-1.025-2.475v-20c0-.935.364-1.813 1.025-2.475s1.54-1.025 2.475-1.025h20c.935 0 1.813.364 2.475 1.025s1.025 1.54 1.025 2.475v20c0 .935-.364 1.813-1.025 2.475s-1.54 1.025-2.475 1.025zm-20-24c-.131 0-.26.053-.354.146-.094.095-.146.221-.146.354v20c0 .132.053.26.146.354.094.092.223.146.354.146h20c.132 0 .26-.054.354-.146.092-.094.146-.222.146-.354v-20c0-.133-.052-.259-.146-.354-.094-.093-.222-.146-.354-.146z"/></g></g></svg>