<svg width="279" height="53" viewBox="0 0 279 53" fill="none" xmlns="http://www.w3.org/2000/svg">
<path d="M226.404 9.08848V29.2693H219.002V0.906949H226.796L251.151 21.6386V0.906949H258.515V29.274H249.979L226.404 9.08848ZM192.685 23.8039C202.124 23.8039 207.214 20.461 207.214 14.8721C207.214 9.36389 202.124 5.98301 192.685 5.98301C183.208 5.98301 178.08 9.36864 178.08 14.8721C178.075 20.4562 183.208 23.8039 192.685 23.8039ZM192.685 29.7821C178.86 29.7821 170.636 24.1932 170.636 14.8721C170.636 5.5889 178.86 0 192.685 0C206.51 0 214.654 5.5889 214.654 14.8721C214.654 24.1932 206.51 29.7821 192.685 29.7821ZM136.567 17.6262V23.3717H155.483C158.46 23.3717 160.105 22.3888 160.105 20.423C160.105 18.063 157.992 17.6309 154.585 17.6309H136.567V17.6262ZM136.567 6.72852V12.2747H152.779C156.187 12.2747 157.794 11.6051 157.794 9.52059C157.794 7.51201 156.461 6.72852 152.467 6.72852H136.567ZM129.085 0.906949H152.581C162.331 0.906949 165.659 3.69902 165.659 8.10556C165.659 11.173 164.014 13.3003 160.88 14.4779C165.659 15.4989 167.89 17.6641 167.89 21.2445C167.89 26.8713 163.385 29.2693 154.731 29.2693H129.08V0.906949H129.085ZM94.8228 6.72852V14.1266H108.96C113.932 14.1266 116.517 13.3003 116.517 10.4655C116.517 7.51676 113.932 6.72852 108.96 6.72852H94.8228ZM106.218 19.9481H94.8228V29.274H87.459V0.906949H109.191C118.668 0.906949 123.957 4.21185 123.957 10.4655C123.957 15.3422 120.629 18.4904 114.636 19.592L124.817 29.0319L124.737 29.2693H115.657L106.218 19.9481ZM63.6516 6.9232L56.9543 17.7829H70.0325L63.6516 6.9232ZM73.4024 23.5664H53.3904L49.8644 29.2693H41.9146L59.9319 0.906949H67.6455L84.7176 29.274H76.7298L73.4024 23.5664Z" fill="black"/>
<path d="M35.8457 18.2197C34.1253 21.7668 29.4082 23.8039 22.0491 23.8039C12.5725 23.8039 7.44422 20.461 7.44422 14.8721C7.44422 9.36389 12.5725 5.97827 22.0491 5.97827C29.6729 5.97827 34.4561 8.18628 36.0159 11.9375L43.5546 11.2538C41.664 4.15962 33.9693 0 22.0491 0C8.22409 0 0 5.5889 0 14.8721C0 24.198 8.22409 29.7821 22.0491 29.7821C33.7424 29.7821 41.371 25.7839 43.4459 18.9082L35.8457 18.2197Z" fill="black"/>
<path d="M236.844 24.217C233.9 25.7317 223.752 40.9314 223.26 46.2402C223.185 46.848 223.26 48.9705 226.427 48.9705C237.785 48.2108 246.047 40.6323 246.798 37.2989C247.139 35.8221 246.647 34.6825 244.648 34.6825C241.292 34.6825 233.366 39.5734 233.366 46.017C233.366 50.376 236.948 52.0048 241.59 52.0048C251.7 52.0048 266.262 44.4643 277.469 46.772C278.56 46.9999 278.863 46.9999 278.976 46.5821C279.128 46.0882 278.296 45.8223 277.431 45.5232C264.338 41.2021 247.701 49.6163 239.893 49.6163C236.424 49.6163 235.668 47.3038 235.668 46.2449C235.668 42.2657 241.93 38.2486 244.761 37.4888C244.497 38.2486 240.309 41.468 235.819 43.7805C231.934 45.7891 227.897 46.5868 225.331 46.7388C225.331 44.1983 232.387 35.7462 235.63 31.0832C237.553 28.3529 237.932 27.5979 238.234 25.9644C238.428 24.8628 238.012 23.6899 236.844 24.217ZM172.522 34.6018C173.429 33.3529 173.24 32.4033 171.539 33.163C168.107 34.7157 162.294 43.3199 160.861 47.641C160.143 49.8015 161.277 50.4473 162.294 50.4473C165.389 50.4473 170.234 41.9571 177.777 39.0748L177.886 37.9019C176.757 41.1594 172.252 45.1813 172.252 47.9449C172.252 49.1937 172.895 49.7635 173.911 49.7635C177.683 49.7635 182.991 42.1993 186.8 41.7814L186.545 40.846C185.378 43.5003 182.362 45.5184 182.362 48.6666C182.362 49.8015 183.156 50.6752 184.853 50.6752C187.911 50.6752 192.699 47.3798 195.644 44.1936L195.757 42.4889C193.153 44.6874 186.399 47.6457 184.815 47.6077C185.042 46.3209 187.949 43.3626 187.949 40.7083C187.949 39.9485 187.609 39.2695 186.176 39.2695C183.043 39.2695 178.482 44.4643 173.613 47.0759L175.575 48.2108C175.235 44.3455 179.195 41.3873 179.195 38.4338C179.195 37.712 178.969 36.7671 177.461 36.7671C174.516 36.7671 168.065 41.0881 162.029 47.3798H163.499C167.048 40.4803 171.198 36.4252 172.522 34.6018ZM215.188 46.5441C217.868 42.6409 222.542 39.2647 224.508 40.1384C218.733 44.6494 216.473 45.8983 215.188 46.5441ZM215.679 41.5012C213.68 43.7377 212.248 46.4681 212.399 47.9069C212.512 49.1177 213.042 49.6875 214.096 49.6875C216.587 49.6875 224.508 44.4548 225.903 41.8051L226.243 39.4167C225.714 38.1299 225 37.4461 223.298 37.4461C220.807 37.4461 218.624 38.3958 215.679 41.5012ZM209.643 37.0282C206.964 37.0282 202.927 43.3199 202.927 47.3371C202.927 49.2697 203.57 50.1054 204.813 50.1054C207.153 50.1054 213.529 46.772 216.284 43.3199V41.9571C213.08 45.1765 206.439 47.2231 205.116 47.2231H204.926L204.964 47.1091C205.834 45.2905 207.379 43.3199 208.774 41.5392C209.979 40.0625 211 38.657 211 38.054C211 37.2942 210.319 37.0282 209.643 37.0282ZM208.774 37.4081C207.942 36.0453 206.699 35.7034 205.38 35.7034C202.738 35.7034 199.874 37.1042 197.118 40.3664C194.779 43.0967 192.666 46.9999 192.666 48.5906C192.666 49.9534 193.195 50.5612 194.287 50.5612C197.643 50.5612 205.683 42.9448 207.417 39.7586L207.984 38.0919C207.682 38.3958 207.417 38.5097 206.93 38.9656C204.818 41.1261 199.538 44.5355 196.102 46.5441C198.517 41.9571 205.12 36.0073 207.309 38.8516L208.774 37.4081Z" fill="black"/>
</svg>
