<svg width="416" height="253" viewBox="0 0 416 253" fill="none" xmlns="http://www.w3.org/2000/svg">
<path d="M408.324 49.062C407.73 48.1709 406.611 47.7815 405.584 48.1029L375.601 57.3787L372.742 17.7406C372.601 15.8703 369.915 14.9201 368.589 16.2718L340.251 45.3275L323.561 19.1139C322.981 18.2081 321.861 17.7927 320.822 18.0993C319.78 18.4036 319.078 19.3551 319.103 20.421L320.202 67.1576C320.225 68.1347 320.859 68.9938 321.794 69.3246L374.202 87.8612C375.141 88.1935 376.183 87.93 376.837 87.1892L408.124 51.9075C408.836 51.1084 408.914 49.943 408.324 49.062ZM368.314 23.402L370.867 58.8436L352.486 64.5294L342.889 49.4686L368.314 23.402ZM336.812 48.855L324.888 61.076L324.13 28.9357L336.812 48.855ZM326.723 66.0399L339.451 52.9956L347.735 66.0013L336.466 69.4854L326.723 66.0393L326.723 66.0399ZM343.945 72.1313L350.375 70.1468L353.881 75.6456L343.945 72.1313ZM361.105 78.0638L355.123 68.6701L371.213 63.693L372.55 82.2521L361.208 78.2402C361.179 78.181 361.143 78.126 361.105 78.0638ZM377.199 79.5822L375.952 62.2301L398.875 55.1374L377.199 79.5822Z" fill="black"/>
<path d="M64.75 90.75C66.9167 90.75 68.75 91.2917 70.25 92.375C71.75 93.375 72.5 94.625 72.5 96.125C72.5 98.7917 71.6667 100.958 70 102.625C68.3333 104.208 65.9583 105 62.875 105C58.0417 105 54.375 105.042 51.875 105.125C51.7083 106.125 50.9583 110.625 49.625 118.625C48.125 127.542 47.2083 133 46.875 135L44.25 151.375C42.4167 163.625 40.9583 173.875 39.875 182.125C41.625 182.042 44 182 47 182C51.4167 182 54.4167 182.583 56 183.75C57.5833 184.917 58.375 186.667 58.375 189C58.375 191.167 57.5 193 55.75 194.5C54.0833 196 51.7083 196.75 48.625 196.75C46.5417 196.75 43.25 196.667 38.75 196.5C34.5833 196.333 31.8333 196.25 30.5 196.25C25.25 196.25 19.5 196.708 13.25 197.625C10.5 198.042 8.54167 198.25 7.375 198.25C5.54167 198.25 4 197.75 2.75 196.75C1.5 195.75 0.875 194.292 0.875 192.375C0.875 189.375 2.20833 187.042 4.875 185.375C7.54167 183.708 11.2917 182.833 16.125 182.75L22 182.625L22.375 179.875C24.375 166.542 25.8333 157.125 26.75 151.625L29.5 135.25C31.1667 125.583 32.6667 115.625 34 105.375L23.5 105.5C20.5 105.5 18.4167 105.042 17.25 104.125C16.1667 103.125 15.625 101.75 15.625 100C15.625 94.3333 19.7083 91.2917 27.875 90.875C31.7083 90.7083 36.375 90.625 41.875 90.625L64.75 90.75ZM79.7646 196.625C76.598 196.625 74.348 194.958 73.0146 191.625C71.7646 188.292 71.1396 182.958 71.1396 175.625C71.1396 164.792 72.6813 154.5 75.7646 144.75C76.5146 142.333 77.723 140.583 79.3896 139.5C81.1396 138.333 83.5563 137.75 86.6396 137.75C88.3063 137.75 89.473 137.958 90.1396 138.375C90.8063 138.792 91.1396 139.583 91.1396 140.75C91.1396 142.083 90.5146 145.083 89.2646 149.75C88.4313 153.083 87.7646 156 87.2646 158.5C86.7646 161 86.348 164.083 86.0147 167.75C88.7646 160.583 91.848 154.75 95.2647 150.25C98.6813 145.75 102.015 142.542 105.265 140.625C108.598 138.708 111.64 137.75 114.39 137.75C119.806 137.75 122.515 140.458 122.515 145.875C122.515 149.125 121.598 155 119.765 163.5C118.181 170.75 117.39 175.542 117.39 177.875C117.39 181.208 118.598 182.875 121.015 182.875C122.681 182.875 124.64 181.875 126.89 179.875C129.223 177.792 132.306 174.458 136.14 169.875C137.14 168.708 138.265 168.125 139.515 168.125C140.598 168.125 141.431 168.625 142.015 169.625C142.681 170.625 143.015 172 143.015 173.75C143.015 177.083 142.223 179.667 140.64 181.5C137.056 185.917 133.181 189.542 129.015 192.375C124.931 195.208 120.265 196.625 115.015 196.625C110.765 196.625 107.556 195.417 105.39 193C103.223 190.5 102.14 186.917 102.14 182.25C102.14 179.917 102.723 175.75 103.89 169.75C104.973 164.5 105.515 160.875 105.515 158.875C105.515 157.542 105.056 156.875 104.14 156.875C103.056 156.875 101.515 158.292 99.5146 161.125C97.598 163.875 95.598 167.542 93.5147 172.125C91.5147 176.708 89.8897 181.542 88.6397 186.625C87.723 190.542 86.6396 193.208 85.3896 194.625C84.223 195.958 82.348 196.625 79.7646 196.625ZM149.276 129.5C145.776 129.5 143.151 128.708 141.401 127.125C139.651 125.458 138.776 123.167 138.776 120.25C138.776 117.333 139.901 114.917 142.151 113C144.485 111 147.36 110 150.776 110C153.86 110 156.36 110.75 158.276 112.25C160.193 113.75 161.151 115.875 161.151 118.625C161.151 121.958 160.068 124.625 157.901 126.625C155.735 128.542 152.86 129.5 149.276 129.5ZM148.276 196.625C142.86 196.625 138.901 194.708 136.401 190.875C133.985 187.042 132.776 181.958 132.776 175.625C132.776 171.875 133.235 167.083 134.151 161.25C135.151 155.333 136.401 149.833 137.901 144.75C138.651 142.083 139.651 140.25 140.901 139.25C142.151 138.25 144.151 137.75 146.901 137.75C151.151 137.75 153.276 139.167 153.276 142C153.276 144.083 152.485 148.917 150.901 156.5C148.901 165.667 147.901 171.875 147.901 175.125C147.901 177.625 148.235 179.542 148.901 180.875C149.568 182.208 150.693 182.875 152.276 182.875C153.776 182.875 155.651 181.833 157.901 179.75C160.151 177.667 163.151 174.375 166.901 169.875C167.901 168.708 169.026 168.125 170.276 168.125C171.36 168.125 172.193 168.625 172.776 169.625C173.443 170.625 173.776 172 173.776 173.75C173.776 177.083 172.985 179.667 171.401 181.5C163.151 191.583 155.443 196.625 148.276 196.625ZM219.413 168.125C220.496 168.125 221.33 168.625 221.913 169.625C222.58 170.625 222.913 172 222.913 173.75C222.913 177.083 222.121 179.667 220.538 181.5C216.955 185.917 213.038 189.542 208.788 192.375C204.538 195.208 199.663 196.625 194.163 196.625C177.163 196.625 168.663 184.667 168.663 160.75C168.663 157.083 168.788 153.375 169.038 149.625H164.163C161.663 149.625 159.955 149.167 159.038 148.25C158.205 147.333 157.788 145.875 157.788 143.875C157.788 139.208 159.663 136.875 163.413 136.875H170.538C171.955 127.708 174.121 119.333 177.038 111.75C179.955 104.167 183.455 98.125 187.538 93.625C191.705 89.125 196.163 86.875 200.913 86.875C204.413 86.875 207.163 88.4167 209.163 91.5C211.163 94.5833 212.163 98.4583 212.163 103.125C212.163 116.042 206.746 127.292 195.913 136.875H209.913C211.246 136.875 212.205 137.167 212.788 137.75C213.371 138.333 213.663 139.417 213.663 141C213.663 146.75 208.955 149.625 199.538 149.625H184.288C184.121 153.792 184.038 157.042 184.038 159.375C184.038 168.042 185.038 174.125 187.038 177.625C189.121 181.125 192.371 182.875 196.788 182.875C200.371 182.875 203.538 181.792 206.288 179.625C209.038 177.458 212.288 174.208 216.038 169.875C217.038 168.708 218.163 168.125 219.413 168.125ZM197.538 98.875C196.288 98.875 194.871 100.458 193.288 103.625C191.788 106.708 190.33 111.042 188.913 116.625C187.58 122.125 186.455 128.25 185.538 135C190.455 130.75 194.121 126 196.538 120.75C199.038 115.417 200.288 110.583 200.288 106.25C200.288 101.333 199.371 98.875 197.538 98.875ZM229.11 129.5C225.61 129.5 222.985 128.708 221.235 127.125C219.485 125.458 218.61 123.167 218.61 120.25C218.61 117.333 219.735 114.917 221.985 113C224.319 111 227.194 110 230.61 110C233.694 110 236.194 110.75 238.11 112.25C240.027 113.75 240.985 115.875 240.985 118.625C240.985 121.958 239.902 124.625 237.735 126.625C235.569 128.542 232.694 129.5 229.11 129.5ZM228.11 196.625C222.694 196.625 218.735 194.708 216.235 190.875C213.819 187.042 212.61 181.958 212.61 175.625C212.61 171.875 213.069 167.083 213.985 161.25C214.985 155.333 216.235 149.833 217.735 144.75C218.485 142.083 219.485 140.25 220.735 139.25C221.985 138.25 223.985 137.75 226.735 137.75C230.985 137.75 233.11 139.167 233.11 142C233.11 144.083 232.319 148.917 230.735 156.5C228.735 165.667 227.735 171.875 227.735 175.125C227.735 177.625 228.069 179.542 228.735 180.875C229.402 182.208 230.527 182.875 232.11 182.875C233.61 182.875 235.485 181.833 237.735 179.75C239.985 177.667 242.985 174.375 246.735 169.875C247.735 168.708 248.86 168.125 250.11 168.125C251.194 168.125 252.027 168.625 252.61 169.625C253.277 170.625 253.61 172 253.61 173.75C253.61 177.083 252.819 179.667 251.235 181.5C242.985 191.583 235.277 196.625 228.11 196.625ZM258.872 196.625C253.705 196.625 249.58 194.75 246.497 191C243.414 187.25 241.872 182.333 241.872 176.25C241.872 169.583 243.414 163.292 246.497 157.375C249.58 151.375 253.664 146.583 258.747 143C263.914 139.333 269.372 137.5 275.122 137.5C276.955 137.5 278.164 137.875 278.747 138.625C279.414 139.292 279.955 140.542 280.372 142.375C282.122 142.042 283.955 141.875 285.872 141.875C289.955 141.875 291.997 143.333 291.997 146.25C291.997 148 291.372 152.167 290.122 158.75C288.205 168.333 287.247 175 287.247 178.75C287.247 180 287.539 181 288.122 181.75C288.789 182.5 289.622 182.875 290.622 182.875C292.205 182.875 294.122 181.875 296.372 179.875C298.622 177.792 301.664 174.458 305.497 169.875C306.497 168.708 307.622 168.125 308.872 168.125C309.955 168.125 310.789 168.625 311.372 169.625C312.039 170.625 312.372 172 312.372 173.75C312.372 177.083 311.58 179.667 309.997 181.5C306.58 185.75 302.955 189.333 299.122 192.25C295.289 195.167 291.58 196.625 287.997 196.625C285.247 196.625 282.705 195.708 280.372 193.875C278.122 191.958 276.414 189.375 275.247 186.125C270.914 193.125 265.455 196.625 258.872 196.625ZM263.372 184C265.205 184 266.955 182.917 268.622 180.75C270.289 178.583 271.497 175.708 272.247 172.125L276.872 149.125C273.372 149.208 270.122 150.542 267.122 153.125C264.205 155.625 261.872 158.958 260.122 163.125C258.372 167.292 257.497 171.708 257.497 176.375C257.497 178.958 257.997 180.875 258.997 182.125C260.08 183.375 261.539 184 263.372 184ZM338.338 178.375C339.255 177.542 340.171 177.125 341.088 177.125C342.088 177.125 342.88 177.708 343.463 178.875C344.13 179.958 344.463 181.292 344.463 182.875C344.463 186.375 343.213 189.167 340.713 191.25C336.38 194.833 331.463 196.625 325.963 196.625C318.046 196.625 312.255 193.333 308.588 186.75C304.921 180.083 303.088 171.417 303.088 160.75C303.088 150.583 304.38 139 306.963 126C309.63 113 313.505 101.833 318.588 92.5C323.755 83.1667 329.88 78.5 336.963 78.5C340.963 78.5 344.088 80.375 346.338 84.125C348.671 87.7917 349.838 93.0833 349.838 100C349.838 109.917 347.088 121.417 341.588 134.5C336.171 147.583 328.755 160.5 319.338 173.25C319.921 176.667 320.963 179.125 322.463 180.625C323.963 182.125 326.005 182.875 328.588 182.875C330.005 182.875 331.588 182.458 333.338 181.625C335.171 180.792 336.838 179.708 338.338 178.375ZM334.213 90.875C332.296 90.875 330.13 94.3333 327.713 101.25C325.296 108.167 323.171 116.75 321.338 127C319.505 137.25 318.505 147.083 318.338 156.5C324.255 146.75 328.963 137 332.463 127.25C335.963 117.417 337.713 108.458 337.713 100.375C337.713 94.0417 336.546 90.875 334.213 90.875Z" fill="#002366"/>
</svg>
