<svg width="479" height="227" viewBox="0 0 479 227" fill="none" xmlns="http://www.w3.org/2000/svg">
<path d="M30 170.625C26.9167 170.625 24.7083 169.958 23.375 168.625C22.0417 167.208 21.375 164.583 21.375 160.75C21.375 158.167 21.625 154.875 22.125 150.875C22.7083 146.792 23.625 141.208 24.875 134.125C27.0417 121.042 28.75 109.708 30 100.125C30.75 94.125 31.125 89.125 31.125 85.125C31.125 81.375 29.75 79.5 27 79.5C24.8333 79.5 22.2083 80.625 19.125 82.875C16.125 85.0417 12.7917 88.5417 9.125 93.375C7.95833 94.9583 6.66667 95.75 5.25 95.75C4.08333 95.75 3.04167 95.2083 2.125 94.125C1.29167 92.9583 0.875 91.6667 0.875 90.25C0.875 88.9167 1.125 87.5833 1.625 86.25C2.20833 84.8333 3.125 83.25 4.375 81.5C8.375 75.9167 12.8333 71.625 17.75 68.625C22.6667 65.5417 27.5833 64 32.5 64C37.0833 64 40.5833 65.4583 43 68.375C45.5 71.2917 46.75 75.5417 46.75 81.125C46.75 83.375 46.5417 86.0417 46.125 89.125C45.7083 92.125 45.3333 94.5833 45 96.5C44.6667 98.4167 44.4167 99.75 44.25 100.5C49 86.9167 54.3333 77.4583 60.25 72.125C66.1667 66.7083 72.6667 64 79.75 64C85.1667 64 89.4167 65.9167 92.5 69.75C95.6667 73.5833 97.25 79 97.25 86C97.25 88.75 96.875 92.1667 96.125 96.25C100.292 84.75 105.167 76.5 110.75 71.5C116.333 66.5 122.75 64 130 64C135.833 64 140.292 65.875 143.375 69.625C146.542 73.375 148.125 78.625 148.125 85.375C148.125 89.0417 147.583 93.5 146.5 98.75L138.875 134.5C138.042 138.667 137.625 142.25 137.625 145.25C137.625 148.75 138.417 151.375 140 153.125C141.667 154.875 143.958 155.75 146.875 155.75C149.625 155.75 152.292 154.833 154.875 153C157.542 151.167 160.667 148.125 164.25 143.875C165.25 142.708 166.375 142.125 167.625 142.125C168.708 142.125 169.542 142.625 170.125 143.625C170.792 144.625 171.125 146 171.125 147.75C171.125 151 170.333 153.583 168.75 155.5C164.417 160.75 160.125 164.583 155.875 167C151.625 169.417 147.167 170.625 142.5 170.625C135.417 170.625 129.875 168.542 125.875 164.375C121.875 160.125 119.875 154.458 119.875 147.375C119.875 142.458 120.875 135.333 122.875 126L127.875 103.125C128.042 102.375 128.333 101.042 128.75 99.125C129.167 97.2083 129.5 95.4167 129.75 93.75C130 92 130.125 90.2917 130.125 88.625C130.125 85.7083 129.542 83.5417 128.375 82.125C127.292 80.625 125.708 79.875 123.625 79.875C119.708 79.875 115.583 82.4167 111.25 87.5C107 92.5 102.917 100.833 99 112.5C95.1667 124.167 92.0417 139.333 89.625 158C89.0417 163 88 166.375 86.5 168.125C85.0833 169.792 82.75 170.625 79.5 170.625C76.6667 170.625 74.5833 169.958 73.25 168.625C72 167.292 71.375 164.792 71.375 161.125C71.375 157.708 71.8333 153.25 72.75 147.75C73.6667 142.167 74.8333 135.625 76.25 128.125C80.0833 107.958 82 94.9583 82 89.125C82 85.9583 81.375 83.625 80.125 82.125C78.9583 80.625 77.1667 79.875 74.75 79.875C70.6667 79.875 66.4583 82.2083 62.125 86.875C57.7917 91.4583 53.5417 99.6667 49.375 111.5C45.2917 123.25 41.875 139.167 39.125 159.25C38.5417 163.5 37.6667 166.458 36.5 168.125C35.4167 169.792 33.25 170.625 30 170.625ZM176.428 170.625C171.261 170.625 167.136 168.75 164.053 165C160.969 161.25 159.428 156.333 159.428 150.25C159.428 143.583 160.969 137.292 164.053 131.375C167.136 125.375 171.219 120.583 176.303 117C181.469 113.333 186.928 111.5 192.678 111.5C194.511 111.5 195.719 111.875 196.303 112.625C196.969 113.292 197.511 114.542 197.928 116.375C199.678 116.042 201.511 115.875 203.428 115.875C207.511 115.875 209.553 117.333 209.553 120.25C209.553 122 208.928 126.167 207.678 132.75C205.761 142.333 204.803 149 204.803 152.75C204.803 154 205.094 155 205.678 155.75C206.344 156.5 207.178 156.875 208.178 156.875C209.761 156.875 211.678 155.875 213.928 153.875C216.178 151.792 219.219 148.458 223.053 143.875C224.053 142.708 225.178 142.125 226.428 142.125C227.511 142.125 228.344 142.625 228.928 143.625C229.594 144.625 229.928 146 229.928 147.75C229.928 151.083 229.136 153.667 227.553 155.5C224.136 159.75 220.511 163.333 216.678 166.25C212.844 169.167 209.136 170.625 205.553 170.625C202.803 170.625 200.261 169.708 197.928 167.875C195.678 165.958 193.969 163.375 192.803 160.125C188.469 167.125 183.011 170.625 176.428 170.625ZM180.928 158C182.761 158 184.511 156.917 186.178 154.75C187.844 152.583 189.053 149.708 189.803 146.125L194.428 123.125C190.928 123.208 187.678 124.542 184.678 127.125C181.761 129.625 179.428 132.958 177.678 137.125C175.928 141.292 175.053 145.708 175.053 150.375C175.053 152.958 175.553 154.875 176.553 156.125C177.636 157.375 179.094 158 180.928 158ZM275.519 142.125C276.602 142.125 277.435 142.625 278.019 143.625C278.685 144.625 279.019 146 279.019 147.75C279.019 151.083 278.227 153.667 276.644 155.5C273.56 159.25 269.185 162.708 263.519 165.875C257.935 169.042 251.935 170.625 245.519 170.625C236.769 170.625 229.977 168.25 225.144 163.5C220.31 158.75 217.894 152.25 217.894 144C217.894 138.25 219.102 132.917 221.519 128C223.935 123 227.269 119.042 231.519 116.125C235.852 113.208 240.727 111.75 246.144 111.75C250.977 111.75 254.852 113.208 257.769 116.125C260.685 118.958 262.144 122.833 262.144 127.75C262.144 133.5 260.06 138.458 255.894 142.625C251.81 146.708 244.852 149.958 235.019 152.375C237.102 156.208 241.06 158.125 246.894 158.125C250.644 158.125 254.894 156.833 259.644 154.25C264.477 151.583 268.644 148.125 272.144 143.875C273.144 142.708 274.269 142.125 275.519 142.125ZM244.019 124C240.935 124 238.31 125.792 236.144 129.375C234.06 132.958 233.019 137.292 233.019 142.375V142.625C237.935 141.458 241.81 139.708 244.644 137.375C247.477 135.042 248.894 132.333 248.894 129.25C248.894 127.667 248.435 126.417 247.519 125.5C246.685 124.5 245.519 124 244.019 124ZM292.091 173.375C287.757 173.375 284.424 172.375 282.091 170.375C279.841 168.375 278.716 166.125 278.716 163.625C278.716 161.458 279.507 159.583 281.091 158C282.674 156.417 285.007 155.625 288.091 155.625C289.174 155.625 290.424 155.75 291.841 156C293.341 156.167 294.466 156.292 295.216 156.375C295.132 154.208 294.632 152.167 293.716 150.25C292.882 148.333 291.799 146.5 290.466 144.75C289.132 142.917 287.882 141.333 286.716 140C284.132 144.917 281.549 149 278.966 152.25C276.466 155.5 273.716 158.583 270.716 161.5C269.216 163 267.632 163.75 265.966 163.75C264.632 163.75 263.549 163.292 262.716 162.375C261.882 161.375 261.466 160.167 261.466 158.75C261.466 157.083 262.049 155.542 263.216 154.125L264.841 152.125C269.424 146.458 272.882 141.792 275.216 138.125C276.632 135.708 278.299 132.5 280.216 128.5C282.132 124.417 284.007 120.208 285.841 115.875C287.424 112.208 290.716 110.375 295.716 110.375C298.049 110.375 299.674 110.583 300.591 111C301.507 111.417 301.966 112.083 301.966 113C301.966 113.5 301.799 114.292 301.466 115.375C301.132 116.458 300.674 117.542 300.091 118.625C298.591 121.625 297.841 124.167 297.841 126.25C297.841 127.5 298.257 128.875 299.091 130.375C300.007 131.875 301.382 133.75 303.216 136C305.882 139.5 307.882 142.5 309.216 145C310.632 147.417 311.341 150.083 311.341 153C311.341 153.833 311.257 155 311.091 156.5C315.174 154.917 319.966 150.708 325.466 143.875C326.466 142.708 327.591 142.125 328.841 142.125C329.924 142.125 330.757 142.625 331.341 143.625C332.007 144.625 332.341 146 332.341 147.75C332.341 150.917 331.549 153.5 329.966 155.5C325.799 160.667 321.799 164.208 317.966 166.125C314.216 167.958 309.549 168.958 303.966 169.125C300.632 171.958 296.674 173.375 292.091 173.375ZM377.936 142.125C379.019 142.125 379.852 142.625 380.436 143.625C381.102 144.625 381.436 146 381.436 147.75C381.436 151.083 380.644 153.667 379.061 155.5C375.477 159.917 371.561 163.542 367.311 166.375C363.061 169.208 358.186 170.625 352.686 170.625C335.686 170.625 327.186 158.667 327.186 134.75C327.186 131.083 327.311 127.375 327.561 123.625H322.686C320.186 123.625 318.477 123.167 317.561 122.25C316.727 121.333 316.311 119.875 316.311 117.875C316.311 113.208 318.186 110.875 321.936 110.875H329.061C330.477 101.708 332.644 93.3333 335.561 85.75C338.477 78.1667 341.977 72.125 346.061 67.625C350.227 63.125 354.686 60.875 359.436 60.875C362.936 60.875 365.686 62.4167 367.686 65.5C369.686 68.5833 370.686 72.4583 370.686 77.125C370.686 90.0417 365.269 101.292 354.436 110.875H368.436C369.769 110.875 370.727 111.167 371.311 111.75C371.894 112.333 372.186 113.417 372.186 115C372.186 120.75 367.477 123.625 358.061 123.625H342.811C342.644 127.792 342.561 131.042 342.561 133.375C342.561 142.042 343.561 148.125 345.561 151.625C347.644 155.125 350.894 156.875 355.311 156.875C358.894 156.875 362.061 155.792 364.811 153.625C367.561 151.458 370.811 148.208 374.561 143.875C375.561 142.708 376.686 142.125 377.936 142.125ZM356.061 72.875C354.811 72.875 353.394 74.4583 351.811 77.625C350.311 80.7083 348.852 85.0417 347.436 90.625C346.102 96.125 344.977 102.25 344.061 109C348.977 104.75 352.644 100 355.061 94.75C357.561 89.4167 358.811 84.5833 358.811 80.25C358.811 75.3333 357.894 72.875 356.061 72.875ZM380.133 170.625C376.966 170.625 374.716 168.958 373.383 165.625C372.133 162.292 371.508 156.958 371.508 149.625C371.508 138.792 373.049 128.5 376.133 118.75C376.883 116.333 378.091 114.583 379.758 113.5C381.508 112.333 383.924 111.75 387.008 111.75C388.674 111.75 389.841 111.958 390.508 112.375C391.174 112.792 391.508 113.583 391.508 114.75C391.508 116.083 390.883 119.083 389.633 123.75C388.799 127.083 388.133 130 387.633 132.5C387.133 135 386.716 138.083 386.383 141.75C389.133 134.583 392.216 128.75 395.633 124.25C399.049 119.75 402.383 116.542 405.633 114.625C408.966 112.708 412.008 111.75 414.758 111.75C420.174 111.75 422.883 114.458 422.883 119.875C422.883 120.958 422.508 123.583 421.758 127.75C421.091 131.083 420.758 133.167 420.758 134C420.758 136.917 421.799 138.375 423.883 138.375C426.216 138.375 429.216 136.542 432.883 132.875C433.966 131.792 435.091 131.25 436.258 131.25C437.341 131.25 438.174 131.75 438.758 132.75C439.424 133.667 439.758 134.917 439.758 136.5C439.758 139.583 438.924 142 437.258 143.75C434.924 146.167 432.174 148.25 429.008 150C425.924 151.667 422.633 152.5 419.133 152.5C414.716 152.5 411.341 151.375 409.008 149.125C406.758 146.875 405.633 143.833 405.633 140C405.633 138.75 405.758 137.5 406.008 136.25C406.174 134.583 406.258 133.458 406.258 132.875C406.258 131.542 405.799 130.875 404.883 130.875C403.633 130.875 401.966 132.292 399.883 135.125C397.883 137.875 395.883 141.542 393.883 146.125C391.883 150.708 390.258 155.542 389.008 160.625C388.091 164.542 387.008 167.208 385.758 168.625C384.591 169.958 382.716 170.625 380.133 170.625ZM449.268 170.625C444.351 170.625 440.143 169.417 436.643 167C433.226 164.5 430.643 161.25 428.893 157.25C427.143 153.25 426.268 148.958 426.268 144.375C426.268 138.042 427.434 132.417 429.768 127.5C432.184 122.5 435.434 118.625 439.518 115.875C443.601 113.042 448.184 111.625 453.268 111.625C458.184 111.625 462.393 112.875 465.893 115.375C469.393 117.792 472.018 121 473.768 125C475.518 129 476.393 133.292 476.393 137.875C476.393 144.208 475.184 149.875 472.768 154.875C470.351 159.792 467.059 163.667 462.893 166.5C458.809 169.25 454.268 170.625 449.268 170.625ZM450.643 157.125C453.476 157.125 455.851 155.583 457.768 152.5C459.768 149.417 460.768 144.917 460.768 139C460.768 134.417 459.934 130.958 458.268 128.625C456.601 126.292 454.601 125.125 452.268 125.125C449.268 125.125 446.768 126.667 444.768 129.75C442.851 132.75 441.893 137.25 441.893 143.25C441.893 148 442.726 151.5 444.393 153.75C446.059 156 448.143 157.125 450.643 157.125Z" fill="#F3AA17"/>
<path d="M260.118 70.9669L240.177 33.0792L220.237 70.9669L188.332 37.0676L207.843 101.456C208.098 102.297 208.873 102.872 209.752 102.872H270.604C271.482 102.872 272.257 102.297 272.512 101.456L292.024 37.0676L260.118 70.9669Z" fill="#FFE17D"/>
<path d="M220.237 70.9669L188.332 37.0676L207.843 101.456C208.098 102.297 208.873 102.872 209.752 102.872H225.275L220.237 70.9669Z" fill="#FFD164"/>
<path d="M205.855 94.8959L207.843 101.456C208.098 102.297 208.873 102.872 209.752 102.872H270.604C271.482 102.872 272.257 102.297 272.512 101.456L274.5 94.8959H205.855Z" fill="#FFD164"/>
<path d="M205.855 94.8959L207.843 101.456C208.098 102.297 208.873 102.872 209.752 102.872H225.275L224.015 94.8959H205.855Z" fill="#FFC350"/>
<path d="M240.178 27.098C242.931 27.098 245.163 24.866 245.163 22.1128C245.163 19.3596 242.931 17.1277 240.178 17.1277C237.425 17.1277 235.193 19.3596 235.193 22.1128C235.193 24.866 237.425 27.098 240.178 27.098Z" fill="#FFE17D"/>
<path d="M242.67 24.6047C239.917 24.6047 237.685 22.3727 237.685 19.6195C237.685 18.8885 237.846 18.1964 238.129 17.5709C236.399 18.3527 235.193 20.0899 235.193 22.1121C235.193 24.8653 237.424 27.0973 240.178 27.0973C242.2 27.0973 243.937 25.8909 244.719 24.1608C244.093 24.4434 243.401 24.6047 242.67 24.6047Z" fill="#FFD164"/>
<path d="M183.989 33.0792C186.192 33.0792 187.978 31.2933 187.978 29.0902C187.978 26.8871 186.192 25.1011 183.989 25.1011C181.786 25.1011 180 26.8871 180 29.0902C180 31.2933 181.786 33.0792 183.989 33.0792Z" fill="#FFE17D"/>
<path d="M185.982 31.0854C183.78 31.0854 181.994 29.2999 181.994 27.0973C181.994 26.5125 182.123 25.9587 182.349 25.4583C180.965 26.0838 180 27.4734 180 29.0913C180 31.294 181.785 33.0795 183.988 33.0795C185.606 33.0795 186.996 32.1145 187.621 30.7303C187.121 30.9565 186.567 31.0854 185.982 31.0854Z" fill="#FFD164"/>
<path d="M296.011 33.0792C298.214 33.0792 300 31.2933 300 29.0902C300 26.8871 298.214 25.1011 296.011 25.1011C293.808 25.1011 292.022 26.8871 292.022 29.0902C292.022 31.2933 293.808 33.0792 296.011 33.0792Z" fill="#FFE17D"/>
<path d="M298.006 31.0854C295.803 31.0854 294.018 29.2999 294.018 27.0973C294.018 26.5125 294.147 25.9587 294.373 25.4583C292.989 26.0838 292.024 27.4737 292.024 29.0913C292.024 31.294 293.809 33.0795 296.012 33.0795C297.63 33.0795 299.019 32.1145 299.645 30.7303C299.145 30.9565 298.591 31.0854 298.006 31.0854Z" fill="#FFD164"/>
</svg>
