<svg width="335" height="237" viewBox="0 0 335 237" fill="none" xmlns="http://www.w3.org/2000/svg">
<path d="M122.625 152.125C123.708 152.125 124.542 152.625 125.125 153.625C125.792 154.625 126.125 156 126.125 157.75C126.125 161 125.333 163.583 123.75 165.5C119.75 170.333 115.708 174.083 111.625 176.75C107.542 179.333 102.708 180.625 97.125 180.625C91.7083 180.625 87.0833 179.167 83.25 176.25C79.5 173.333 75.9167 168.333 72.5 161.25C69.75 155.583 67.5833 151.417 66 148.75C64.4167 146 62.8333 144.042 61.25 142.875C59.75 141.708 57.875 141 55.625 140.75C55.2917 142.5 54.3333 148 52.75 157.25C52.0833 161.417 51.6667 163.958 51.5 164.875C50.6667 169.958 49 173.875 46.5 176.625C44 179.292 40.2083 180.625 35.125 180.625C29.5417 180.625 24.5833 179 20.25 175.75C16 172.417 12.7083 167.833 10.375 162C8.04167 156.083 6.875 149.375 6.875 141.875C6.875 127.875 9.29167 115.792 14.125 105.625C19.0417 95.4583 25.875 87.7083 34.625 82.375C43.4583 76.9583 53.625 74.25 65.125 74.25C73.125 74.25 79.8333 75.4583 85.25 77.875C90.6667 80.2917 94.6667 83.625 97.25 87.875C99.9167 92.125 101.25 96.9167 101.25 102.25C101.25 106.917 100.125 111.5 97.875 116C95.7083 120.417 92.4167 124.333 88 127.75C83.5833 131.167 78.2083 133.708 71.875 135.375C75.875 136.458 78.9583 138.208 81.125 140.625C83.2917 143.042 85.4583 146.583 87.625 151.25C89.9583 156.25 92.25 159.917 94.5 162.25C96.8333 164.583 99.5 165.75 102.5 165.75C105.167 165.75 107.708 164.875 110.125 163.125C112.542 161.292 115.583 158.208 119.25 153.875C120.25 152.708 121.375 152.125 122.625 152.125ZM38.375 140.625C35.5417 140.625 33.5833 139.958 32.5 138.625C31.5 137.292 31 135.792 31 134.125C31 132.125 31.625 130.542 32.875 129.375C34.2083 128.208 35.7083 127.625 37.375 127.625H40.5C41.8333 119.458 43.0833 112.417 44.25 106.5C45.3333 101.083 48.8333 98.375 54.75 98.375C59.5 98.375 61.875 100.5 61.875 104.75C61.875 105.667 61.8333 106.375 61.75 106.875L58 127.625C62.5 127.375 66.5833 126.292 70.25 124.375C74 122.458 76.9583 119.792 79.125 116.375C81.375 112.958 82.5 109.083 82.5 104.75C82.5 99.5 80.7083 95.375 77.125 92.375C73.5417 89.375 68.2917 87.875 61.375 87.875C53.2083 87.875 46.0417 89.9167 39.875 94C33.7917 98 29.0417 104 25.625 112C22.2083 119.917 20.5 129.583 20.5 141C20.5 146.333 21.0417 150.917 22.125 154.75C23.2083 158.583 24.5417 161.458 26.125 163.375C27.7083 165.292 29.2083 166.25 30.625 166.25C31.7083 166.25 32.5833 165.708 33.25 164.625C34 163.542 34.5833 161.792 35 159.375L38.375 140.625ZM177.294 141.625C178.377 141.625 179.211 142.167 179.794 143.25C180.377 144.333 180.669 145.708 180.669 147.375C180.669 151.375 179.461 153.75 177.044 154.5C172.044 156.25 166.544 157.25 160.544 157.5C158.961 164.5 155.836 170.125 151.169 174.375C146.502 178.542 141.211 180.625 135.294 180.625C130.294 180.625 126.002 179.417 122.419 177C118.919 174.583 116.252 171.375 114.419 167.375C112.586 163.375 111.669 159.042 111.669 154.375C111.669 148.042 112.877 142.417 115.294 137.5C117.711 132.5 121.044 128.625 125.294 125.875C129.544 123.042 134.252 121.625 139.419 121.625C145.752 121.625 150.836 123.833 154.669 128.25C158.586 132.583 160.877 137.958 161.544 144.375C165.461 144.125 170.127 143.292 175.544 141.875C176.211 141.708 176.794 141.625 177.294 141.625ZM136.294 167.375C138.961 167.375 141.252 166.292 143.169 164.125C145.169 161.958 146.502 158.833 147.169 154.75C144.586 153 142.586 150.708 141.169 147.875C139.836 145.042 139.169 142.042 139.169 138.875C139.169 137.542 139.294 136.208 139.544 134.875H138.919C135.586 134.875 132.794 136.5 130.544 139.75C128.377 142.917 127.294 147.417 127.294 153.25C127.294 157.833 128.169 161.333 129.919 163.75C131.752 166.167 133.877 167.375 136.294 167.375ZM233.94 152.375C235.024 152.375 235.857 152.917 236.44 154C237.107 155 237.44 156.292 237.44 157.875C237.44 159.792 237.149 161.292 236.565 162.375C235.982 163.458 235.065 164.417 233.815 165.25L209.815 181.375C206.649 198.625 202.482 212.167 197.315 222C192.232 231.917 185.732 236.875 177.815 236.875C173.565 236.875 170.107 235.542 167.44 232.875C164.774 230.292 163.44 226.875 163.44 222.625C163.44 218.708 164.315 214.708 166.065 210.625C167.899 206.542 171.232 201.833 176.065 196.5C180.982 191.25 187.899 185.208 196.815 178.375L197.19 175.5C197.774 172.417 198.44 168 199.19 162.25C197.524 168.25 195.19 172.833 192.19 176C189.19 179.083 186.024 180.625 182.69 180.625C178.94 180.625 175.857 178.917 173.44 175.5C171.107 172 169.94 167.667 169.94 162.5C169.94 156.25 170.357 150.542 171.19 145.375C172.024 140.125 173.399 134.583 175.315 128.75C176.149 126.25 177.315 124.458 178.815 123.375C180.315 122.292 182.69 121.75 185.94 121.75C187.774 121.75 189.024 122.042 189.69 122.625C190.44 123.208 190.815 124.083 190.815 125.25C190.815 125.917 190.357 128.167 189.44 132C188.607 135.083 187.94 137.875 187.44 140.375C186.774 143.792 186.19 147.083 185.69 150.25C185.19 153.333 184.94 155.875 184.94 157.875C184.94 161.042 185.815 162.625 187.565 162.625C188.815 162.625 190.357 161.375 192.19 158.875C194.107 156.375 196.107 152.583 198.19 147.5C200.357 142.417 202.44 136.167 204.44 128.75C205.107 126.25 206.107 124.458 207.44 123.375C208.857 122.292 210.94 121.75 213.69 121.75C215.607 121.75 216.94 122 217.69 122.5C218.44 123 218.815 123.833 218.815 125C218.815 127.083 217.732 134.25 215.565 146.5L212.315 166.625C218.732 161.792 224.982 157.375 231.065 153.375C232.149 152.708 233.107 152.375 233.94 152.375ZM179.19 224.75C181.274 224.75 183.607 222.333 186.19 217.5C188.774 212.667 191.357 204.625 193.94 193.375C187.524 198.792 182.857 203.708 179.94 208.125C177.107 212.625 175.69 216.542 175.69 219.875C175.69 221.292 175.94 222.458 176.44 223.375C177.024 224.292 177.94 224.75 179.19 224.75ZM243.909 180.625C238.743 180.625 234.618 178.75 231.534 175C228.451 171.25 226.909 166.333 226.909 160.25C226.909 153.583 228.451 147.292 231.534 141.375C234.618 135.375 238.701 130.583 243.784 127C248.951 123.333 254.409 121.5 260.159 121.5C261.993 121.5 263.201 121.875 263.784 122.625C264.451 123.292 264.993 124.542 265.409 126.375C267.159 126.042 268.993 125.875 270.909 125.875C274.993 125.875 277.034 127.333 277.034 130.25C277.034 132 276.409 136.167 275.159 142.75C273.243 152.333 272.284 159 272.284 162.75C272.284 164 272.576 165 273.159 165.75C273.826 166.5 274.659 166.875 275.659 166.875C277.243 166.875 279.159 165.875 281.409 163.875C283.659 161.792 286.701 158.458 290.534 153.875C291.534 152.708 292.659 152.125 293.909 152.125C294.993 152.125 295.826 152.625 296.409 153.625C297.076 154.625 297.409 156 297.409 157.75C297.409 161.083 296.618 163.667 295.034 165.5C291.618 169.75 287.993 173.333 284.159 176.25C280.326 179.167 276.618 180.625 273.034 180.625C270.284 180.625 267.743 179.708 265.409 177.875C263.159 175.958 261.451 173.375 260.284 170.125C255.951 177.125 250.493 180.625 243.909 180.625ZM248.409 168C250.243 168 251.993 166.917 253.659 164.75C255.326 162.583 256.534 159.708 257.284 156.125L261.909 133.125C258.409 133.208 255.159 134.542 252.159 137.125C249.243 139.625 246.909 142.958 245.159 147.125C243.409 151.292 242.534 155.708 242.534 160.375C242.534 162.958 243.034 164.875 244.034 166.125C245.118 167.375 246.576 168 248.409 168ZM323.375 162.375C324.292 161.542 325.208 161.125 326.125 161.125C327.125 161.125 327.917 161.708 328.5 162.875C329.167 163.958 329.5 165.292 329.5 166.875C329.5 170.375 328.25 173.167 325.75 175.25C321.417 178.833 316.5 180.625 311 180.625C303.083 180.625 297.292 177.333 293.625 170.75C289.958 164.083 288.125 155.417 288.125 144.75C288.125 134.583 289.417 123 292 110C294.667 97 298.542 85.8333 303.625 76.5C308.792 67.1667 314.917 62.5 322 62.5C326 62.5 329.125 64.375 331.375 68.125C333.708 71.7917 334.875 77.0833 334.875 84C334.875 93.9167 332.125 105.417 326.625 118.5C321.208 131.583 313.792 144.5 304.375 157.25C304.958 160.667 306 163.125 307.5 164.625C309 166.125 311.042 166.875 313.625 166.875C315.042 166.875 316.625 166.458 318.375 165.625C320.208 164.792 321.875 163.708 323.375 162.375ZM319.25 74.875C317.333 74.875 315.167 78.3333 312.75 85.25C310.333 92.1667 308.208 100.75 306.375 111C304.542 121.25 303.542 131.083 303.375 140.5C309.292 130.75 314 121 317.5 111.25C321 101.417 322.75 92.4583 322.75 84.375C322.75 78.0417 321.583 74.875 319.25 74.875Z" fill="#002366"/>
<path d="M155.722 95.1865V113.747C155.722 114.414 156.263 114.954 156.93 114.954H241.07C241.737 114.954 242.278 114.414 242.278 113.747V95.1865H155.722Z" fill="#FE9901"/>
<path d="M166.887 113.747V95.4209H155.722V113.747C155.722 114.414 156.263 114.954 156.93 114.954H168.095C167.428 114.954 166.887 114.414 166.887 113.747Z" fill="#FB8801"/>
<path d="M166.529 38.7389C166.844 38.8683 167.016 39.2114 166.949 39.5459L163.055 58.8047L180.285 71.5577L187.35 54.0504L173.109 37.9153C172.881 37.6568 172.857 37.2689 173.069 36.9966C174.205 35.5348 174.605 33.5304 173.903 31.6144C172.998 29.1424 170.428 27.6181 167.826 28.016C164.466 28.53 162.386 31.8152 163.241 35.0055C163.712 36.762 164.967 38.0981 166.529 38.7389Z" fill="#FEE45A"/>
<path d="M166.529 38.7402C166.844 38.8696 167.016 39.2127 166.949 39.5472L163.106 58.5524L166.41 60.9979L171.053 38.0326C171.121 37.6982 170.949 37.355 170.633 37.2257C169.072 36.5851 167.817 35.2487 167.346 33.4925C166.794 31.4317 167.467 29.3324 168.918 27.9648C168.558 27.9472 168.193 27.9613 167.826 28.0173C164.466 28.5313 162.387 31.8165 163.241 35.0068C163.712 36.7632 164.967 38.0994 166.529 38.7402Z" fill="#FEDF30"/>
<path d="M224.895 37.9102L210.65 54.0502L217.715 71.5575L234.945 58.8045L231.053 39.5531C230.985 39.2156 231.157 38.868 231.475 38.737C233.127 38.058 234.436 36.6002 234.834 34.6905C235.407 31.9427 233.802 29.1429 231.141 28.2499C228.05 27.2126 224.772 29.0048 223.941 32.1066C223.468 33.8698 223.893 35.6618 224.933 36.9991C225.144 37.2694 225.121 37.6537 224.895 37.9102Z" fill="#FEDF30"/>
<path d="M224.895 37.9102L210.824 53.8537L212.504 58.0167L229.525 38.7309C229.751 38.4745 229.773 38.0899 229.563 37.8202C228.522 36.4828 228.098 34.6908 228.571 32.9276C229.109 30.919 230.674 29.4607 232.549 28.9631C232.124 28.6648 231.653 28.4215 231.142 28.2502C228.05 27.2128 224.772 29.0051 223.941 32.1068C223.469 33.87 223.893 35.662 224.934 36.9994C225.144 37.2694 225.121 37.6537 224.895 37.9102Z" fill="#FED402"/>
<path d="M252.802 39.7852C250.21 40.0538 248.114 42.1416 247.834 44.7316C247.725 45.7334 247.882 46.6884 248.242 47.5364C248.459 48.0452 248.29 48.6359 247.845 48.9647L217.625 71.333L227.345 95.4206H242.277L251.849 51.8897C251.977 51.3117 252.503 50.9131 253.094 50.9454C253.443 50.9646 253.8 50.9513 254.164 50.9013C256.754 50.546 258.791 48.3881 258.984 45.7812C259.243 42.2953 256.307 39.4216 252.802 39.7852Z" fill="#FED402"/>
<path d="M252.802 39.7852C250.21 40.0538 248.114 42.1416 247.834 44.7316C247.725 45.7336 247.882 46.6884 248.242 47.5366C248.459 48.0455 248.29 48.6361 247.845 48.9649L217.819 71.1891L219.18 74.5615L251.382 50.727C251.826 50.3981 251.995 49.8075 251.779 49.2987C251.419 48.4505 251.262 47.4956 251.37 46.4937C251.651 43.9036 253.747 41.816 256.338 41.5472C256.736 41.5059 257.127 41.5083 257.507 41.5467C256.36 40.3104 254.661 39.5925 252.802 39.7852Z" fill="#FAC600"/>
<path d="M170.655 95.4216L180.375 71.334L150.155 48.9657C149.71 48.6369 149.541 48.0462 149.757 47.5374C150.117 46.6892 150.275 45.7344 150.166 44.7326C149.886 42.1423 147.789 40.0545 145.198 39.7859C141.691 39.4226 138.755 42.2979 139.016 45.7854C139.211 48.3919 141.248 50.5482 143.838 50.9026C144.201 50.9522 144.557 50.9654 144.905 50.9464C145.496 50.914 146.023 51.3125 146.15 51.8907L155.722 95.4216H170.655Z" fill="#FED402"/>
<path d="M149.133 49.1981C149.006 48.6202 148.479 48.2215 147.888 48.2538C147.54 48.2728 147.183 48.2597 146.82 48.21C144.231 47.8556 142.194 45.6991 141.999 43.0929C141.919 42.0213 142.141 41.0081 142.589 40.1283C140.365 40.9849 138.824 43.2181 139.016 45.7847C139.211 48.3912 141.248 50.5474 143.838 50.902C144.201 50.9517 144.557 50.9648 144.905 50.9459C145.496 50.9135 146.023 51.312 146.15 51.8902L155.722 95.4211H159.649L149.133 49.1981Z" fill="#FAC600"/>
<path d="M227.598 95.4209L202.749 33.8445C202.568 33.3954 202.672 32.8814 203.015 32.539L208.28 27.2742C208.751 26.8027 208.751 26.0384 208.28 25.567L199.854 17.141C199.382 16.6695 198.618 16.6695 198.146 17.141L189.72 25.567C189.249 26.0386 189.249 26.8029 189.72 27.2742L194.985 32.539C195.327 32.8814 195.432 33.3954 195.251 33.8445L170.402 95.4209H227.598Z" fill="#FEE45A"/>
<path d="M200.672 32.5392L195.408 27.2745C194.936 26.8029 194.936 26.0386 195.408 25.567L201.844 19.1311L199.854 17.141C199.382 16.6695 198.618 16.6695 198.146 17.141L189.72 25.567C189.249 26.0386 189.249 26.8029 189.72 27.2745L194.985 32.5392C195.328 32.8816 195.432 33.3956 195.251 33.8447L170.402 95.4209H176.089L200.938 33.8445C201.12 33.3954 201.015 32.8816 200.672 32.5392Z" fill="#FEDF30"/>
<path d="M198.319 62.0705L191.307 71.7963C191.098 72.087 191.095 72.4784 191.302 72.7713L198.313 82.7234C198.648 83.1982 199.352 83.1982 199.686 82.7234L206.698 72.7713C206.904 72.4784 206.902 72.087 206.693 71.7963L199.681 62.0705C199.346 61.6055 198.654 61.6055 198.319 62.0705Z" fill="#925CB4"/>
<path d="M197.169 72.7711C196.962 72.4781 196.964 72.0867 197.174 71.7961L201.933 65.1942L199.681 62.0702C199.346 61.6052 198.654 61.6052 198.319 62.0702L191.307 71.7961C191.098 72.0867 191.095 72.4781 191.302 72.7711L198.313 82.7231C198.648 83.198 199.352 83.198 199.686 82.7231L201.933 79.534L197.169 72.7711Z" fill="#814BA2"/>
<path d="M167.359 106.614C168.33 106.614 169.117 105.827 169.117 104.856C169.117 103.885 168.33 103.098 167.359 103.098C166.389 103.098 165.602 103.885 165.602 104.856C165.602 105.827 166.389 106.614 167.359 106.614Z" fill="#FED402"/>
<path d="M180.016 106.614C180.986 106.614 181.773 105.827 181.773 104.856C181.773 103.885 180.986 103.098 180.016 103.098C179.045 103.098 178.258 103.885 178.258 104.856C178.258 105.827 179.045 106.614 180.016 106.614Z" fill="#FED402"/>
<path d="M192.672 106.614C193.643 106.614 194.43 105.827 194.43 104.856C194.43 103.885 193.643 103.098 192.672 103.098C191.701 103.098 190.914 103.885 190.914 104.856C190.914 105.827 191.701 106.614 192.672 106.614Z" fill="#FED402"/>
<path d="M205.328 106.614C206.299 106.614 207.086 105.827 207.086 104.856C207.086 103.885 206.299 103.098 205.328 103.098C204.357 103.098 203.57 103.885 203.57 104.856C203.57 105.827 204.357 106.614 205.328 106.614Z" fill="#FED402"/>
<path d="M217.984 106.614C218.955 106.614 219.742 105.827 219.742 104.856C219.742 103.885 218.955 103.098 217.984 103.098C217.014 103.098 216.227 103.885 216.227 104.856C216.227 105.827 217.014 106.614 217.984 106.614Z" fill="#FED402"/>
<path d="M230.641 106.614C231.611 106.614 232.398 105.827 232.398 104.856C232.398 103.885 231.611 103.098 230.641 103.098C229.67 103.098 228.883 103.885 228.883 104.856C228.883 105.827 229.67 106.614 230.641 106.614Z" fill="#FED402"/>
<path d="M179.912 5.55891C181.151 9.11508 182.597 10.5607 186.153 11.7998C186.837 12.0382 186.837 13.0031 186.153 13.2415C182.597 14.4806 181.151 15.9263 179.912 19.4824C179.674 20.1666 178.709 20.1666 178.47 19.4824C177.231 15.9263 175.786 14.4806 172.229 13.2415C171.545 13.0031 171.545 12.0382 172.229 11.7998C175.786 10.5607 177.231 9.11508 178.47 5.55891C178.709 4.87477 179.674 4.87477 179.912 5.55891Z" fill="#FE9901"/>
<path d="M175.459 10.2035C174.615 10.8335 173.573 11.3316 172.229 11.7998C171.545 12.0382 171.545 13.0031 172.229 13.2415C175.785 14.4806 177.231 15.9263 178.47 19.4824C178.709 20.1666 179.673 20.1666 179.912 19.4824C180.374 18.1554 180.865 17.123 181.484 16.2848C180.275 12.8606 178.848 11.4171 175.459 10.2035Z" fill="#FB8801"/>
<path d="M219.771 12.078C221.01 15.6342 222.456 17.0798 226.012 18.319C226.696 18.5573 226.696 19.5223 226.012 19.7606C222.456 20.9998 221.01 22.4454 219.771 26.0016C219.533 26.6857 218.568 26.6857 218.329 26.0016C217.09 22.4454 215.645 20.9998 212.088 19.7606C211.404 19.5223 211.404 18.5573 212.088 18.319C215.645 17.0798 217.09 15.6342 218.329 12.078C218.568 11.3939 219.533 11.3939 219.771 12.078Z" fill="#FE9901"/>
<path d="M215.435 16.6291C214.57 17.3027 213.497 17.8284 212.088 18.319C211.404 18.5573 211.404 19.5223 212.088 19.7606C215.645 20.9998 217.09 22.4454 218.329 26.0016C218.568 26.6857 219.533 26.6857 219.771 26.0016C220.252 24.622 220.765 23.5629 221.419 22.7074C220.214 19.2888 218.795 17.8409 215.435 16.6291Z" fill="#FB8801"/>
</svg>
