<svg width="223" height="652" viewBox="0 0 223 652" fill="none" xmlns="http://www.w3.org/2000/svg">
<rect width="4.1106" height="4.90226" transform="matrix(-1 0 0 1 223 0)" fill="#F2ACAC"/>
<rect width="4.1106" height="4.90226" transform="matrix(-1 0 0 1 223 294.135)" fill="#F2ACAC"/>
<rect width="4.1106" height="4.90226" transform="matrix(-1 0 0 1 223 147.068)" fill="#F2ACAC"/>
<rect width="4.1106" height="4.90226" transform="matrix(-1 0 0 1 223 441.203)" fill="#F2ACAC"/>
<rect width="4.1106" height="4.90226" transform="matrix(-1 0 0 1 223 73.5338)" fill="#F2ACAC"/>
<rect width="4.1106" height="4.90226" transform="matrix(-1 0 0 1 223 367.669)" fill="#F2ACAC"/>
<rect width="4.1106" height="4.90226" transform="matrix(-1 0 0 1 223 220.602)" fill="#F2ACAC"/>
<rect width="4.1106" height="4.90226" transform="matrix(-1 0 0 1 223 514.737)" fill="#F2ACAC"/>
<rect width="4.1106" height="4.90226" transform="matrix(-1 0 0 1 223 588.271)" fill="#F2ACAC"/>
<rect width="4.1106" height="4.90226" transform="matrix(-1 0 0 1 223 14.7068)" fill="#F2ACAC"/>
<rect width="4.1106" height="4.90226" transform="matrix(-1 0 0 1 223 308.842)" fill="#F2ACAC"/>
<rect width="4.1106" height="4.90226" transform="matrix(-1 0 0 1 223 161.774)" fill="#F2ACAC"/>
<rect width="4.1106" height="4.90226" transform="matrix(-1 0 0 1 223 455.91)" fill="#F2ACAC"/>
<rect width="4.1106" height="4.90226" transform="matrix(-1 0 0 1 223 88.2406)" fill="#F2ACAC"/>
<rect width="4.1106" height="4.90226" transform="matrix(-1 0 0 1 223 382.376)" fill="#F2ACAC"/>
<rect width="4.1106" height="4.90226" transform="matrix(-1 0 0 1 223 235.308)" fill="#F2ACAC"/>
<rect width="4.1106" height="4.90226" transform="matrix(-1 0 0 1 223 529.444)" fill="#F2ACAC"/>
<rect width="4.1106" height="4.90226" transform="matrix(-1 0 0 1 223 602.977)" fill="#F2ACAC"/>
<rect width="4.1106" height="4.90226" transform="matrix(-1 0 0 1 171.617 602.977)" fill="#F2ACAC"/>
<rect width="4.1106" height="4.90226" transform="matrix(-1 0 0 1 120.235 602.977)" fill="#F2ACAC"/>
<rect width="4.1106" height="4.90226" transform="matrix(-1 0 0 1 68.8525 602.977)" fill="#F2ACAC"/>
<rect width="4.1106" height="4.90226" transform="matrix(-1 0 0 1 223 29.4136)" fill="#F2ACAC"/>
<rect width="4.1106" height="4.90226" transform="matrix(-1 0 0 1 223 323.549)" fill="#F2ACAC"/>
<rect width="4.1106" height="4.90226" transform="matrix(-1 0 0 1 223 176.481)" fill="#F2ACAC"/>
<rect width="4.1106" height="4.90226" transform="matrix(-1 0 0 1 223 470.617)" fill="#F2ACAC"/>
<rect width="4.1106" height="4.90226" transform="matrix(-1 0 0 1 223 102.947)" fill="#F2ACAC"/>
<rect width="4.1106" height="4.90226" transform="matrix(-1 0 0 1 223 397.083)" fill="#F2ACAC"/>
<rect width="4.1106" height="4.90226" transform="matrix(-1 0 0 1 223 250.015)" fill="#F2ACAC"/>
<rect width="4.1106" height="4.90226" transform="matrix(-1 0 0 1 223 544.15)" fill="#F2ACAC"/>
<rect width="4.1106" height="4.90226" transform="matrix(-1 0 0 1 223 617.684)" fill="#F2ACAC"/>
<rect width="4.1106" height="4.90226" transform="matrix(-1 0 0 1 171.617 617.684)" fill="#F2ACAC"/>
<rect width="4.1106" height="4.90226" transform="matrix(-1 0 0 1 120.235 617.684)" fill="#F2ACAC"/>
<rect width="4.1106" height="4.90226" transform="matrix(-1 0 0 1 68.8525 617.684)" fill="#F2ACAC"/>
<rect width="4.1106" height="4.90226" transform="matrix(-1 0 0 1 223 44.1204)" fill="#F2ACAC"/>
<rect width="4.1106" height="4.90226" transform="matrix(-1 0 0 1 223 338.256)" fill="#F2ACAC"/>
<rect width="4.1106" height="4.90226" transform="matrix(-1 0 0 1 223 191.188)" fill="#F2ACAC"/>
<rect width="4.1106" height="4.90226" transform="matrix(-1 0 0 1 223 485.323)" fill="#F2ACAC"/>
<rect width="4.1106" height="4.90226" transform="matrix(-1 0 0 1 223 117.654)" fill="#F2ACAC"/>
<rect width="4.1106" height="4.90226" transform="matrix(-1 0 0 1 223 411.789)" fill="#F2ACAC"/>
<rect width="4.1106" height="4.90226" transform="matrix(-1 0 0 1 223 264.722)" fill="#F2ACAC"/>
<rect width="4.1106" height="4.90226" transform="matrix(-1 0 0 1 223 558.857)" fill="#F2ACAC"/>
<rect width="4.1106" height="4.90226" transform="matrix(-1 0 0 1 223 632.391)" fill="#F2ACAC"/>
<rect width="4.1106" height="4.90226" transform="matrix(-1 0 0 1 171.617 632.391)" fill="#F2ACAC"/>
<rect width="4.1106" height="4.90226" transform="matrix(-1 0 0 1 120.235 632.391)" fill="#F2ACAC"/>
<rect width="4.1106" height="4.90226" transform="matrix(-1 0 0 1 68.8525 632.391)" fill="#F2ACAC"/>
<rect width="4.1106" height="4.90226" transform="matrix(-1 0 0 1 223 58.827)" fill="#F2ACAC"/>
<rect width="4.1106" height="4.90226" transform="matrix(-1 0 0 1 223 352.962)" fill="#F2ACAC"/>
<rect width="4.1106" height="4.90226" transform="matrix(-1 0 0 1 223 205.895)" fill="#F2ACAC"/>
<rect width="4.1106" height="4.90226" transform="matrix(-1 0 0 1 223 500.03)" fill="#F2ACAC"/>
<rect width="4.1106" height="4.90226" transform="matrix(-1 0 0 1 223 132.361)" fill="#F2ACAC"/>
<rect width="4.1106" height="4.90226" transform="matrix(-1 0 0 1 223 426.496)" fill="#F2ACAC"/>
<rect width="4.1106" height="4.90226" transform="matrix(-1 0 0 1 223 279.429)" fill="#F2ACAC"/>
<rect width="4.1106" height="4.90226" transform="matrix(-1 0 0 1 223 573.564)" fill="#F2ACAC"/>
<rect width="4.1106" height="4.90226" transform="matrix(-1 0 0 1 223 647.098)" fill="#F2ACAC"/>
<rect width="4.1106" height="4.90226" transform="matrix(-1 0 0 1 171.617 647.098)" fill="#F2ACAC"/>
<rect width="4.1106" height="4.90226" transform="matrix(-1 0 0 1 120.235 647.098)" fill="#F2ACAC"/>
<rect width="4.1106" height="4.90226" transform="matrix(-1 0 0 1 68.8525 647.098)" fill="#F2ACAC"/>
<rect width="4.1106" height="4.90226" transform="matrix(-1 0 0 1 209.641 0)" fill="#F2ACAC"/>
<rect width="4.1106" height="4.90226" transform="matrix(-1 0 0 1 209.641 294.135)" fill="#F2ACAC"/>
<rect width="4.1106" height="4.90226" transform="matrix(-1 0 0 1 209.641 147.068)" fill="#F2ACAC"/>
<rect width="4.1106" height="4.90226" transform="matrix(-1 0 0 1 209.641 441.203)" fill="#F2ACAC"/>
<rect width="4.1106" height="4.90226" transform="matrix(-1 0 0 1 209.641 73.5338)" fill="#F2ACAC"/>
<rect width="4.1106" height="4.90226" transform="matrix(-1 0 0 1 209.641 367.669)" fill="#F2ACAC"/>
<rect width="4.1106" height="4.90226" transform="matrix(-1 0 0 1 209.641 220.602)" fill="#F2ACAC"/>
<rect width="4.1106" height="4.90226" transform="matrix(-1 0 0 1 209.641 514.737)" fill="#F2ACAC"/>
<rect width="4.1106" height="4.90226" transform="matrix(-1 0 0 1 209.641 588.271)" fill="#F2ACAC"/>
<rect width="4.1106" height="4.90226" transform="matrix(-1 0 0 1 209.641 14.7068)" fill="#F2ACAC"/>
<rect width="4.1106" height="4.90226" transform="matrix(-1 0 0 1 209.641 308.842)" fill="#F2ACAC"/>
<rect width="4.1106" height="4.90226" transform="matrix(-1 0 0 1 209.641 161.774)" fill="#F2ACAC"/>
<rect width="4.1106" height="4.90226" transform="matrix(-1 0 0 1 209.641 455.91)" fill="#F2ACAC"/>
<rect width="4.1106" height="4.90226" transform="matrix(-1 0 0 1 209.641 88.2406)" fill="#F2ACAC"/>
<rect width="4.1106" height="4.90226" transform="matrix(-1 0 0 1 209.641 382.376)" fill="#F2ACAC"/>
<rect width="4.1106" height="4.90226" transform="matrix(-1 0 0 1 209.641 235.308)" fill="#F2ACAC"/>
<rect width="4.1106" height="4.90226" transform="matrix(-1 0 0 1 209.641 529.444)" fill="#F2ACAC"/>
<rect width="4.1106" height="4.90226" transform="matrix(-1 0 0 1 209.641 602.977)" fill="#F2ACAC"/>
<rect width="4.1106" height="4.90226" transform="matrix(-1 0 0 1 158.258 602.977)" fill="#F2ACAC"/>
<rect width="4.1106" height="4.90226" transform="matrix(-1 0 0 1 106.876 602.977)" fill="#F2ACAC"/>
<rect width="4.1106" height="4.90226" transform="matrix(-1 0 0 1 55.493 602.977)" fill="#F2ACAC"/>
<rect width="4.1106" height="4.90226" transform="matrix(-1 0 0 1 17.4701 602.977)" fill="#F2ACAC"/>
<rect width="4.1106" height="4.90226" transform="matrix(-1 0 0 1 209.641 29.4136)" fill="#F2ACAC"/>
<rect width="4.1106" height="4.90226" transform="matrix(-1 0 0 1 209.641 323.549)" fill="#F2ACAC"/>
<rect width="4.1106" height="4.90226" transform="matrix(-1 0 0 1 209.641 176.481)" fill="#F2ACAC"/>
<rect width="4.1106" height="4.90226" transform="matrix(-1 0 0 1 209.641 470.617)" fill="#F2ACAC"/>
<rect width="4.1106" height="4.90226" transform="matrix(-1 0 0 1 209.641 102.947)" fill="#F2ACAC"/>
<rect width="4.1106" height="4.90226" transform="matrix(-1 0 0 1 209.641 397.083)" fill="#F2ACAC"/>
<rect width="4.1106" height="4.90226" transform="matrix(-1 0 0 1 209.641 250.015)" fill="#F2ACAC"/>
<rect width="4.1106" height="4.90226" transform="matrix(-1 0 0 1 209.641 544.15)" fill="#F2ACAC"/>
<rect width="4.1106" height="4.90226" transform="matrix(-1 0 0 1 209.641 617.684)" fill="#F2ACAC"/>
<rect width="4.1106" height="4.90226" transform="matrix(-1 0 0 1 158.258 617.684)" fill="#F2ACAC"/>
<rect width="4.1106" height="4.90226" transform="matrix(-1 0 0 1 106.876 617.684)" fill="#F2ACAC"/>
<rect width="4.1106" height="4.90226" transform="matrix(-1 0 0 1 55.493 617.684)" fill="#F2ACAC"/>
<rect width="4.1106" height="4.90226" transform="matrix(-1 0 0 1 17.4701 617.684)" fill="#F2ACAC"/>
<rect width="4.1106" height="4.90226" transform="matrix(-1 0 0 1 209.641 44.1204)" fill="#F2ACAC"/>
<rect width="4.1106" height="4.90226" transform="matrix(-1 0 0 1 209.641 338.256)" fill="#F2ACAC"/>
<rect width="4.1106" height="4.90226" transform="matrix(-1 0 0 1 209.641 191.188)" fill="#F2ACAC"/>
<rect width="4.1106" height="4.90226" transform="matrix(-1 0 0 1 209.641 485.323)" fill="#F2ACAC"/>
<rect width="4.1106" height="4.90226" transform="matrix(-1 0 0 1 209.641 117.654)" fill="#F2ACAC"/>
<rect width="4.1106" height="4.90226" transform="matrix(-1 0 0 1 209.641 411.789)" fill="#F2ACAC"/>
<rect width="4.1106" height="4.90226" transform="matrix(-1 0 0 1 209.641 264.722)" fill="#F2ACAC"/>
<rect width="4.1106" height="4.90226" transform="matrix(-1 0 0 1 209.641 558.857)" fill="#F2ACAC"/>
<rect width="4.1106" height="4.90226" transform="matrix(-1 0 0 1 209.641 632.391)" fill="#F2ACAC"/>
<rect width="4.1106" height="4.90226" transform="matrix(-1 0 0 1 158.258 632.391)" fill="#F2ACAC"/>
<rect width="4.1106" height="4.90226" transform="matrix(-1 0 0 1 106.876 632.391)" fill="#F2ACAC"/>
<rect width="4.1106" height="4.90226" transform="matrix(-1 0 0 1 55.493 632.391)" fill="#F2ACAC"/>
<rect width="4.1106" height="4.90226" transform="matrix(-1 0 0 1 17.4701 632.391)" fill="#F2ACAC"/>
<rect width="4.1106" height="4.90226" transform="matrix(-1 0 0 1 209.641 58.827)" fill="#F2ACAC"/>
<rect width="4.1106" height="4.90226" transform="matrix(-1 0 0 1 209.641 352.962)" fill="#F2ACAC"/>
<rect width="4.1106" height="4.90226" transform="matrix(-1 0 0 1 209.641 205.895)" fill="#F2ACAC"/>
<rect width="4.1106" height="4.90226" transform="matrix(-1 0 0 1 209.641 500.03)" fill="#F2ACAC"/>
<rect width="4.1106" height="4.90226" transform="matrix(-1 0 0 1 209.641 132.361)" fill="#F2ACAC"/>
<rect width="4.1106" height="4.90226" transform="matrix(-1 0 0 1 209.641 426.496)" fill="#F2ACAC"/>
<rect width="4.1106" height="4.90226" transform="matrix(-1 0 0 1 209.641 279.429)" fill="#F2ACAC"/>
<rect width="4.1106" height="4.90226" transform="matrix(-1 0 0 1 209.641 573.564)" fill="#F2ACAC"/>
<rect width="4.1106" height="4.90226" transform="matrix(-1 0 0 1 209.641 647.098)" fill="#F2ACAC"/>
<rect width="4.1106" height="4.90226" transform="matrix(-1 0 0 1 158.258 647.098)" fill="#F2ACAC"/>
<rect width="4.1106" height="4.90226" transform="matrix(-1 0 0 1 106.876 647.098)" fill="#F2ACAC"/>
<rect width="4.1106" height="4.90226" transform="matrix(-1 0 0 1 55.493 647.098)" fill="#F2ACAC"/>
<rect width="4.1106" height="4.90226" transform="matrix(-1 0 0 1 17.4701 647.098)" fill="#F2ACAC"/>
<rect width="4.1106" height="4.90226" transform="matrix(-1 0 0 1 197.309 0)" fill="#F2ACAC"/>
<rect width="4.1106" height="4.90226" transform="matrix(-1 0 0 1 197.309 294.135)" fill="#F2ACAC"/>
<rect width="4.1106" height="4.90226" transform="matrix(-1 0 0 1 197.309 147.068)" fill="#F2ACAC"/>
<rect width="4.1106" height="4.90226" transform="matrix(-1 0 0 1 197.309 441.203)" fill="#F2ACAC"/>
<rect width="4.1106" height="4.90226" transform="matrix(-1 0 0 1 197.309 73.5338)" fill="#F2ACAC"/>
<rect width="4.1106" height="4.90226" transform="matrix(-1 0 0 1 197.309 367.669)" fill="#F2ACAC"/>
<rect width="4.1106" height="4.90226" transform="matrix(-1 0 0 1 197.309 220.602)" fill="#F2ACAC"/>
<rect width="4.1106" height="4.90226" transform="matrix(-1 0 0 1 197.309 514.737)" fill="#F2ACAC"/>
<rect width="4.1106" height="4.90226" transform="matrix(-1 0 0 1 197.309 588.271)" fill="#F2ACAC"/>
<rect width="4.1106" height="4.90226" transform="matrix(-1 0 0 1 197.309 14.7068)" fill="#F2ACAC"/>
<rect width="4.1106" height="4.90226" transform="matrix(-1 0 0 1 197.309 308.842)" fill="#F2ACAC"/>
<rect width="4.1106" height="4.90226" transform="matrix(-1 0 0 1 197.309 161.774)" fill="#F2ACAC"/>
<rect width="4.1106" height="4.90226" transform="matrix(-1 0 0 1 197.309 455.91)" fill="#F2ACAC"/>
<rect width="4.1106" height="4.90226" transform="matrix(-1 0 0 1 197.309 88.2406)" fill="#F2ACAC"/>
<rect width="4.1106" height="4.90226" transform="matrix(-1 0 0 1 197.309 382.376)" fill="#F2ACAC"/>
<rect width="4.1106" height="4.90226" transform="matrix(-1 0 0 1 197.309 235.308)" fill="#F2ACAC"/>
<rect width="4.1106" height="4.90226" transform="matrix(-1 0 0 1 197.309 529.444)" fill="#F2ACAC"/>
<rect width="4.1106" height="4.90226" transform="matrix(-1 0 0 1 197.309 602.977)" fill="#F2ACAC"/>
<rect width="4.1106" height="4.90226" transform="matrix(-1 0 0 1 145.926 602.977)" fill="#F2ACAC"/>
<rect width="4.1106" height="4.90226" transform="matrix(-1 0 0 1 94.5438 602.977)" fill="#F2ACAC"/>
<rect width="4.1106" height="4.90226" transform="matrix(-1 0 0 1 43.1613 602.977)" fill="#F2ACAC"/>
<rect width="4.1106" height="4.90226" transform="matrix(-1 0 0 1 4.11053 602.977)" fill="#F2ACAC"/>
<rect width="4.1106" height="4.90226" transform="matrix(-1 0 0 1 197.309 29.4136)" fill="#F2ACAC"/>
<rect width="4.1106" height="4.90226" transform="matrix(-1 0 0 1 197.309 323.549)" fill="#F2ACAC"/>
<rect width="4.1106" height="4.90226" transform="matrix(-1 0 0 1 197.309 176.481)" fill="#F2ACAC"/>
<rect width="4.1106" height="4.90226" transform="matrix(-1 0 0 1 197.309 470.617)" fill="#F2ACAC"/>
<rect width="4.1106" height="4.90226" transform="matrix(-1 0 0 1 197.309 102.947)" fill="#F2ACAC"/>
<rect width="4.1106" height="4.90226" transform="matrix(-1 0 0 1 197.309 397.083)" fill="#F2ACAC"/>
<rect width="4.1106" height="4.90226" transform="matrix(-1 0 0 1 197.309 250.015)" fill="#F2ACAC"/>
<rect width="4.1106" height="4.90226" transform="matrix(-1 0 0 1 197.309 544.15)" fill="#F2ACAC"/>
<rect width="4.1106" height="4.90226" transform="matrix(-1 0 0 1 197.309 617.684)" fill="#F2ACAC"/>
<rect width="4.1106" height="4.90226" transform="matrix(-1 0 0 1 145.926 617.684)" fill="#F2ACAC"/>
<rect width="4.1106" height="4.90226" transform="matrix(-1 0 0 1 94.5438 617.684)" fill="#F2ACAC"/>
<rect width="4.1106" height="4.90226" transform="matrix(-1 0 0 1 43.1613 617.684)" fill="#F2ACAC"/>
<rect width="4.1106" height="4.90226" transform="matrix(-1 0 0 1 4.11053 617.684)" fill="#F2ACAC"/>
<rect width="4.1106" height="4.90226" transform="matrix(-1 0 0 1 197.309 44.1204)" fill="#F2ACAC"/>
<rect width="4.1106" height="4.90226" transform="matrix(-1 0 0 1 197.309 338.256)" fill="#F2ACAC"/>
<rect width="4.1106" height="4.90226" transform="matrix(-1 0 0 1 197.309 191.188)" fill="#F2ACAC"/>
<rect width="4.1106" height="4.90226" transform="matrix(-1 0 0 1 197.309 485.323)" fill="#F2ACAC"/>
<rect width="4.1106" height="4.90226" transform="matrix(-1 0 0 1 197.309 117.654)" fill="#F2ACAC"/>
<rect width="4.1106" height="4.90226" transform="matrix(-1 0 0 1 197.309 411.789)" fill="#F2ACAC"/>
<rect width="4.1106" height="4.90226" transform="matrix(-1 0 0 1 197.309 264.722)" fill="#F2ACAC"/>
<rect width="4.1106" height="4.90226" transform="matrix(-1 0 0 1 197.309 558.857)" fill="#F2ACAC"/>
<rect width="4.1106" height="4.90226" transform="matrix(-1 0 0 1 197.309 632.391)" fill="#F2ACAC"/>
<rect width="4.1106" height="4.90226" transform="matrix(-1 0 0 1 145.926 632.391)" fill="#F2ACAC"/>
<rect width="4.1106" height="4.90226" transform="matrix(-1 0 0 1 94.5438 632.391)" fill="#F2ACAC"/>
<rect width="4.1106" height="4.90226" transform="matrix(-1 0 0 1 43.1613 632.391)" fill="#F2ACAC"/>
<rect width="4.1106" height="4.90226" transform="matrix(-1 0 0 1 4.11053 632.391)" fill="#F2ACAC"/>
<rect width="4.1106" height="4.90226" transform="matrix(-1 0 0 1 197.309 58.827)" fill="#F2ACAC"/>
<rect width="4.1106" height="4.90226" transform="matrix(-1 0 0 1 197.309 352.962)" fill="#F2ACAC"/>
<rect width="4.1106" height="4.90226" transform="matrix(-1 0 0 1 197.309 205.895)" fill="#F2ACAC"/>
<rect width="4.1106" height="4.90226" transform="matrix(-1 0 0 1 197.309 500.03)" fill="#F2ACAC"/>
<rect width="4.1106" height="4.90226" transform="matrix(-1 0 0 1 197.309 132.361)" fill="#F2ACAC"/>
<rect width="4.1106" height="4.90226" transform="matrix(-1 0 0 1 197.309 426.496)" fill="#F2ACAC"/>
<rect width="4.1106" height="4.90226" transform="matrix(-1 0 0 1 197.309 279.429)" fill="#F2ACAC"/>
<rect width="4.1106" height="4.90226" transform="matrix(-1 0 0 1 197.309 573.564)" fill="#F2ACAC"/>
<rect width="4.1106" height="4.90226" transform="matrix(-1 0 0 1 197.309 647.098)" fill="#F2ACAC"/>
<rect width="4.1106" height="4.90226" transform="matrix(-1 0 0 1 145.926 647.098)" fill="#F2ACAC"/>
<rect width="4.1106" height="4.90226" transform="matrix(-1 0 0 1 94.5438 647.098)" fill="#F2ACAC"/>
<rect width="4.1106" height="4.90226" transform="matrix(-1 0 0 1 43.1613 647.098)" fill="#F2ACAC"/>
<rect width="4.1106" height="4.90226" transform="matrix(-1 0 0 1 4.11053 647.098)" fill="#F2ACAC"/>
<rect width="4.1106" height="4.90226" transform="matrix(-1 0 0 1 183.949 0)" fill="#F2ACAC"/>
<rect width="4.1106" height="4.90226" transform="matrix(-1 0 0 1 183.949 294.135)" fill="#F2ACAC"/>
<rect width="4.1106" height="4.90226" transform="matrix(-1 0 0 1 183.949 147.068)" fill="#F2ACAC"/>
<rect width="4.1106" height="4.90226" transform="matrix(-1 0 0 1 183.949 441.203)" fill="#F2ACAC"/>
<rect width="4.1106" height="4.90226" transform="matrix(-1 0 0 1 183.949 73.5338)" fill="#F2ACAC"/>
<rect width="4.1106" height="4.90226" transform="matrix(-1 0 0 1 183.949 367.669)" fill="#F2ACAC"/>
<rect width="4.1106" height="4.90226" transform="matrix(-1 0 0 1 183.949 220.602)" fill="#F2ACAC"/>
<rect width="4.1106" height="4.90226" transform="matrix(-1 0 0 1 183.949 514.737)" fill="#F2ACAC"/>
<rect width="4.1106" height="4.90226" transform="matrix(-1 0 0 1 183.949 588.271)" fill="#F2ACAC"/>
<rect width="4.1106" height="4.90226" transform="matrix(-1 0 0 1 183.949 14.7068)" fill="#F2ACAC"/>
<rect width="4.1106" height="4.90226" transform="matrix(-1 0 0 1 183.949 308.842)" fill="#F2ACAC"/>
<rect width="4.1106" height="4.90226" transform="matrix(-1 0 0 1 183.949 161.774)" fill="#F2ACAC"/>
<rect width="4.1106" height="4.90226" transform="matrix(-1 0 0 1 183.949 455.91)" fill="#F2ACAC"/>
<rect width="4.1106" height="4.90226" transform="matrix(-1 0 0 1 183.949 88.2406)" fill="#F2ACAC"/>
<rect width="4.1106" height="4.90226" transform="matrix(-1 0 0 1 183.949 382.376)" fill="#F2ACAC"/>
<rect width="4.1106" height="4.90226" transform="matrix(-1 0 0 1 183.949 235.308)" fill="#F2ACAC"/>
<rect width="4.1106" height="4.90226" transform="matrix(-1 0 0 1 183.949 529.444)" fill="#F2ACAC"/>
<rect width="4.1106" height="4.90226" transform="matrix(-1 0 0 1 183.949 602.977)" fill="#F2ACAC"/>
<rect width="4.1106" height="4.90226" transform="matrix(-1 0 0 1 132.567 602.977)" fill="#F2ACAC"/>
<rect width="4.1106" height="4.90226" transform="matrix(-1 0 0 1 81.1843 602.977)" fill="#F2ACAC"/>
<rect width="4.1106" height="4.90226" transform="matrix(-1 0 0 1 29.8018 602.977)" fill="#F2ACAC"/>
<rect width="4.1106" height="4.90226" transform="matrix(-1 0 0 1 183.949 29.4136)" fill="#F2ACAC"/>
<rect width="4.1106" height="4.90226" transform="matrix(-1 0 0 1 183.949 323.549)" fill="#F2ACAC"/>
<rect width="4.1106" height="4.90226" transform="matrix(-1 0 0 1 183.949 176.481)" fill="#F2ACAC"/>
<rect width="4.1106" height="4.90226" transform="matrix(-1 0 0 1 183.949 470.617)" fill="#F2ACAC"/>
<rect width="4.1106" height="4.90226" transform="matrix(-1 0 0 1 183.949 102.947)" fill="#F2ACAC"/>
<rect width="4.1106" height="4.90226" transform="matrix(-1 0 0 1 183.949 397.083)" fill="#F2ACAC"/>
<rect width="4.1106" height="4.90226" transform="matrix(-1 0 0 1 183.949 250.015)" fill="#F2ACAC"/>
<rect width="4.1106" height="4.90226" transform="matrix(-1 0 0 1 183.949 544.15)" fill="#F2ACAC"/>
<rect width="4.1106" height="4.90226" transform="matrix(-1 0 0 1 183.949 617.684)" fill="#F2ACAC"/>
<rect width="4.1106" height="4.90226" transform="matrix(-1 0 0 1 132.567 617.684)" fill="#F2ACAC"/>
<rect width="4.1106" height="4.90226" transform="matrix(-1 0 0 1 81.1843 617.684)" fill="#F2ACAC"/>
<rect width="4.1106" height="4.90226" transform="matrix(-1 0 0 1 29.8018 617.684)" fill="#F2ACAC"/>
<rect width="4.1106" height="4.90226" transform="matrix(-1 0 0 1 183.949 44.1204)" fill="#F2ACAC"/>
<rect width="4.1106" height="4.90226" transform="matrix(-1 0 0 1 183.949 338.256)" fill="#F2ACAC"/>
<rect width="4.1106" height="4.90226" transform="matrix(-1 0 0 1 183.949 191.188)" fill="#F2ACAC"/>
<rect width="4.1106" height="4.90226" transform="matrix(-1 0 0 1 183.949 485.323)" fill="#F2ACAC"/>
<rect width="4.1106" height="4.90226" transform="matrix(-1 0 0 1 183.949 117.654)" fill="#F2ACAC"/>
<rect width="4.1106" height="4.90226" transform="matrix(-1 0 0 1 183.949 411.789)" fill="#F2ACAC"/>
<rect width="4.1106" height="4.90226" transform="matrix(-1 0 0 1 183.949 264.722)" fill="#F2ACAC"/>
<rect width="4.1106" height="4.90226" transform="matrix(-1 0 0 1 183.949 558.857)" fill="#F2ACAC"/>
<rect width="4.1106" height="4.90226" transform="matrix(-1 0 0 1 183.949 632.391)" fill="#F2ACAC"/>
<rect width="4.1106" height="4.90226" transform="matrix(-1 0 0 1 132.567 632.391)" fill="#F2ACAC"/>
<rect width="4.1106" height="4.90226" transform="matrix(-1 0 0 1 81.1843 632.391)" fill="#F2ACAC"/>
<rect width="4.1106" height="4.90226" transform="matrix(-1 0 0 1 29.8018 632.391)" fill="#F2ACAC"/>
<rect width="4.1106" height="4.90226" transform="matrix(-1 0 0 1 183.949 58.827)" fill="#F2ACAC"/>
<rect width="4.1106" height="4.90226" transform="matrix(-1 0 0 1 183.949 352.962)" fill="#F2ACAC"/>
<rect width="4.1106" height="4.90226" transform="matrix(-1 0 0 1 183.949 205.895)" fill="#F2ACAC"/>
<rect width="4.1106" height="4.90226" transform="matrix(-1 0 0 1 183.949 500.03)" fill="#F2ACAC"/>
<rect width="4.1106" height="4.90226" transform="matrix(-1 0 0 1 183.949 132.361)" fill="#F2ACAC"/>
<rect width="4.1106" height="4.90226" transform="matrix(-1 0 0 1 183.949 426.496)" fill="#F2ACAC"/>
<rect width="4.1106" height="4.90226" transform="matrix(-1 0 0 1 183.949 279.429)" fill="#F2ACAC"/>
<rect width="4.1106" height="4.90226" transform="matrix(-1 0 0 1 183.949 573.564)" fill="#F2ACAC"/>
<rect width="4.1106" height="4.90226" transform="matrix(-1 0 0 1 183.949 647.098)" fill="#F2ACAC"/>
<rect width="4.1106" height="4.90226" transform="matrix(-1 0 0 1 132.567 647.098)" fill="#F2ACAC"/>
<rect width="4.1106" height="4.90226" transform="matrix(-1 0 0 1 81.1843 647.098)" fill="#F2ACAC"/>
<rect width="4.1106" height="4.90226" transform="matrix(-1 0 0 1 29.8018 647.098)" fill="#F2ACAC"/>
</svg>
