<svg width="227" height="665" viewBox="0 0 227 665" fill="none" xmlns="http://www.w3.org/2000/svg">
<rect width="4.18433" height="5" fill="#F2ACAC"/>
<rect y="300" width="4.18433" height="5" fill="#F2ACAC"/>
<rect y="150" width="4.18433" height="5" fill="#F2ACAC"/>
<rect y="450" width="4.18433" height="5" fill="#F2ACAC"/>
<rect y="75" width="4.18433" height="5" fill="#F2ACAC"/>
<rect y="375" width="4.18433" height="5" fill="#F2ACAC"/>
<rect y="225" width="4.18433" height="5" fill="#F2ACAC"/>
<rect y="525" width="4.18433" height="5" fill="#F2ACAC"/>
<rect y="600" width="4.18433" height="5" fill="#F2ACAC"/>
<rect y="15" width="4.18433" height="5" fill="#F2ACAC"/>
<rect y="315" width="4.18433" height="5" fill="#F2ACAC"/>
<rect y="165" width="4.18433" height="5" fill="#F2ACAC"/>
<rect y="465" width="4.18433" height="5" fill="#F2ACAC"/>
<rect y="90" width="4.18433" height="5" fill="#F2ACAC"/>
<rect y="390" width="4.18433" height="5" fill="#F2ACAC"/>
<rect y="240" width="4.18433" height="5" fill="#F2ACAC"/>
<rect y="540" width="4.18433" height="5" fill="#F2ACAC"/>
<rect y="615" width="4.18433" height="5" fill="#F2ACAC"/>
<rect x="52.3041" y="615" width="4.18433" height="5" fill="#F2ACAC"/>
<rect x="104.608" y="615" width="4.18433" height="5" fill="#F2ACAC"/>
<rect x="156.912" y="615" width="4.18433" height="5" fill="#F2ACAC"/>
<rect y="30" width="4.18433" height="5" fill="#F2ACAC"/>
<rect y="330" width="4.18433" height="5" fill="#F2ACAC"/>
<rect y="180" width="4.18433" height="5" fill="#F2ACAC"/>
<rect y="480" width="4.18433" height="5" fill="#F2ACAC"/>
<rect y="105" width="4.18433" height="5" fill="#F2ACAC"/>
<rect y="405" width="4.18433" height="5" fill="#F2ACAC"/>
<rect y="255" width="4.18433" height="5" fill="#F2ACAC"/>
<rect y="555" width="4.18433" height="5" fill="#F2ACAC"/>
<rect y="630" width="4.18433" height="5" fill="#F2ACAC"/>
<rect x="52.3041" y="630" width="4.18433" height="5" fill="#F2ACAC"/>
<rect x="104.608" y="630" width="4.18433" height="5" fill="#F2ACAC"/>
<rect x="156.912" y="630" width="4.18433" height="5" fill="#F2ACAC"/>
<rect y="45" width="4.18433" height="5" fill="#F2ACAC"/>
<rect y="345" width="4.18433" height="5" fill="#F2ACAC"/>
<rect y="195" width="4.18433" height="5" fill="#F2ACAC"/>
<rect y="495" width="4.18433" height="5" fill="#F2ACAC"/>
<rect y="120" width="4.18433" height="5" fill="#F2ACAC"/>
<rect y="420" width="4.18433" height="5" fill="#F2ACAC"/>
<rect y="270" width="4.18433" height="5" fill="#F2ACAC"/>
<rect y="570" width="4.18433" height="5" fill="#F2ACAC"/>
<rect y="645" width="4.18433" height="5" fill="#F2ACAC"/>
<rect x="52.3041" y="645" width="4.18433" height="5" fill="#F2ACAC"/>
<rect x="104.608" y="645" width="4.18433" height="5" fill="#F2ACAC"/>
<rect x="156.912" y="645" width="4.18433" height="5" fill="#F2ACAC"/>
<rect y="60" width="4.18433" height="5" fill="#F2ACAC"/>
<rect y="360" width="4.18433" height="5" fill="#F2ACAC"/>
<rect y="210" width="4.18433" height="5" fill="#F2ACAC"/>
<rect y="510" width="4.18433" height="5" fill="#F2ACAC"/>
<rect y="135" width="4.18433" height="5" fill="#F2ACAC"/>
<rect y="435" width="4.18433" height="5" fill="#F2ACAC"/>
<rect y="285" width="4.18433" height="5" fill="#F2ACAC"/>
<rect y="585" width="4.18433" height="5" fill="#F2ACAC"/>
<rect y="660" width="4.18433" height="5" fill="#F2ACAC"/>
<rect x="52.3041" y="660" width="4.18433" height="5" fill="#F2ACAC"/>
<rect x="104.608" y="660" width="4.18433" height="5" fill="#F2ACAC"/>
<rect x="156.912" y="660" width="4.18433" height="5" fill="#F2ACAC"/>
<rect x="13.5991" width="4.18433" height="5" fill="#F2ACAC"/>
<rect x="13.5991" y="300" width="4.18433" height="5" fill="#F2ACAC"/>
<rect x="13.5991" y="150" width="4.18433" height="5" fill="#F2ACAC"/>
<rect x="13.5991" y="450" width="4.18433" height="5" fill="#F2ACAC"/>
<rect x="13.5991" y="75" width="4.18433" height="5" fill="#F2ACAC"/>
<rect x="13.5991" y="375" width="4.18433" height="5" fill="#F2ACAC"/>
<rect x="13.5991" y="225" width="4.18433" height="5" fill="#F2ACAC"/>
<rect x="13.5991" y="525" width="4.18433" height="5" fill="#F2ACAC"/>
<rect x="13.5991" y="600" width="4.18433" height="5" fill="#F2ACAC"/>
<rect x="13.5991" y="15" width="4.18433" height="5" fill="#F2ACAC"/>
<rect x="13.5991" y="315" width="4.18433" height="5" fill="#F2ACAC"/>
<rect x="13.5991" y="165" width="4.18433" height="5" fill="#F2ACAC"/>
<rect x="13.5991" y="465" width="4.18433" height="5" fill="#F2ACAC"/>
<rect x="13.5991" y="90" width="4.18433" height="5" fill="#F2ACAC"/>
<rect x="13.5991" y="390" width="4.18433" height="5" fill="#F2ACAC"/>
<rect x="13.5991" y="240" width="4.18433" height="5" fill="#F2ACAC"/>
<rect x="13.5991" y="540" width="4.18433" height="5" fill="#F2ACAC"/>
<rect x="13.5991" y="615" width="4.18433" height="5" fill="#F2ACAC"/>
<rect x="65.9032" y="615" width="4.18433" height="5" fill="#F2ACAC"/>
<rect x="118.207" y="615" width="4.18433" height="5" fill="#F2ACAC"/>
<rect x="170.512" y="615" width="4.18433" height="5" fill="#F2ACAC"/>
<rect x="209.217" y="615" width="4.18433" height="5" fill="#F2ACAC"/>
<rect x="13.5991" y="30" width="4.18433" height="5" fill="#F2ACAC"/>
<rect x="13.5991" y="330" width="4.18433" height="5" fill="#F2ACAC"/>
<rect x="13.5991" y="180" width="4.18433" height="5" fill="#F2ACAC"/>
<rect x="13.5991" y="480" width="4.18433" height="5" fill="#F2ACAC"/>
<rect x="13.5991" y="105" width="4.18433" height="5" fill="#F2ACAC"/>
<rect x="13.5991" y="405" width="4.18433" height="5" fill="#F2ACAC"/>
<rect x="13.5991" y="255" width="4.18433" height="5" fill="#F2ACAC"/>
<rect x="13.5991" y="555" width="4.18433" height="5" fill="#F2ACAC"/>
<rect x="13.5991" y="630" width="4.18433" height="5" fill="#F2ACAC"/>
<rect x="65.9032" y="630" width="4.18433" height="5" fill="#F2ACAC"/>
<rect x="118.207" y="630" width="4.18433" height="5" fill="#F2ACAC"/>
<rect x="170.512" y="630" width="4.18433" height="5" fill="#F2ACAC"/>
<rect x="209.217" y="630" width="4.18433" height="5" fill="#F2ACAC"/>
<rect x="13.5991" y="45" width="4.18433" height="5" fill="#F2ACAC"/>
<rect x="13.5991" y="345" width="4.18433" height="5" fill="#F2ACAC"/>
<rect x="13.5991" y="195" width="4.18433" height="5" fill="#F2ACAC"/>
<rect x="13.5991" y="495" width="4.18433" height="5" fill="#F2ACAC"/>
<rect x="13.5991" y="120" width="4.18433" height="5" fill="#F2ACAC"/>
<rect x="13.5991" y="420" width="4.18433" height="5" fill="#F2ACAC"/>
<rect x="13.5991" y="270" width="4.18433" height="5" fill="#F2ACAC"/>
<rect x="13.5991" y="570" width="4.18433" height="5" fill="#F2ACAC"/>
<rect x="13.5991" y="645" width="4.18433" height="5" fill="#F2ACAC"/>
<rect x="65.9032" y="645" width="4.18433" height="5" fill="#F2ACAC"/>
<rect x="118.207" y="645" width="4.18433" height="5" fill="#F2ACAC"/>
<rect x="170.512" y="645" width="4.18433" height="5" fill="#F2ACAC"/>
<rect x="209.217" y="645" width="4.18433" height="5" fill="#F2ACAC"/>
<rect x="13.5991" y="60" width="4.18433" height="5" fill="#F2ACAC"/>
<rect x="13.5991" y="360" width="4.18433" height="5" fill="#F2ACAC"/>
<rect x="13.5991" y="210" width="4.18433" height="5" fill="#F2ACAC"/>
<rect x="13.5991" y="510" width="4.18433" height="5" fill="#F2ACAC"/>
<rect x="13.5991" y="135" width="4.18433" height="5" fill="#F2ACAC"/>
<rect x="13.5991" y="435" width="4.18433" height="5" fill="#F2ACAC"/>
<rect x="13.5991" y="285" width="4.18433" height="5" fill="#F2ACAC"/>
<rect x="13.5991" y="585" width="4.18433" height="5" fill="#F2ACAC"/>
<rect x="13.5991" y="660" width="4.18433" height="5" fill="#F2ACAC"/>
<rect x="65.9032" y="660" width="4.18433" height="5" fill="#F2ACAC"/>
<rect x="118.207" y="660" width="4.18433" height="5" fill="#F2ACAC"/>
<rect x="170.512" y="660" width="4.18433" height="5" fill="#F2ACAC"/>
<rect x="209.217" y="660" width="4.18433" height="5" fill="#F2ACAC"/>
<rect x="26.1521" width="4.18433" height="5" fill="#F2ACAC"/>
<rect x="26.1521" y="300" width="4.18433" height="5" fill="#F2ACAC"/>
<rect x="26.1521" y="150" width="4.18433" height="5" fill="#F2ACAC"/>
<rect x="26.1521" y="450" width="4.18433" height="5" fill="#F2ACAC"/>
<rect x="26.1521" y="75" width="4.18433" height="5" fill="#F2ACAC"/>
<rect x="26.1521" y="375" width="4.18433" height="5" fill="#F2ACAC"/>
<rect x="26.1521" y="225" width="4.18433" height="5" fill="#F2ACAC"/>
<rect x="26.1521" y="525" width="4.18433" height="5" fill="#F2ACAC"/>
<rect x="26.1521" y="600" width="4.18433" height="5" fill="#F2ACAC"/>
<rect x="26.1521" y="15" width="4.18433" height="5" fill="#F2ACAC"/>
<rect x="26.1521" y="315" width="4.18433" height="5" fill="#F2ACAC"/>
<rect x="26.1521" y="165" width="4.18433" height="5" fill="#F2ACAC"/>
<rect x="26.1521" y="465" width="4.18433" height="5" fill="#F2ACAC"/>
<rect x="26.1521" y="90" width="4.18433" height="5" fill="#F2ACAC"/>
<rect x="26.1521" y="390" width="4.18433" height="5" fill="#F2ACAC"/>
<rect x="26.1521" y="240" width="4.18433" height="5" fill="#F2ACAC"/>
<rect x="26.1521" y="540" width="4.18433" height="5" fill="#F2ACAC"/>
<rect x="26.1521" y="615" width="4.18433" height="5" fill="#F2ACAC"/>
<rect x="78.4562" y="615" width="4.18433" height="5" fill="#F2ACAC"/>
<rect x="130.76" y="615" width="4.18433" height="5" fill="#F2ACAC"/>
<rect x="183.065" y="615" width="4.18433" height="5" fill="#F2ACAC"/>
<rect x="222.816" y="615" width="4.18433" height="5" fill="#F2ACAC"/>
<rect x="26.1521" y="30" width="4.18433" height="5" fill="#F2ACAC"/>
<rect x="26.1521" y="330" width="4.18433" height="5" fill="#F2ACAC"/>
<rect x="26.1521" y="180" width="4.18433" height="5" fill="#F2ACAC"/>
<rect x="26.1521" y="480" width="4.18433" height="5" fill="#F2ACAC"/>
<rect x="26.1521" y="105" width="4.18433" height="5" fill="#F2ACAC"/>
<rect x="26.1521" y="405" width="4.18433" height="5" fill="#F2ACAC"/>
<rect x="26.1521" y="255" width="4.18433" height="5" fill="#F2ACAC"/>
<rect x="26.1521" y="555" width="4.18433" height="5" fill="#F2ACAC"/>
<rect x="26.1521" y="630" width="4.18433" height="5" fill="#F2ACAC"/>
<rect x="78.4562" y="630" width="4.18433" height="5" fill="#F2ACAC"/>
<rect x="130.76" y="630" width="4.18433" height="5" fill="#F2ACAC"/>
<rect x="183.065" y="630" width="4.18433" height="5" fill="#F2ACAC"/>
<rect x="222.816" y="630" width="4.18433" height="5" fill="#F2ACAC"/>
<rect x="26.1521" y="45" width="4.18433" height="5" fill="#F2ACAC"/>
<rect x="26.1521" y="345" width="4.18433" height="5" fill="#F2ACAC"/>
<rect x="26.1521" y="195" width="4.18433" height="5" fill="#F2ACAC"/>
<rect x="26.1521" y="495" width="4.18433" height="5" fill="#F2ACAC"/>
<rect x="26.1521" y="120" width="4.18433" height="5" fill="#F2ACAC"/>
<rect x="26.1521" y="420" width="4.18433" height="5" fill="#F2ACAC"/>
<rect x="26.1521" y="270" width="4.18433" height="5" fill="#F2ACAC"/>
<rect x="26.1521" y="570" width="4.18433" height="5" fill="#F2ACAC"/>
<rect x="26.1521" y="645" width="4.18433" height="5" fill="#F2ACAC"/>
<rect x="78.4562" y="645" width="4.18433" height="5" fill="#F2ACAC"/>
<rect x="130.76" y="645" width="4.18433" height="5" fill="#F2ACAC"/>
<rect x="183.065" y="645" width="4.18433" height="5" fill="#F2ACAC"/>
<rect x="222.816" y="645" width="4.18433" height="5" fill="#F2ACAC"/>
<rect x="26.1521" y="60" width="4.18433" height="5" fill="#F2ACAC"/>
<rect x="26.1521" y="360" width="4.18433" height="5" fill="#F2ACAC"/>
<rect x="26.1521" y="210" width="4.18433" height="5" fill="#F2ACAC"/>
<rect x="26.1521" y="510" width="4.18433" height="5" fill="#F2ACAC"/>
<rect x="26.1521" y="135" width="4.18433" height="5" fill="#F2ACAC"/>
<rect x="26.1521" y="435" width="4.18433" height="5" fill="#F2ACAC"/>
<rect x="26.1521" y="285" width="4.18433" height="5" fill="#F2ACAC"/>
<rect x="26.1521" y="585" width="4.18433" height="5" fill="#F2ACAC"/>
<rect x="26.1521" y="660" width="4.18433" height="5" fill="#F2ACAC"/>
<rect x="78.4562" y="660" width="4.18433" height="5" fill="#F2ACAC"/>
<rect x="130.76" y="660" width="4.18433" height="5" fill="#F2ACAC"/>
<rect x="183.065" y="660" width="4.18433" height="5" fill="#F2ACAC"/>
<rect x="222.816" y="660" width="4.18433" height="5" fill="#F2ACAC"/>
<rect x="39.7512" width="4.18433" height="5" fill="#F2ACAC"/>
<rect x="39.7512" y="300" width="4.18433" height="5" fill="#F2ACAC"/>
<rect x="39.7512" y="150" width="4.18433" height="5" fill="#F2ACAC"/>
<rect x="39.7512" y="450" width="4.18433" height="5" fill="#F2ACAC"/>
<rect x="39.7512" y="75" width="4.18433" height="5" fill="#F2ACAC"/>
<rect x="39.7512" y="375" width="4.18433" height="5" fill="#F2ACAC"/>
<rect x="39.7512" y="225" width="4.18433" height="5" fill="#F2ACAC"/>
<rect x="39.7512" y="525" width="4.18433" height="5" fill="#F2ACAC"/>
<rect x="39.7512" y="600" width="4.18433" height="5" fill="#F2ACAC"/>
<rect x="39.7512" y="15" width="4.18433" height="5" fill="#F2ACAC"/>
<rect x="39.7512" y="315" width="4.18433" height="5" fill="#F2ACAC"/>
<rect x="39.7512" y="165" width="4.18433" height="5" fill="#F2ACAC"/>
<rect x="39.7512" y="465" width="4.18433" height="5" fill="#F2ACAC"/>
<rect x="39.7512" y="90" width="4.18433" height="5" fill="#F2ACAC"/>
<rect x="39.7512" y="390" width="4.18433" height="5" fill="#F2ACAC"/>
<rect x="39.7512" y="240" width="4.18433" height="5" fill="#F2ACAC"/>
<rect x="39.7512" y="540" width="4.18433" height="5" fill="#F2ACAC"/>
<rect x="39.7512" y="615" width="4.18433" height="5" fill="#F2ACAC"/>
<rect x="92.0553" y="615" width="4.18433" height="5" fill="#F2ACAC"/>
<rect x="144.359" y="615" width="4.18433" height="5" fill="#F2ACAC"/>
<rect x="196.664" y="615" width="4.18433" height="5" fill="#F2ACAC"/>
<rect x="39.7512" y="30" width="4.18433" height="5" fill="#F2ACAC"/>
<rect x="39.7512" y="330" width="4.18433" height="5" fill="#F2ACAC"/>
<rect x="39.7512" y="180" width="4.18433" height="5" fill="#F2ACAC"/>
<rect x="39.7512" y="480" width="4.18433" height="5" fill="#F2ACAC"/>
<rect x="39.7512" y="105" width="4.18433" height="5" fill="#F2ACAC"/>
<rect x="39.7512" y="405" width="4.18433" height="5" fill="#F2ACAC"/>
<rect x="39.7512" y="255" width="4.18433" height="5" fill="#F2ACAC"/>
<rect x="39.7512" y="555" width="4.18433" height="5" fill="#F2ACAC"/>
<rect x="39.7512" y="630" width="4.18433" height="5" fill="#F2ACAC"/>
<rect x="92.0553" y="630" width="4.18433" height="5" fill="#F2ACAC"/>
<rect x="144.359" y="630" width="4.18433" height="5" fill="#F2ACAC"/>
<rect x="196.664" y="630" width="4.18433" height="5" fill="#F2ACAC"/>
<rect x="39.7512" y="45" width="4.18433" height="5" fill="#F2ACAC"/>
<rect x="39.7512" y="345" width="4.18433" height="5" fill="#F2ACAC"/>
<rect x="39.7512" y="195" width="4.18433" height="5" fill="#F2ACAC"/>
<rect x="39.7512" y="495" width="4.18433" height="5" fill="#F2ACAC"/>
<rect x="39.7512" y="120" width="4.18433" height="5" fill="#F2ACAC"/>
<rect x="39.7512" y="420" width="4.18433" height="5" fill="#F2ACAC"/>
<rect x="39.7512" y="270" width="4.18433" height="5" fill="#F2ACAC"/>
<rect x="39.7512" y="570" width="4.18433" height="5" fill="#F2ACAC"/>
<rect x="39.7512" y="645" width="4.18433" height="5" fill="#F2ACAC"/>
<rect x="92.0553" y="645" width="4.18433" height="5" fill="#F2ACAC"/>
<rect x="144.359" y="645" width="4.18433" height="5" fill="#F2ACAC"/>
<rect x="196.664" y="645" width="4.18433" height="5" fill="#F2ACAC"/>
<rect x="39.7512" y="60" width="4.18433" height="5" fill="#F2ACAC"/>
<rect x="39.7512" y="360" width="4.18433" height="5" fill="#F2ACAC"/>
<rect x="39.7512" y="210" width="4.18433" height="5" fill="#F2ACAC"/>
<rect x="39.7512" y="510" width="4.18433" height="5" fill="#F2ACAC"/>
<rect x="39.7512" y="135" width="4.18433" height="5" fill="#F2ACAC"/>
<rect x="39.7512" y="435" width="4.18433" height="5" fill="#F2ACAC"/>
<rect x="39.7512" y="285" width="4.18433" height="5" fill="#F2ACAC"/>
<rect x="39.7512" y="585" width="4.18433" height="5" fill="#F2ACAC"/>
<rect x="39.7512" y="660" width="4.18433" height="5" fill="#F2ACAC"/>
<rect x="92.0553" y="660" width="4.18433" height="5" fill="#F2ACAC"/>
<rect x="144.359" y="660" width="4.18433" height="5" fill="#F2ACAC"/>
<rect x="196.664" y="660" width="4.18433" height="5" fill="#F2ACAC"/>
</svg>
