<svg width="140" height="107" viewBox="0 0 140 107" fill="none" xmlns="http://www.w3.org/2000/svg">
<path d="M68.5765 89.2589C67.7864 89.2079 67.0011 89.0908 66.2277 88.9088C64.9045 88.5014 63.5812 88.4299 63.0519 89.9093C62.7674 90.6668 63.3364 91.796 63.5945 93.1253C63.1975 93.1253 62.3969 93.4397 61.8081 93.1753C59.6313 92.1962 58.8506 93.1753 58.844 95.5837C56.9584 95.7409 55.3969 96.2983 55.1521 98.7353C55.1124 99.157 54.12 99.7501 53.5444 99.7787C49.2372 100.029 48.913 100.343 48.8006 104.495L46.6569 103.223L46.4253 106.153C44.983 106.868 44.0567 102.787 42.1181 105.153C40.3648 103.173 38.9291 103.309 34.5889 105.932C35.0255 105.153 35.3431 104.588 35.7004 103.967C33.8743 102.301 33.1598 104.931 31.3866 105.174C35.0123 101.33 32.8554 98.2922 31.1683 94.9977C30.6324 93.9614 31.0161 92.2176 31.3138 90.8884C31.6513 89.4019 32.518 88.0297 32.8753 86.5647C33.431 84.2778 33.742 81.9265 34.2845 78.8964L36.2694 81.3191C37.4909 80.1769 38.6486 78.9575 39.7363 77.6672C40.1333 77.1526 39.9613 76.1307 40.0076 75.7519L31.2675 75.0372L31.2014 75.4803C31.4546 75.5663 31.7004 75.6764 31.9358 75.8091C32.1861 76.025 32.4186 76.2641 32.6305 76.5237L30.5331 77.8887C29.6399 75.0301 29.8715 71.271 26.087 70.5992C25.7165 70.5349 25.2798 70.9065 24.8895 71.0709C22.4216 69.0698 20.0662 66.5542 16.7515 65.1749C17.6645 63.9028 18.8158 63.0309 17.0162 61.7874C16.4736 61.423 16.6589 59.7935 16.5067 58.7358L15.4944 58.2141C15.1999 58.7485 14.9561 59.3135 14.7666 59.9007C14.0587 63.0095 11.7099 64.6604 9.75151 66.6757C8.69292 67.762 7.89899 67.8406 6.85362 66.6114C5.93396 65.5251 4.52471 64.8819 3.75061 63.7528C2.26196 61.523 0.0984359 59.1003 0.00581512 56.6848C-0.119902 53.4402 1.81867 50.3672 4.70334 48.5377C7.15796 46.9868 9.46041 47.48 11.5247 49.3881C13.4037 51.1247 15.1967 52.9614 17.1286 54.891C16.2222 52.3468 18.4519 51.4606 19.7023 49.8884C19.9935 49.5167 19.9736 48.8593 20.364 48.7949L23.9632 46.4223C24.3734 46.3437 25.174 46.165 25.9878 46.0649C26.8016 45.9649 27.8139 45.6576 28.6012 45.9077C30.0362 46.3896 31.4183 47.039 32.7231 47.8444C33.4575 48.2804 33.9471 49.1809 34.655 49.6811C36.4282 50.9318 37.1692 52.9328 38.155 54.7838C38.3072 55.0696 38.9225 55.0768 38.7108 55.0053C39.3724 56.6705 39.8157 57.864 40.3053 59.1289L42.0652 58.1784L42.5813 59.7578L46.6172 62.1734L49.7335 59.4505L47.7023 59.4505C47.7023 57.1707 47.7023 54.9767 47.7023 52.7827C47.6343 52.1896 47.6725 51.5879 47.8147 51.0104C48.5359 49.3309 49.3232 47.6801 50.19 46.0864C51.0567 44.4927 51.7382 42.5131 53.8223 42.12C53.9612 42.12 54.1796 42.0343 54.206 41.9342C55.0728 39.1899 57.792 39.4401 59.5387 38.1251C59.9158 37.8392 60.7032 38.2037 61.4045 38.2752L62.5954 33.2725C64.137 34.4088 66.188 34.3731 66.2211 36.8458C66.8416 36.9475 67.4666 37.0143 68.0935 37.0459C68.1795 37.2532 68.464 37.9893 68.8213 38.9041C70.998 37.5605 73.3733 36.8887 73.7967 34.6161L79.2617 30.3281L80.7702 30.7427C81.4318 29.7278 81.8751 28.5201 82.6955 27.8054C84.7466 26.0187 83.7078 24.6252 82.6426 22.8742C81.7759 21.4449 81.3855 19.7155 80.7834 18.1218L81.7626 17.693L84.0982 23.1458C85.4214 23.9105 86.5197 24.5751 87.6246 25.1183C88.2002 25.4041 89.0802 25.9115 89.411 25.6686C91.8193 23.9034 95.2135 23.8819 96.8278 20.6659C97.3523 19.6424 98.0221 18.714 98.8127 17.9145C100.043 16.7456 100.824 15.1217 101.003 13.3621C101.532 9.13135 102.511 4.96489 103.371 0.791281C103.568 0.14646 103.875 -0.452455 104.278 -0.973932C104.337 -1.06683 104.999 -0.888169 105.005 -0.802407C105.142 -0.0808727 105.142 0.662917 105.005 1.38445C103.722 5.20788 102.471 9.00271 103.298 13.1978C103.333 13.4998 103.305 13.8064 103.217 14.0955C103.129 14.3846 102.983 14.6491 102.789 14.8701C100.678 16.9712 100.659 19.9299 99.9904 22.6098C99.8779 23.0744 100.427 23.7318 100.97 24.1749C100.202 27.9054 103.451 28.2628 105.164 30.028L107.52 28.2628C107.288 29.9065 105.356 31.2929 107.255 32.6722C108.433 33.5298 109.677 34.2802 111.172 35.2664C110.815 36.5671 111.602 37.3747 113.494 37.1245C113.904 40.269 114.659 43.1634 117.464 44.2711C116.66 45.1626 115.919 46.1182 115.247 47.1298C115.115 47.3656 115.81 48.1517 116.379 49.1165C116.015 52.1324 116.425 53.7904 119.177 53.6332C117.722 55.2269 117.808 56.1488 120.011 58.257C120.388 56.1702 120.712 54.3907 121.017 52.697L130.981 52.697L130.981 52.8328L124.437 53.9834C122.022 54.4193 120.931 56.9135 121.374 59.4862C121.685 61.2729 122.142 62.495 123.802 62.5879C125.103 62.6482 126.403 62.4421 127.633 61.9804C131.689 60.4296 135.685 58.7216 139.84 57.3065C138.828 57.7817 137.839 58.3112 136.876 58.8931C134.587 60.4582 132.245 61.9804 130.134 63.7742C128.91 64.8105 126.442 65.3107 125.185 64.2459C123.2 62.5807 122.294 62.9452 121.652 65.4537C121.513 65.9825 120.752 66.4041 120.203 66.7257C118.88 67.4904 117.47 68.055 116.233 68.934C115.684 69.32 115.486 70.2776 115.009 71.2067L119.316 71.6212L119.316 72.1357L116.081 72.1357C116.711 73.3068 117.402 74.4379 118.152 75.5232C118.999 76.5952 118.886 77.317 117.748 77.8959C115.995 78.7963 115.294 80.1828 115.763 82.291C115.856 82.7055 115.373 83.2773 115.148 83.7775C114.976 84.1706 114.659 84.5422 114.632 84.9424C114.685 85.9185 114.536 86.8951 114.195 87.801C114.606 88.4371 115.016 89.0731 115.803 90.2738L113.057 89.7664C112.786 91.4387 112.058 93.1753 114.334 93.9614C114.46 94.035 114.559 94.1538 114.612 94.2973C115.307 95.7838 116.002 97.2774 116.835 99.0855C115.466 98.2565 113.99 97.6562 112.826 96.5914C111.377 95.3121 110.007 96.134 108.783 96.5914C108.181 96.8272 107.976 98.2637 107.672 98.9783C106.832 98.6853 105.733 97.9706 104.661 98.0135C102.981 98.085 101.353 98.5638 99.6662 97.7848C99.4148 97.6705 98.7333 98.4638 98.3429 98.9211C97.721 99.6358 97.1719 100.408 96.5896 101.158C96.0736 100.15 95.5112 99.1641 95.0745 98.1207C94.9886 97.6055 94.9886 97.0779 95.0745 96.5628C93.0036 96.4556 93.4072 94.7761 93.4403 93.8542C91.7664 91.9032 89.7484 90.4739 89.1794 88.5443C88.8222 87.3651 88.584 85.8715 87.79 85.264C86.7381 84.4564 85.2296 84.2277 83.8865 84.0848C83.5953 84.0848 83.0528 85.3783 82.8345 86.1502C82.4044 87.701 81.3591 87.7725 78.8647 86.093L81.7163 84.2635C81.498 83.6918 81.2664 83.1129 81.1209 82.7484C81.7763 82.6196 82.4084 82.3783 82.9933 82.0337C83.1454 81.8908 82.7352 80.9975 82.5831 80.4543C82.0074 80.7259 81.2598 80.8403 80.8827 81.2976C79.7645 82.6269 78.7853 84.092 77.7135 85.5856C76.9923 84.3707 76.7409 81.8908 74.7957 82.5126C74.1341 80.3686 73.5651 78.4747 72.9498 76.5594C72.7646 75.9877 72.2088 75.4017 72.2882 74.9086C72.6918 72.343 70.6275 72.5859 69.4366 71.8927C69.2116 71.7641 68.55 72.0714 68.3714 72.3715C67.4716 73.9224 66.8695 75.7519 65.7249 77.0383C65.1493 77.6886 63.6606 77.3885 62.086 77.5814C62.2514 78.2961 62.1918 79.8898 62.8204 80.3329C63.5812 80.876 64.9243 80.4615 66.3336 80.4615C65.1559 81.2405 63.7929 81.6621 63.4357 82.5483C63.1843 83.1843 64.2164 84.5065 64.8185 85.4069C65.5044 86.3982 66.261 87.3301 67.0812 88.1941C67.5442 88.6307 68.0399 89.0252 68.5632 89.3733L68.5765 89.2589Z" fill="black"/>
</svg>
