<svg id="Layer_1" enable-background="new 0 0 512 512" height="512" viewBox="0 0 512 512" width="512" xmlns="http://www.w3.org/2000/svg"><path d="m256.004.001c-141.16 0-256.002 114.842-256.002 256.001 0 141.158 114.842 255.998 256.002 255.998 141.158 0 255.998-114.84 255.998-255.998-.001-141.159-114.84-256.001-255.998-256.001zm0 487.999c-127.926 0-232.002-104.074-232.002-231.998 0-127.926 104.076-232.001 232.002-232.001 127.924 0 231.998 104.076 231.998 232.001-.001 127.924-104.074 231.998-231.998 231.998zm66.031-303.583v143.166c0 6.627-5.373 12-12 12s-12-5.373-12-12v-143.166c0-6.627 5.373-12 12-12s12 5.373 12 12zm-48.548 61.191-123.985-71.583c-3.713-2.144-8.287-2.144-12 0s-6 6.105-6 10.393v143.166c0 4.287 2.287 8.249 6 10.393 1.856 1.072 3.928 1.607 6 1.607s4.144-.536 6-1.607l123.985-71.583c3.713-2.144 6-6.105 6-10.393s-2.287-8.249-6-10.393zm-117.986 61.191v-101.597l87.986 50.798zm225-122.382v143.166c0 6.627-5.373 12-12 12s-12-5.373-12-12v-143.166c0-6.627 5.373-12 12-12s12 5.373 12 12z"/></svg>