<svg width="76" height="72" viewBox="0 0 76 72" fill="none" xmlns="http://www.w3.org/2000/svg">
<g filter="url(#filter0_d_41_16)">
<rect x="10" y="10" width="56" height="52" rx="5" fill="url(#paint0_linear_41_16)"/>
</g>
<path d="M22.6797 35.6562V34.0859C23.5807 34.0859 24.2057 33.9062 24.5547 33.5469C24.9036 33.1875 25.0781 32.6068 25.0781 31.8047V30.0781C25.0781 29.1146 25.2109 28.3437 25.4766 27.7656C25.7474 27.1823 26.1224 26.7422 26.6016 26.4453C27.0859 26.1484 27.6589 25.9505 28.3203 25.8516C28.9818 25.7526 29.7057 25.7031 30.4922 25.7031V28.1875C29.8776 28.1875 29.4089 28.2682 29.0859 28.4297C28.7682 28.5859 28.5521 28.8307 28.4375 29.1641C28.3229 29.4922 28.2656 29.9089 28.2656 30.4141V32.6953C28.2656 33.0911 28.1927 33.4687 28.0469 33.8281C27.901 34.1823 27.6302 34.4974 27.2344 34.7734C26.8385 35.0443 26.2734 35.2604 25.5391 35.4219C24.8047 35.5781 23.8516 35.6562 22.6797 35.6562ZM30.4922 45.4766C29.7057 45.4766 28.9818 45.4271 28.3203 45.3281C27.6589 45.2292 27.0859 45.0313 26.6016 44.7344C26.1224 44.4375 25.7474 43.9974 25.4766 43.4141C25.2109 42.8359 25.0781 42.0651 25.0781 41.1016V39.3672C25.0781 38.5651 24.9036 37.9844 24.5547 37.625C24.2057 37.2656 23.5807 37.0859 22.6797 37.0859V35.5156C23.8516 35.5156 24.8047 35.5964 25.5391 35.7578C26.2734 35.9141 26.8385 36.1302 27.2344 36.4062C27.6302 36.6771 27.901 36.9922 28.0469 37.3516C28.1927 37.7057 28.2656 38.0833 28.2656 38.4844V40.7656C28.2656 41.2656 28.3229 41.6797 28.4375 42.0078C28.5521 42.3411 28.7682 42.5859 29.0859 42.7422C29.4089 42.9036 29.8776 42.9844 30.4922 42.9844V45.4766ZM22.6797 37.0859V34.0859H25.4844V37.0859H22.6797Z" fill="white"/>
<path d="M54.3203 35.3438L54.3203 36.9141C53.4193 36.9141 52.7943 37.0938 52.4453 37.4531C52.0964 37.8125 51.9219 38.3932 51.9219 39.1953L51.9219 40.9219C51.9219 41.8854 51.7891 42.6563 51.5234 43.2344C51.2526 43.8177 50.8776 44.2578 50.3984 44.5547C49.9141 44.8516 49.3411 45.0495 48.6797 45.1484C48.0182 45.2474 47.2943 45.2969 46.5078 45.2969L46.5078 42.8125C47.1224 42.8125 47.5911 42.7318 47.9141 42.5703C48.2318 42.4141 48.4479 42.1693 48.5625 41.8359C48.6771 41.5078 48.7344 41.0911 48.7344 40.5859L48.7344 38.3047C48.7344 37.9089 48.8073 37.5313 48.9531 37.1719C49.099 36.8177 49.3698 36.5026 49.7656 36.2266C50.1615 35.9557 50.7266 35.7396 51.4609 35.5781C52.1953 35.4219 53.1484 35.3438 54.3203 35.3438ZM46.5078 25.5234C47.2943 25.5234 48.0182 25.5729 48.6797 25.6719C49.3411 25.7708 49.9141 25.9688 50.3984 26.2656C50.8776 26.5625 51.2526 27.0026 51.5234 27.5859C51.7891 28.1641 51.9219 28.9349 51.9219 29.8984L51.9219 31.6328C51.9219 32.4349 52.0964 33.0156 52.4453 33.375C52.7943 33.7344 53.4193 33.9141 54.3203 33.9141L54.3203 35.4844C53.1484 35.4844 52.1953 35.4036 51.4609 35.2422C50.7266 35.0859 50.1615 34.8698 49.7656 34.5938C49.3698 34.3229 49.099 34.0078 48.9531 33.6484C48.8073 33.2943 48.7344 32.9167 48.7344 32.5156L48.7344 30.2344C48.7344 29.7344 48.6771 29.3203 48.5625 28.9922C48.4479 28.6589 48.2318 28.4141 47.9141 28.2578C47.5911 28.0964 47.1224 28.0156 46.5078 28.0156L46.5078 25.5234ZM54.3203 33.9141L54.3203 36.9141L51.5156 36.9141L51.5156 33.9141L54.3203 33.9141Z" fill="white"/>
<defs>
<filter id="filter0_d_41_16" x="0" y="0" width="76" height="72" filterUnits="userSpaceOnUse" color-interpolation-filters="sRGB">
<feFlood flood-opacity="0" result="BackgroundImageFix"/>
<feColorMatrix in="SourceAlpha" type="matrix" values="0 0 0 0 0 0 0 0 0 0 0 0 0 0 0 0 0 0 127 0" result="hardAlpha"/>
<feOffset/>
<feGaussianBlur stdDeviation="5"/>
<feComposite in2="hardAlpha" operator="out"/>
<feColorMatrix type="matrix" values="0 0 0 0 0 0 0 0 0 0 0 0 0 0 0 0 0 0 0.8 0"/>
<feBlend mode="normal" in2="BackgroundImageFix" result="effect1_dropShadow_41_16"/>
<feBlend mode="normal" in="SourceGraphic" in2="effect1_dropShadow_41_16" result="shape"/>
</filter>
<linearGradient id="paint0_linear_41_16" x1="38" y1="10" x2="38" y2="62" gradientUnits="userSpaceOnUse">
<stop stop-color="#00387B"/>
<stop offset="1" stop-color="#00CCFC"/>
</linearGradient>
</defs>
</svg>
