<svg width="51" height="89" viewBox="0 0 51 89" fill="none" xmlns="http://www.w3.org/2000/svg">
<path d="M50.2655 80.5481C43.8949 85.8248 35.7083 89 26.7853 89C17.1143 89 8.29943 85.2615 1.73086 79.1617C-0.393449 71.0386 0.796442 59.4529 14.3179 57.5721C14.7483 57.4733 15.1879 57.3859 15.639 57.3077C18.0372 56.8893 20.7668 56.726 23.9682 56.8134C26.3112 56.8801 28.5022 57.11 30.5253 57.4733C39.5473 59.0459 45.2482 63.0787 46.4035 66.1804C47.9225 70.2362 49.1976 75.1496 50.2655 80.5481Z" fill="black"/>
<path d="M29.745 36.2424L18.5803 34.0673L15.5791 57.7469L30.3825 65.9297L30.5598 58.2918L29.745 36.2424Z" fill="#FDCBB2"/>
<path d="M17.7427 42.7078L30.0489 44.4483L30.3896 53.6796L17.7427 42.7078Z" fill="#EAB7A0"/>
<path d="M15.6091 9.40605C18.2421 7.70694 21.1121 6.48146 23.8624 5.13873C26.6173 3.80519 29.2756 2.35669 31.3424 0C30.6772 1.41861 29.607 2.66018 28.3665 3.64884C27.1306 4.65589 25.7451 5.43532 24.3434 6.12739C21.508 7.47012 18.5965 8.49327 15.6091 9.40605Z" fill="#3D2615"/>
<path d="M21.3078 8.35072C22.7141 7.55059 24.1709 6.9643 25.6255 6.42858C27.0801 5.89287 28.53 5.40543 29.9639 4.9272C31.3954 4.44207 32.8109 3.97073 34.1941 3.40742C35.5796 2.84182 36.926 2.19804 38.3438 1.41861C37.5774 2.84872 36.3552 4.01441 35.0088 4.918C33.6555 5.82849 32.1757 6.51135 30.6636 7.01258C29.1515 7.5207 27.6025 7.85639 26.0467 8.08631C24.4909 8.31623 22.9235 8.43809 21.3055 8.35302L21.3078 8.35072Z" fill="#3D2615"/>
<path d="M22.8956 5.34104C24.4515 4.895 26.005 4.66737 27.5447 4.48574C29.0844 4.3064 30.6104 4.17304 32.1156 4.04429C33.6208 3.90864 35.1075 3.78218 36.5851 3.55916C38.065 3.33383 39.5242 3.02574 41.0869 2.60039C40.0052 3.81207 38.5437 4.65588 37.0224 5.21918C35.4942 5.78479 33.8923 6.10208 32.3066 6.23313C30.7162 6.37109 29.1328 6.3343 27.5677 6.19175C26.0004 6.0492 24.4469 5.80088 22.8979 5.33644L22.8956 5.34104Z" fill="#3D2615"/>
<path d="M23.9911 6.75968C25.5884 6.49068 27.158 6.43779 28.7069 6.4309C30.2582 6.424 31.7864 6.46309 33.2985 6.50447C34.8083 6.53666 36.2997 6.58034 37.7934 6.52286C39.2894 6.46538 40.7738 6.32283 42.3734 6.07222C41.1628 7.15515 39.6162 7.83111 38.0419 8.21968C36.4585 8.61054 34.8336 8.7462 33.2409 8.70021C31.646 8.65883 30.0763 8.445 28.5366 8.13001C26.9946 7.81272 25.4802 7.39196 23.9911 6.75738V6.75968Z" fill="#3D2615"/>
<path d="M28.2513 10.0866C29.8578 9.89807 31.4298 9.92336 32.9787 9.99464C34.5276 10.0659 36.0535 10.1809 37.561 10.2981C39.0685 10.4062 40.5553 10.5235 42.049 10.5419C43.545 10.5602 45.0364 10.4913 46.6475 10.3234C45.3839 11.3443 43.8051 11.9421 42.2124 12.2502C40.6129 12.5629 38.9811 12.6157 37.393 12.4893C35.8027 12.3697 34.2445 12.0754 32.7232 11.6846C31.1996 11.2891 29.7082 10.7948 28.2536 10.0866H28.2513Z" fill="#3D2615"/>
<path d="M31.8739 49.8859L17.7425 42.7101L14.0255 8.80599C58.9398 -0.940352 38.2261 48.4006 38.2261 48.4006C38.2261 48.4006 36.3043 51.1505 31.8739 49.8859Z" fill="#FDCBB2"/>
<path d="M20.1132 16.6578C14.2052 10.8569 33.6991 9.59691 19.1811 6.79647C9.08199 4.84904 8.87485 15.2874 10.3432 18.4672C13.8093 25.9811 15.0038 27.6388 17.791 30.4392L22.3066 30.6255C19.7081 24.5969 22.1294 18.6351 20.1155 16.6555L20.1132 16.6578Z" fill="#3D2615"/>
<path d="M30.7116 15.5519C38.7509 13.5585 41.8211 18.8098 41.8211 18.8098C45.2642 14.377 46.1158 4.13171 33.9614 4.07423C25.6782 4.03515 15.2131 6.51139 15.3121 11.2616C15.4111 16.0117 20.9762 17.9683 30.7139 15.5519H30.7116Z" fill="#3D2615"/>
<path d="M18.0983 33.7535C19.6949 33.0125 19.8985 30.0667 18.5532 27.1738C17.2078 24.281 14.8229 22.5367 13.2263 23.2777C11.6297 24.0188 11.4261 26.9646 12.7715 29.8574C14.1169 32.7502 16.5018 34.4945 18.0983 33.7535Z" fill="#FDCBB2"/>
<path d="M13.6573 25.3396C14.1154 25.0913 14.6815 25.112 15.1787 25.2821C15.6873 25.4476 16.12 25.7925 16.456 26.1857C16.7897 26.5903 16.9992 27.0617 17.1281 27.5422C17.2431 28.025 17.2661 28.524 17.1534 29.0206C16.8197 28.6251 16.578 28.2458 16.3409 27.8802C16.0786 27.533 15.8737 27.1743 15.6067 26.8823C15.1027 26.2662 14.5688 25.7672 13.6597 25.3396H13.6573Z" fill="#CA807A"/>
<path d="M34.7233 26.1006L25.2963 26.0638C25.2963 26.0638 26.3481 23.6956 30.1962 23.7416C34.0444 23.7899 34.7256 26.0983 34.7256 26.0983L34.7233 26.1006Z" fill="#3D2615"/>
<path d="M40.882 25.2154C38.9488 24.5785 37.5471 26.3995 37.5471 26.3995L42.2676 27.6135C42.2676 27.6135 42.7739 25.8385 40.882 25.2154Z" fill="#3D2615"/>
<path d="M28.0443 30.9634C28.0903 30.0138 28.6059 29.0321 29.4597 28.5722C29.8234 28.3768 30.2469 28.3078 30.6473 28.4251C31.1836 28.5814 31.5749 29.0229 31.8648 29.4804C32.0536 29.7793 32.53 29.5034 32.339 29.2022C31.8119 28.3676 30.9811 27.6916 29.9408 27.8411C29.0685 27.9652 28.3458 28.6297 27.9361 29.3793C27.6692 29.8667 27.5219 30.407 27.4942 30.9611C27.4781 31.3152 28.0282 31.3129 28.0443 30.9611V30.9634Z" fill="#001848"/>
<path d="M30.9084 30.3258C30.9431 29.4491 30.5068 28.72 29.934 28.6974C29.3612 28.6748 28.8687 29.3673 28.8341 30.244C28.7994 31.1208 29.2357 31.8499 29.8085 31.8724C30.3814 31.895 30.8738 31.2026 30.9084 30.3258Z" fill="#255E4F"/>
<path d="M35.8671 27.8802C38.6496 33.15 37.9661 40.243 37.9661 40.243L34.0995 37.8541L35.8671 27.8825V27.8802Z" fill="#EAB7A0"/>
<path d="M38.3827 31.7451C38.3966 31.4531 38.4679 31.1542 38.5991 30.9128C38.6313 30.853 38.6658 30.7956 38.705 30.7404C38.7395 30.6898 38.7602 30.6645 38.8177 30.6024C38.8615 30.5564 38.9052 30.5151 38.9535 30.4714C38.9949 30.4346 39.0019 30.43 39.0755 30.3817C39.1261 30.3495 39.1768 30.3196 39.2297 30.2943C39.255 30.2805 39.2826 30.269 39.308 30.2575C39.2619 30.2782 39.3402 30.2461 39.3563 30.2415C39.4092 30.2231 39.4645 30.207 39.5197 30.1955C39.5473 30.1886 39.5749 30.184 39.6026 30.1794C39.644 30.1725 39.5565 30.184 39.6002 30.1794C39.6164 30.1794 39.6325 30.1771 39.6463 30.1748C39.7015 30.1702 39.7545 30.1702 39.8097 30.1748C39.8327 30.1748 39.8948 30.184 39.8396 30.1748C39.8695 30.1794 39.8994 30.184 39.9294 30.1909C39.9823 30.2024 40.0329 30.2185 40.0813 30.2369C40.1296 30.2552 40.0882 30.2392 40.0813 30.2369C40.0951 30.2437 40.1089 30.2483 40.1227 30.2552C40.1503 30.269 40.1779 30.2828 40.2033 30.2989C40.2286 30.315 40.2562 30.3311 40.2815 30.3495C40.2838 30.3518 40.316 30.3748 40.2907 30.3564C40.2631 30.3334 40.3114 30.3748 40.3183 30.3794C40.3667 30.4231 40.4127 30.4691 40.4518 30.522C40.4219 30.4852 40.4748 30.5564 40.484 30.5702C40.5048 30.6047 40.5255 30.6369 40.5439 30.6737C40.5853 30.7519 40.5876 30.7634 40.6198 30.8553C40.728 31.191 41.2597 31.0462 41.1515 30.7082C40.9489 30.0897 40.4449 29.6437 39.7798 29.623C39.1376 29.6023 38.5461 29.9839 38.2055 30.5082C37.9662 30.8737 37.858 31.3083 37.8396 31.7428C37.8235 32.0969 38.3735 32.0946 38.3896 31.7428L38.3827 31.7451Z" fill="#001848"/>
<path d="M40.3242 31.8465C40.3497 31.2032 40.0408 30.6687 39.6343 30.6527C39.2279 30.6366 38.8778 31.1451 38.8524 31.7884C38.827 32.4317 39.1359 32.9662 39.5423 32.9822C39.9487 32.9983 40.2988 32.4898 40.3242 31.8465Z" fill="#255E4F"/>
<path d="M29.5563 39.9924C30.8336 40.8661 32.2468 41.5168 33.7289 41.8525C34.4723 42.018 35.2272 42.0709 35.9775 42.1353C36.7301 42.2111 37.4873 42.2134 38.2699 42.1951L38.2837 42.2479C37.5541 42.5767 36.7485 42.6618 35.9568 42.6848C35.1582 42.6894 34.3734 42.5077 33.6185 42.2778C32.0995 41.8318 30.707 41.0386 29.524 40.0361L29.5563 39.9924Z" fill="#CA807A"/>
</svg>
