<svg width="56" height="81" viewBox="0 0 56 81" fill="none" xmlns="http://www.w3.org/2000/svg">
<path d="M48.7231 64.809C48.7231 64.809 48.9558 69.0787 47.8853 75.8011C47.8853 75.8122 47.8853 75.8322 47.8742 75.8433C45.8616 76.9896 43.7094 77.9471 41.4618 78.6802C38.7178 79.5933 35.8253 80.1664 32.8153 80.3686C31.5762 80.453 30.3461 80.4752 29.127 80.4219H29.0849C28.8411 80.4108 28.6083 80.3997 28.3756 80.3908C27.3272 80.3375 26.2987 80.2308 25.2814 80.082C19.0818 79.2111 13.3588 76.7053 8.58003 72.9975C8.32513 72.8065 8.07245 72.5932 7.81756 72.3822C4.82971 69.9496 2.24305 67.0194 0.188354 63.7248C0.219386 63.6937 0.252633 63.6604 0.294746 63.6293C4.39528 60.2193 8.549 57.0869 12.3968 54.9831C12.8424 54.7387 13.2879 54.5166 13.7312 54.3033C13.9329 54.2078 14.1235 54.1234 14.3141 54.0279C17.4194 52.5839 20.2809 51.9463 22.6748 52.5194C22.6748 52.5194 24.0623 52.2973 26.2367 52.0951C26.2367 52.0951 26.2441 52.0914 26.2589 52.084C29.7033 51.7663 35.096 51.4998 40.0654 52.2529C44.9927 52.9971 49.5077 54.7499 51.2876 58.4443L51.2987 58.4554C51.6068 59.1129 51.8705 59.6972 52.0722 60.2393C55.049 67.8125 48.7231 64.8067 48.7231 64.8067V64.809Z" fill="white"/>
<path d="M29.444 32.9011L40.1231 32.2213L40.0544 54.7476C40.0544 54.7476 34.7946 60.7236 25.3967 57.7467C19.3057 55.8162 26.0128 53.4414 26.0128 53.4414L29.4462 32.9033L29.444 32.9011Z" fill="#FDCBB2"/>
<path d="M40.143 37.9773L28.1651 40.5431L26.7288 49.1427L40.143 37.9773Z" fill="#EAB7A0"/>
<path d="M27.0257 45.0884L40.1429 37.9773L42.8227 5.90059C0.350074 -2.21244 21.7127 43.1935 21.7127 43.1935C21.7127 43.1935 18.1264 48.6962 27.0257 45.0862V45.0884Z" fill="#FDCBB2"/>
<path d="M37.2857 13.4538C42.7006 7.83999 22.3287 4.71651 35.9159 1.72411C45.3671 -0.357464 47.7431 7.21352 46.5196 14.9267C45.2961 22.6398 42.357 23.6928 39.8036 26.4009L35.5612 26.6852C37.8598 20.9337 35.4393 15.3688 37.2879 13.4516L37.2857 13.4538Z" fill="#001848"/>
<path d="M27.6037 16.4366C35.3953 16.3998 41.6945 12.7337 41.6734 8.24815C41.6523 3.76258 35.3189 0.156149 27.5273 0.192949C19.7357 0.22975 13.4365 3.89585 13.4576 8.38141C13.4787 12.867 19.8121 16.4734 27.6037 16.4366Z" fill="#001848"/>
<path d="M44.506 25.7293C45.7019 22.9674 45.4397 20.1926 43.9204 19.5317C42.401 18.8709 40.1999 20.5741 39.0039 23.3361C37.808 26.0981 38.0702 28.8729 39.5895 29.5337C41.1089 30.1946 43.3101 28.4913 44.506 25.7293Z" fill="#FDCBB2"/>
<path d="M43.5674 21.4913C42.7251 21.9289 42.2397 22.411 41.7831 23.0019C41.5393 23.2841 41.3553 23.6262 41.1159 23.9572C40.8987 24.306 40.6793 24.6703 40.369 25.048C40.2449 24.5814 40.2515 24.1083 40.3468 23.6484C40.4554 23.1908 40.6394 22.7398 40.9453 22.3488C41.2534 21.9667 41.6523 21.6313 42.1289 21.4646C42.5944 21.2936 43.1263 21.2625 43.5652 21.4891L43.5674 21.4913Z" fill="#CA807A"/>
<path d="M25.5918 20.8582L33.9148 23.9305C33.9148 23.9305 33.7663 21.4891 30.3595 20.265C26.9505 19.041 25.5918 20.8582 25.5918 20.8582Z" fill="#001848"/>
<path d="M16.3954 23.4529L20.7863 21.9289C20.7863 21.9289 19.3987 19.9185 17.6056 20.7004C15.8501 21.4646 16.3954 23.4529 16.3954 23.4529Z" fill="#001848"/>
<path d="M31.1219 27.8715C31.1862 26.9252 30.8493 25.9921 30.0868 25.4056C29.4662 24.9302 28.6106 24.7303 27.8548 24.9636C27.4182 25.0991 27.0591 25.3656 26.7887 25.7344C26.587 26.0099 27.0458 26.2743 27.2453 26.0032C27.6043 25.5167 28.2316 25.3301 28.8057 25.419C29.4662 25.5189 30.0447 25.9366 30.3528 26.532C30.5678 26.9452 30.6232 27.4139 30.59 27.8738C30.5656 28.2159 31.0953 28.2137 31.1197 27.8738L31.1219 27.8715Z" fill="#001848"/>
<path d="M29.1536 28.2898C29.691 28.2548 30.0833 27.5564 30.0297 26.73C29.9761 25.9036 29.4969 25.262 28.9594 25.297C28.4219 25.3321 28.0297 26.0304 28.0833 26.8568C28.1369 27.6833 28.6161 28.3248 29.1536 28.2898Z" fill="#001848"/>
<path d="M22.3311 28.0582C22.3954 27.134 21.9854 26.2209 21.1631 25.7611C20.4826 25.3812 19.5893 25.3479 18.9709 25.8655C18.5919 26.181 18.4257 26.6586 18.3858 27.1362C18.357 27.4761 18.8867 27.4739 18.9155 27.1362C18.9443 26.803 19.0574 26.512 19.2768 26.3031C19.4608 26.1276 19.7378 26.0232 19.9794 26.0077C20.5779 25.9699 21.1874 26.2787 21.5199 26.803C21.7571 27.1762 21.8347 27.6116 21.8036 28.0582C21.7792 28.4003 22.309 28.398 22.3334 28.0582H22.3311Z" fill="#001848"/>
<path d="M20.8103 28.8019C21.3453 28.7671 21.7388 28.1185 21.6892 27.3533C21.6395 26.5881 21.1656 25.996 20.6305 26.0309C20.0955 26.0657 19.702 26.7143 19.7516 27.4795C19.8013 28.2447 20.2752 28.8368 20.8103 28.8019Z" fill="#001848"/>
<path d="M26.9105 41.6872C26.8773 41.3896 26.5448 41.2718 26.2943 41.2096C25.8466 41.0963 25.3678 41.0941 24.909 41.1274C24.7406 41.1407 24.7384 41.4051 24.909 41.394C25.3124 41.3629 25.7291 41.3607 26.1281 41.4451C26.2589 41.4718 26.3919 41.5051 26.5093 41.5695C26.5559 41.5939 26.5825 41.6117 26.618 41.6473C26.6268 41.6584 26.6268 41.6517 26.6379 41.6761C26.6423 41.6872 26.649 41.6983 26.6401 41.6806C26.6423 41.6872 26.6468 41.7206 26.6446 41.6895C26.6534 41.7606 26.7 41.8205 26.7775 41.8228C26.844 41.8228 26.9172 41.7606 26.9105 41.6895V41.6872Z" fill="#CA807A"/>
<path d="M28.8013 36.3245C27.8083 37.3108 26.5826 38.0795 25.2261 38.5194C24.5456 38.7282 23.8297 38.8637 23.1093 38.8237C22.3956 38.797 21.6508 38.5971 21.1211 38.1195C21.7639 38.4016 22.4399 38.4683 23.1049 38.4149C23.7698 38.3594 24.4259 38.2217 25.0665 38.0128C25.7093 37.8151 26.3321 37.5463 26.9571 37.2686C27.5778 36.9798 28.1762 36.6444 28.8013 36.3245Z" fill="#CA807A"/>
<path d="M24.4214 24.266C21.3937 29.0023 21.4735 35.7247 21.4735 35.7247L25.2881 33.7853L24.4236 24.266H24.4214Z" fill="#EAB7A0"/>
<path d="M20.3341 58.5331C19.2635 58.5331 18.2794 59.033 17.4836 59.6794C16.6569 60.3481 15.9365 61.1457 15.2804 61.9854C13.955 63.6738 12.8334 65.511 11.7518 67.3815C10.6923 69.2187 9.65495 71.067 8.62649 72.9264C8.60432 72.9487 8.59546 72.9798 8.58438 72.9998C8.32948 72.8087 8.0768 72.5954 7.8219 72.3844C7.83298 72.3622 7.85293 72.3311 7.86401 72.3111C8.89247 70.5161 9.94088 68.7211 11.0536 66.9572C12.2305 65.1311 13.4474 63.3028 14.8792 61.6566C15.6107 60.8391 16.4153 60.0749 17.3174 59.4484C18.1863 58.833 19.279 58.4176 20.3385 58.5354L20.3341 58.5331Z" fill="#001848"/>
<path d="M55.0268 70.4916C52.8857 72.5621 50.4919 74.3682 47.8742 75.8455C45.8616 76.9918 43.7094 77.9493 41.4619 78.6824C41.4619 78.6824 41.4619 78.675 41.4619 78.6602C41.2712 75.2923 41.0274 71.7024 41.0075 69.1543C40.89 56.4204 47.2381 55.7406 47.2381 55.7406C48.4992 55.9628 49.5477 56.5804 50.3855 57.3979C50.7246 57.7156 51.0216 58.0777 51.2854 58.4487L51.2965 58.4598C52.4734 60.0948 53.1096 62.1564 53.3623 63.8981C53.4886 64.7801 54.1979 67.2326 55.0268 70.4938V70.4916Z" fill="white"/>
</svg>
