<svg width="52" height="85" viewBox="0 0 52 85" fill="none" xmlns="http://www.w3.org/2000/svg">
<path d="M14.6339 83.3444C11.9892 82.4963 9.49612 81.3321 7.17822 79.8923C6.73814 79.6274 6.31088 79.3518 5.89003 79.0549C5.56317 78.8306 5.23632 78.6063 4.92015 78.3606C3.34782 77.207 1.86522 75.9189 0.517212 74.5111C3.38628 67.9229 6.14425 61.5292 7.23804 58.9871C7.52431 58.3227 7.69735 57.9254 7.72726 57.8442C7.72726 57.8335 7.72725 57.8228 7.73794 57.8228C10.2203 56.6479 13.0787 57.1905 15.4799 58.4872C16.6036 59.0896 17.6248 59.8565 18.4515 60.6939C18.5541 60.7965 18.6545 60.899 18.7485 60.9994C19.1373 61.4288 19.4834 61.8582 19.7589 62.2961C20.2396 63.0417 20.5344 63.7872 20.6071 64.4815C20.9232 67.6773 18.2059 75.4916 14.6318 83.3444H14.6339Z" fill="url(#paint0_linear_22_632)"/>
<path d="M51.4425 72.6419C48.3064 76.4102 44.3863 79.4949 39.9214 81.6397C38.6546 82.2528 37.3471 82.7847 35.9991 83.2334C34.8028 71.8451 33.0468 56.3211 33.0468 56.3211C35.5398 52.7472 41.0344 52.4502 44.6191 53.7683C45.9052 54.2382 46.9477 54.9133 47.5202 55.7187C49.1951 58.0877 50.6051 64.9814 51.4425 72.6419Z" fill="url(#paint1_linear_22_632)"/>
<path d="M23.8863 48.8955C23.6001 52.102 22.3845 55.0543 20.7096 57.9232C20.1072 58.955 19.4535 59.9762 18.7485 60.9973C18.5434 61.3028 18.3298 61.6104 18.1161 61.9159C14.2046 67.4722 9.38292 73.0371 7.17824 79.8901C6.73817 79.6252 6.3109 79.3497 5.89005 79.0527C5.56319 78.8284 5.23634 78.6041 4.92017 78.3585C5.61447 70.0357 6.44122 61.9671 7.23806 58.9849C7.40256 58.3825 7.56492 57.9831 7.72728 57.8421C7.72728 57.8314 7.72728 57.8207 7.73796 57.8207C13.162 53.4906 18.4622 50.9869 21.4338 49.7821C22.9656 49.169 23.8842 48.8934 23.8842 48.8934L23.8863 48.8955Z" fill="url(#paint2_linear_22_632)"/>
<path d="M25.9905 31.043L35.9799 31.1306L34.399 52.0486L17.6012 63.8214L21.4124 49.8867L25.9905 31.043Z" fill="#E8B4A0"/>
<path d="M35.1811 38.7185L24.2881 38.0541L22.3718 45.9454L35.1811 38.7185Z" fill="#CA807A"/>
<path d="M19.6162 43.6147L35.1813 38.7185L44.3375 10.1741C7.40929 -6.10396 17.6016 41.282 17.6016 41.282C17.6016 41.282 15.5828 43.9266 19.6162 43.6169V43.6147Z" fill="#E8B4A0"/>
<path d="M37.719 15.8672C43.8203 11.9088 27.3451 12.3211 39.4153 7.53589C49.8981 3.38091 48.3365 18.1081 43.9336 21.8123C38.3685 26.495 40.1843 26.2237 37.296 28.1463L33.3781 27.514C36.6722 22.7779 35.6383 17.2194 37.719 15.8693V15.8672Z" fill="#281E13"/>
<path d="M28.7765 15.5425C22.7927 16.4803 18.6654 13.9104 18.6654 13.9104C16.4842 9.48841 23.4806 -4.69405 29.9472 1.57366C35.1684 6.63654 44.4805 8.24085 42.8014 12.0647C38.0973 22.7736 37.4799 14.1796 28.7787 15.5425H28.7765Z" fill="#281E13"/>
<path d="M41.7165 28.521C43.3832 26.2655 43.7265 23.6925 42.4834 22.774C41.2403 21.8556 38.8815 22.9395 37.2149 25.195C35.5483 27.4505 35.205 30.0235 36.4481 30.942C37.6912 31.8604 40.0499 30.7765 41.7165 28.521Z" fill="#E8B4A0"/>
<path d="M41.7482 24.4784C40.8894 24.7112 40.3575 25.0487 39.8191 25.4867C39.5393 25.6896 39.3 25.9609 39.0116 26.2087C38.7403 26.4779 38.4604 26.7577 38.093 27.0354C38.0716 26.5826 38.1742 26.1553 38.3558 25.7537C38.548 25.3585 38.8108 24.9868 39.174 24.6941C39.535 24.4121 39.9708 24.19 40.4429 24.1408C40.9044 24.0853 41.3979 24.1729 41.7461 24.4762L41.7482 24.4784Z" fill="#CA807A"/>
<path d="M23.4889 22.1413L31.5983 23.8055C31.5983 23.8055 31.1219 21.5795 27.8042 20.9279C24.4887 20.2785 23.4889 22.1413 23.4889 22.1413Z" fill="#281E13"/>
<path d="M16.1144 22.56L20.3955 21.8658C20.3955 21.8658 19.4406 19.7979 17.6675 20.2273C15.9306 20.6481 16.1144 22.5579 16.1144 22.5579V22.56Z" fill="#281E13"/>
<path d="M28.8638 26.9115C28.9899 26.0912 28.8168 25.2196 28.3148 24.5489C27.8469 23.9251 27.127 23.5384 26.3366 23.6901C25.811 23.7926 25.3581 24.128 24.995 24.5061C24.7664 24.7433 25.1274 25.1043 25.356 24.8672C25.6807 24.5296 26.0888 24.2135 26.5737 24.1686C26.9347 24.1344 27.2872 24.2626 27.5671 24.4912C28.2165 25.0231 28.4985 25.9609 28.3746 26.7769C28.3532 26.9137 28.4088 27.0504 28.5519 27.091C28.6737 27.1252 28.8446 27.0482 28.866 26.9137L28.8638 26.9115Z" fill="black"/>
<path d="M27.4058 27.1727C27.9088 27.145 28.2821 26.4979 28.2396 25.7275C28.1971 24.957 27.7548 24.355 27.2518 24.3828C26.7487 24.4105 26.3754 25.0576 26.418 25.828C26.4605 26.5985 26.9028 27.2005 27.4058 27.1727Z" fill="black"/>
<path d="M23.4441 22.7737C19.6991 26.4352 18.3618 32.5533 18.3618 32.5533L22.2371 31.5942L23.4441 22.7758V22.7737Z" fill="#CA807A"/>
<path d="M19.8316 25.7686C19.932 25.132 19.8038 24.457 19.3274 23.9913C18.9557 23.6281 18.3832 23.4337 17.8769 23.6196C17.5607 23.7371 17.3129 23.9657 17.1484 24.2583C16.9839 24.551 17.4261 24.8031 17.5885 24.5168C17.6184 24.4655 17.6504 24.4143 17.6846 24.3651C17.7081 24.3331 17.6611 24.3929 17.6867 24.3651C17.6931 24.3566 17.7017 24.348 17.7081 24.3395C17.7295 24.316 17.753 24.2904 17.7765 24.269C17.7935 24.2519 17.8128 24.237 17.832 24.2199C17.8662 24.1878 17.8384 24.2156 17.8299 24.2199C17.8405 24.2113 17.8512 24.2028 17.864 24.1964C17.9089 24.1665 17.9559 24.143 18.0029 24.1173C18.0414 24.096 17.9666 24.128 18.0221 24.1088C18.0435 24.1024 18.0649 24.0938 18.0862 24.0874C18.1119 24.081 18.1354 24.0746 18.161 24.0703C18.1738 24.0682 18.1866 24.0661 18.1994 24.0639C18.1823 24.0682 18.1546 24.0682 18.1888 24.0639C18.2358 24.0618 18.2828 24.0575 18.3319 24.0597C18.3533 24.0597 18.3768 24.0639 18.3981 24.0639C18.4451 24.0639 18.3981 24.0639 18.3874 24.0639C18.4024 24.0661 18.4195 24.0682 18.4344 24.0725C18.4814 24.081 18.5306 24.0938 18.5754 24.1088C18.5968 24.1152 18.6182 24.1237 18.6395 24.1323C18.6737 24.1451 18.6011 24.1131 18.6331 24.1302C18.6481 24.1366 18.663 24.1451 18.678 24.1515C18.7228 24.175 18.7677 24.2006 18.8104 24.2284C18.8296 24.2412 18.851 24.2562 18.8702 24.269C18.8254 24.237 18.898 24.2925 18.9087 24.3011C18.9493 24.3374 18.9877 24.3737 19.0241 24.4143C19.0411 24.4335 19.0582 24.4527 19.0732 24.4719C19.0924 24.4933 19.0689 24.4677 19.0668 24.4634C19.0796 24.4805 19.0924 24.4997 19.1052 24.5168C19.1351 24.5595 19.1629 24.6065 19.1886 24.6535C19.2035 24.6813 19.2185 24.7091 19.2313 24.7368C19.2355 24.7475 19.242 24.7582 19.2462 24.7689C19.2569 24.7945 19.2355 24.7411 19.2526 24.786C19.3573 25.0722 19.3808 25.3457 19.336 25.6341C19.3146 25.7708 19.3701 25.9096 19.5133 25.9481C19.635 25.9823 19.8059 25.9075 19.8273 25.7708L19.8316 25.7686Z" fill="black"/>
<path d="M18.1588 25.2175C18.1588 24.6044 18.3959 24.1088 18.6886 24.1088C18.9813 24.1088 19.2184 24.6065 19.2184 25.2175C19.2184 25.8306 18.9813 26.3262 18.6886 26.3262C18.3959 26.3262 18.1588 25.8285 18.1588 25.2175Z" fill="black"/>
<path d="M18.5583 35.0057C19.1181 35.4437 19.8359 35.5462 20.5152 35.5975C21.2052 35.6338 21.9017 35.5996 22.5832 35.4736C23.2668 35.3646 23.9376 35.1766 24.5656 34.8968C25.1766 34.6127 25.809 34.2239 26.0568 33.5488C25.9051 34.258 25.2728 34.7536 24.6511 35.0741C24.0145 35.4009 23.3223 35.5932 22.6237 35.7256C21.9209 35.8346 21.2052 35.873 20.4981 35.7919C19.8017 35.7085 19.0604 35.5184 18.5583 35.0057Z" fill="#CA807A"/>
<path d="M45.1319 60.0381C45.1319 67.8204 43.2519 75.1648 39.9236 81.6397C38.6567 82.2528 37.3493 82.7847 36.0013 83.2333C32.5896 84.3784 28.9429 85 25.1446 85C21.3462 85 17.9452 84.4189 14.6339 83.3466C11.9892 82.4985 9.49611 81.3342 7.17821 79.8944C6.73813 79.6295 6.31087 79.3539 5.89001 79.057C7.32134 69.946 7.17821 56.5881 12.1622 57.9574C13.2859 58.2629 14.3989 58.4381 15.482 58.4893C16.7275 58.5705 17.9431 58.4893 19.118 58.2843C19.6607 58.1924 20.1905 58.0706 20.7117 57.9275C28.6673 55.8126 34.2965 48.6242 34.6939 48.103C34.7046 48.0816 34.7152 48.0731 34.7152 48.0731C38.505 49.0942 42.0791 51.444 44.6234 53.7725C44.6533 53.8024 44.6854 53.8238 44.7153 53.8537C44.9802 55.8853 45.134 57.9382 45.134 60.0424L45.1319 60.0381Z" fill="#746D2F"/>
<defs>
<linearGradient id="paint0_linear_22_632" x1="10.5747" y1="57.1745" x2="10.5747" y2="83.3444" gradientUnits="userSpaceOnUse">
<stop stop-color="#77702D"/>
<stop offset="1" stop-color="#615C34"/>
</linearGradient>
<linearGradient id="paint1_linear_22_632" x1="42.2446" y1="53.049" x2="42.2446" y2="83.2334" gradientUnits="userSpaceOnUse">
<stop stop-color="#77702D"/>
<stop offset="1" stop-color="#615C34"/>
</linearGradient>
<linearGradient id="paint2_linear_22_632" x1="14.4032" y1="48.8934" x2="14.4032" y2="79.8901" gradientUnits="userSpaceOnUse">
<stop stop-color="#77702D"/>
<stop offset="1" stop-color="#615C34"/>
</linearGradient>
</defs>
</svg>
