<svg width="68" height="85" viewBox="0 0 68 85" fill="none" xmlns="http://www.w3.org/2000/svg">
<path d="M4.86674 22.5925C7.14423 21.0988 9.76209 19.9145 11.4114 17.8251C13.5062 15.1726 13.6288 11.5848 15.2956 8.68102C17.458 4.91638 22.023 2.76416 26.573 2.18713C27.6066 2.05683 28.6453 2.01263 29.6839 2.00332C30.1194 1.75203 30.675 1.52169 31.3057 1.29832C31.3257 1.28901 31.3407 1.27273 31.3607 1.26342C34.6844 -0.283854 38.7338 -0.418804 42.1675 0.90743C45.6013 2.23366 48.3593 4.99316 49.5256 8.27617C49.9736 9.53493 50.2163 10.8984 51.0523 11.9733C52.9694 14.4327 57.4818 14.7654 58.4228 17.6762C58.9584 19.3281 58.0199 21.1593 58.5455 22.8159C59.1686 24.782 61.7314 25.3055 63.6135 26.3711C67.748 28.7141 66.5893 32.3787 64.9975 34.3937C64.3193 35.4989 63.2581 37.5394 62.685 40.2989C62.4172 41.9044 62.217 43.5028 62.5498 45.085C63.0854 47.6281 64.9074 49.7361 66.2864 51.9907C67.6629 54.243 68.604 57.0862 67.29 59.3711C64.9399 63.4568 57.9073 62.3633 54.3033 65.5625C52.3712 67.275 51.8056 69.8809 50.807 72.1821C46.6775 81.6751 32.8849 86.175 23.2218 81.2563C15.0804 77.1124 11.4189 67.161 14.1119 59.0267C11.1361 55.6414 9.35665 51.3834 9.61944 46.9929C9.7671 44.5149 10.4503 41.9346 9.48929 39.6195C7.69233 35.2988 0.829823 33.5025 0.577046 28.8747C0.436893 26.2874 2.58925 24.0886 4.86674 22.5949V22.5925Z" fill="black"/>
<path d="M42.315 70.0927C42.2424 70.2485 42.1724 70.3928 42.1123 70.5371C40.7358 73.6409 38.6535 77.5894 38.2105 82.3847C38.1405 83.0851 38.1154 83.8087 38.1405 84.5533C36.1433 84.8534 34.0835 84.9977 32.0012 84.9977C19.1146 84.9977 7.65211 79.3344 0.341614 70.5371C1.53792 68.101 3.46503 65.8766 5.22445 63.9524C7.53448 61.4279 9.84201 58.9127 12.1645 56.3999C13.8389 54.5757 15.5157 52.7399 17.19 50.9158C17.5129 50.5714 17.8357 50.2806 18.1711 50.0479C19.2723 49.2917 20.4686 49.1358 21.8451 49.0125C22.1805 48.9567 24.9911 48.7566 26.2124 48.6449C26.4752 48.6216 26.6679 48.6123 26.738 48.6007C28.4123 48.4238 31.4757 48.5006 34.7417 48.9008C38.9413 49.4127 43.4763 50.469 45.8689 52.2048C45.8689 52.2048 45.8814 52.2048 45.8814 52.2164C46.0016 52.2932 46.1092 52.3839 46.2168 52.4724C51.6602 57.0327 44.7577 65.0413 42.315 70.0927V70.0927Z" fill="white"/>
<path d="M30.2396 33.3862L36.8093 33.2908L34.5017 50.6645C34.5017 50.6645 24.3031 59.1431 18.8822 56.4697C15.3683 54.7363 26.085 49.0916 26.085 49.0916L30.2396 33.3862V33.3862Z" fill="#FDCBB2"/>
<path d="M36.5387 35.3267L28.2146 41.0388L26.9532 45.8063L35.7453 41.2971L36.5387 35.3267Z" fill="#EAB7A0"/>
<path d="M43.5091 33.0535C44.6253 30.7896 44.6578 27.4926 42.6056 26.8737C41.9924 26.6899 41.2341 26.755 40.4482 26.9993C35.4427 26.1431 44.1022 12.1595 31.7212 9.62102C24.8311 8.20869 20.2436 9.33948 15.3783 25.95C13.4537 32.5207 14.7276 40.7456 21.1871 43.3027C26.0425 45.2246 33.1002 41.3297 37.1071 36.4854C39.4746 36.3598 42.095 35.927 43.5116 33.0558L43.5091 33.0535Z" fill="#FDCBB2"/>
<path d="M31.6485 22.4855C30.7 20.8987 28.5651 19.9261 26.7306 20.8335C26.3903 21.001 26.6931 21.4827 27.0335 21.3128C28.5827 20.5473 30.3496 21.4548 31.133 22.7647C31.3207 23.0765 31.8362 22.7973 31.6485 22.4832V22.4855Z" fill="#001848"/>
<path d="M30.3518 23.1471C30.5521 22.4002 30.2252 21.6814 29.6217 21.5415C29.0181 21.4016 28.3665 21.8936 28.1662 22.6405C27.9659 23.3873 28.2928 24.1062 28.8963 24.2461C29.4998 24.386 30.1515 23.8939 30.3518 23.1471Z" fill="#001848"/>
<path d="M22.6387 21.4897C22.1807 20.766 21.535 20.061 20.6941 19.7097C20.0033 19.4212 19.2525 19.4096 18.6393 19.8586C18.5117 19.9517 18.5342 20.1541 18.6393 20.2518C18.7644 20.3682 18.9346 20.3449 19.0623 20.2518C19.4727 19.9494 20.0408 20.0192 20.5089 20.2402C21.2071 20.5706 21.7302 21.1499 22.1231 21.7689C22.3183 22.0783 22.8364 21.7968 22.6387 21.4873V21.4897Z" fill="#001848"/>
<path d="M21.3306 22.109C21.4624 21.3608 21.2209 20.7013 20.7912 20.6358C20.3615 20.5704 19.9064 21.1239 19.7746 21.8721C19.6428 22.6203 19.8843 23.2799 20.3139 23.3453C20.7436 23.4107 21.1988 22.8572 21.3306 22.109Z" fill="#001848"/>
<path d="M23.7698 22.8601C21.7701 27.4205 18.6266 26.9016 18.2738 28.3186C17.9234 29.7356 22.7812 30.1939 22.7812 30.1939L23.7698 22.8601V22.8601Z" fill="#EAB7A0"/>
<path d="M26.7208 32.4718C26.3554 33.0605 25.8573 33.584 25.2366 33.9865C24.626 34.4007 23.8401 34.6357 23.0492 34.5961C22.2609 34.5542 21.5151 34.2494 20.9369 33.805C20.3513 33.3629 19.8858 32.8208 19.5379 32.2229C20.081 32.6766 20.6116 33.121 21.1997 33.4537C21.7904 33.7818 22.4236 34.0144 23.0793 34.04C24.4132 34.1331 25.6371 33.349 26.7183 32.4718H26.7208Z" fill="#CA807A"/>
<path d="M34.4466 18.8372C34.4466 18.8372 31.9414 17.013 29.0557 16.6663C26.1701 16.3197 25.4393 17.1759 25.4393 17.1759C25.4393 17.1759 26.115 15.2028 28.6177 15.2773C32.5295 15.3936 34.4491 18.8348 34.4491 18.8348L34.4466 18.8372Z" fill="black"/>
<path d="M18.2088 17.6436C18.2088 17.6436 18.6617 16.5174 20.6189 16.6128C22.511 16.7059 23.89 17.4132 23.89 17.4132C23.89 17.4132 22.8989 16.222 21.3247 15.6845C17.9009 14.5165 18.2088 17.6436 18.2088 17.6436V17.6436Z" fill="black"/>
<path d="M39.6096 31.583C39.2417 31.2177 39.1215 30.6895 39.1691 30.1893C39.2066 29.6797 39.4494 29.2028 39.7647 28.8026C40.0901 28.4047 40.513 28.1092 40.9635 27.8882C41.4215 27.6811 41.9146 27.5578 42.4402 27.5671C42.1348 27.9742 41.8195 28.2837 41.5191 28.5862C41.2438 28.9049 40.9385 29.1702 40.7158 29.4773C40.2277 30.0683 39.8548 30.6477 39.6121 31.583H39.6096Z" fill="#CA807A"/>
<path d="M61.1105 73.3175C58.1899 76.198 54.7686 78.6457 50.9995 80.549L47.806 76.7006L42.3125 70.0927L36.5462 63.1404C35.3849 61.7281 34.8468 59.9714 35.027 58.2124L35.0746 57.8238C35.4575 54.1755 38.7486 51.4951 42.5402 51.4951C42.9582 51.4951 43.3786 51.5277 43.8091 51.5952C44.5274 51.7069 45.2207 51.9186 45.8664 52.2071C45.8664 52.2071 45.8789 52.2071 45.8789 52.2187C47.1127 52.7748 48.1639 53.6427 48.9172 54.7432L55.4744 64.7319L61.1105 73.3198V73.3175Z" fill="white"/>
</svg>
