<svg width="62" height="85" viewBox="0 0 62 85" fill="none" xmlns="http://www.w3.org/2000/svg">
<path d="M10.8731 60.0752C16.0838 40.7033 5.08177 -0.855396 33.668 0.0134095C52.6688 0.591786 51.8529 22.3864 51.3774 38.1813C50.9019 53.9762 51.6577 67.0256 39.4043 66.6607C27.1484 66.2983 10.8731 60.0752 10.8731 60.0752Z" fill="url(#paint0_linear_22_773)"/>
<path d="M33.7733 32.3777L39.7648 32.9957L38.0004 48.4208L46.6874 52.9609C46.6874 52.9609 27.7066 63.8334 17.2652 51.4616L28.1446 47.1821L33.7733 32.3777Z" fill="#FFDACC"/>
<path d="M39.5595 34.788L31.0302 39.5912L29.3208 44.0842L39.0189 39.5143L39.5595 34.788Z" fill="#EAB7A0"/>
<path d="M46.3945 29.8134C47.2129 27.3162 46.84 23.8584 44.7502 23.4414C44.1271 23.3173 43.3887 23.4736 42.6479 23.8162C37.6274 23.4861 44.4199 7.85996 31.9512 6.59895C25.0111 5.89646 16.9999 10.9504 18.2137 27.9989C18.7243 35.1628 24.0776 40.398 24.0776 40.398C30.6598 41.4157 37.2746 38.8441 40.5281 34.1302C42.8356 33.7305 45.3559 32.9809 46.3945 29.8134Z" fill="#FFDACC"/>
<path d="M34.0285 21.7584C33.6156 21.1279 32.9774 20.6041 32.204 20.3633C31.4382 20.1176 30.5247 20.1796 29.7839 20.6786C30.387 20.0257 31.3581 19.6956 32.3116 19.78C33.2702 19.852 34.2112 20.2963 34.9395 20.9889L34.0285 21.7584Z" fill="#001848"/>
<path d="M33.0868 22.2707C33.1634 21.4627 32.729 20.7613 32.1166 20.7042C31.5042 20.6471 30.9457 21.2559 30.8691 22.0639C30.7925 22.872 31.2269 23.5733 31.8393 23.6304C32.4517 23.6875 33.0102 23.0787 33.0868 22.2707Z" fill="black"/>
<path d="M19.0771 19.5789C19.8054 19.0328 20.7239 18.7225 21.6124 18.8566C22.5159 18.9782 23.1967 19.641 23.482 20.3559C23.0115 19.7229 22.2731 19.3605 21.5899 19.4498C20.9041 19.5193 20.301 19.9314 19.9031 20.4403L19.0796 19.5789H19.0771Z" fill="#001848"/>
<path d="M22.8438 21.181C22.9726 20.392 22.733 19.6972 22.3087 19.629C21.8844 19.5608 21.4359 20.1452 21.3071 20.9341C21.1782 21.7231 21.4178 22.418 21.8421 22.4861C22.2665 22.5543 22.7149 21.97 22.8438 21.181Z" fill="black"/>
<path d="M26.5878 19.5739C24.8309 26.6833 20.4636 27.5744 20.4636 27.5744C20.7189 29.8457 25.1087 29.7415 25.1087 29.7415L26.5878 19.5739Z" fill="#EAB7A0"/>
<path d="M30.2669 30.0815C29.9491 30.8138 29.4585 31.3922 28.8679 31.8564C28.2797 32.328 27.5715 32.6582 26.8031 32.8543C26.0298 33.0156 25.1863 33.0355 24.408 32.7748C23.6321 32.5266 22.9464 32.0351 22.5535 31.3351L22.6135 31.2308C23.8023 31.9011 25.2314 32.0426 26.5328 31.6975C27.8568 31.4096 29.0756 30.7468 30.1993 29.9822L30.2694 30.079L30.2669 30.0815Z" fill="#CA807A"/>
<path d="M37.1244 19.9537C37.1244 19.9537 34.6692 18.0051 31.8211 17.608C28.973 17.2108 28.2397 18.1094 28.2397 18.1094C28.2397 18.1094 28.9304 16.0367 31.4006 16.1409C35.2649 16.3048 37.1244 19.9537 37.1244 19.9537Z" fill="#EAB541"/>
<path d="M19.2349 17.598C19.2349 17.598 19.7304 16.4289 21.66 16.6051C23.5246 16.7764 24.856 17.5757 24.856 17.5757C24.856 17.5757 23.9275 16.2824 22.3958 15.6544C19.0647 14.2916 19.2349 17.598 19.2349 17.598Z" fill="#EAB541"/>
<path d="M42.3852 28.7138C42.3852 28.7138 41.2564 26.3705 44.6727 24.1886L42.3852 28.7138Z" fill="#EAB7A0"/>
<path d="M50.6292 57.3943C50.449 57.5482 50.2463 57.8213 50.0185 58.1886V58.2011C49.9359 58.3326 49.8508 58.4617 49.7682 58.6156C49.7682 58.628 49.7682 58.6404 49.7557 58.6404C49.2176 59.6383 48.5819 61.0979 47.9012 62.8653V62.8777C45.7363 68.4679 43.126 77.1063 41.5718 83.8482C38.5084 84.6078 35.3024 85 31.9988 85C24.916 85 18.2638 83.173 12.495 79.9684C13.7989 74.2591 14.2894 67.187 13.1282 60.8968C13.0806 60.6114 13.0205 60.316 12.9605 60.0305V60.0181C12.6501 58.5585 12.2422 57.1585 11.7291 55.828C11.5614 55.401 11.3938 54.9741 11.2036 54.5595C11.4313 54.5719 11.659 54.5719 11.8968 54.5595C12.4349 54.5347 12.998 54.4652 13.5711 54.346C14.3495 54.1921 15.1379 53.9662 15.9287 53.7056C16.8147 53.4077 17.6756 53.0776 18.454 52.7325C20.0808 52.0325 21.3847 51.3325 21.8652 51.0719C21.9979 50.99 22.0679 50.9527 22.0679 50.9527C22.2581 51.5932 22.5334 52.0921 22.8563 52.4967C22.8563 52.4967 22.8438 52.4967 22.8563 52.5091C24.3755 54.4428 27.0434 53.9811 28.2046 55.4407C28.2997 54.9666 37.4047 52.5563 40.2178 50.3744C40.4455 50.208 40.6232 50.0293 40.7559 49.863C40.7809 49.8382 40.8034 49.8158 40.8159 49.791L41.2464 50.1236L41.7019 50.4786L44.7302 52.8294L44.7653 52.8542L44.8729 52.9361L45.6262 53.517L50.1486 57.0294L50.1962 57.0642L50.6267 57.3968L50.6292 57.3943Z" fill="white"/>
<path d="M51.8981 53.3358C51.8981 53.3358 49.6256 69.9498 48.7521 71.9208C48.6095 72.2186 48.5719 73.0006 48.5244 73.9984V74.0233C48.4518 75.7907 48.3442 78.2357 47.6509 79.874C47.3281 80.6585 46.9326 81.4751 46.5272 82.2943C44.9229 82.9223 43.2711 83.4461 41.5743 83.8482C38.5109 84.6078 35.3049 85 32.0013 85C24.9185 85 18.2663 83.173 12.4975 79.9684C11.7567 79.5638 11.0259 79.1269 10.3201 78.6751C9.02867 77.8435 7.79482 76.9549 6.61102 75.9942C7.08905 71.5559 11.1685 52.6506 11.1685 52.6506C11.4438 52.4967 11.7667 52.3652 12.1496 52.2237C12.6051 52.045 13.1557 51.8786 13.8364 51.6652H13.8489C14.4596 51.474 15.1654 51.2605 15.9913 51.0123C17.4979 50.5258 19.425 49.8854 21.9027 48.9346L21.9278 48.9222C21.9278 48.9222 21.9027 49.1953 21.8802 49.6471C21.8552 50.0144 21.8452 50.5134 21.8677 51.0719C21.8902 52.3652 22.0579 54.0382 22.621 55.4755C22.6461 55.5475 22.6811 55.617 22.7161 55.7138C23.2292 57.0791 24.5456 60.7107 25.9472 64.6625C27.3237 68.4828 28.7953 72.6133 29.7288 75.2495C29.8489 75.0236 29.9666 74.7878 30.0867 74.5495C30.4095 73.9438 30.7324 73.3282 31.0803 72.6754V72.663C32.169 70.5977 33.3653 68.3438 34.5015 66.2537C36.3686 62.8479 38.0554 59.9039 38.7862 59.0748C39.4569 58.3028 40.0201 57.022 40.4605 55.6443C41.1063 53.6858 41.5142 51.5609 41.7044 50.4811C41.7169 50.4339 41.7169 50.3992 41.7294 50.3744C41.7895 49.9822 41.8245 49.7563 41.8245 49.7563C42.8181 50.2776 43.8117 50.6822 44.7678 51.0024C44.7928 51.0148 44.8153 51.0272 44.8403 51.0272C47.2455 51.8464 49.4479 52.1914 50.7868 52.6879C50.8469 52.7127 50.8945 52.735 50.942 52.7474C51.36 52.9262 51.6953 53.1024 51.8981 53.3407V53.3358Z" fill="black"/>
<path d="M38.0004 48.4208L44.7628 49.5924V55.9372L41.3015 55.0014L43.2937 58.3351C43.2937 58.3351 41.4066 63.0142 37.2095 68.0086C35.4626 70.0863 28.6076 84.0344 28.6076 84.0344C28.6076 84.0344 30.2044 73.0402 32.8973 67.9267C35.8655 62.3018 38.4409 55.9148 39.512 53.1272C40.5857 50.3371 37.9979 48.4183 37.9979 48.4183L38.0004 48.4208Z" fill="black"/>
<path d="M26.6379 47.7729L16.0188 49.9052L15.8911 55.1205L20.2659 54.7457L18.0285 59.5961C18.0285 59.5961 17.3052 59.8642 21.5273 65.5139C23.1491 67.7182 30.3369 81.8996 30.3369 81.8996C30.3369 81.8996 31.1303 79.1045 29.8639 73.4747C28.4999 67.3905 23.8473 57.9429 23.099 55.0585C21.7876 50.0095 26.6354 47.7754 26.6354 47.7754L26.6379 47.7729Z" fill="black"/>
<path d="M44.8053 49.6222C44.8654 51.7371 44.9004 53.8521 44.9054 55.967V56.0961L44.7803 56.0638L41.3115 55.1553L41.4542 54.9691C42.1224 56.0787 42.8107 57.1759 43.4564 58.2954L43.4914 58.3574L43.4639 58.417C42.688 60.1795 41.7395 61.8451 40.7084 63.4586C39.6797 65.0746 38.5135 66.6012 37.2496 68.0384C38.4359 66.5391 39.5296 64.9703 40.5457 63.3593C41.5468 61.7383 42.4678 60.0578 43.2011 58.3128L43.2111 58.4344C42.5303 57.3322 41.8896 56.2078 41.2289 55.0932L41.0687 54.8226L41.3741 54.907L44.8279 55.8702L44.7027 55.9645C44.7077 53.8496 44.7428 51.7347 44.8028 49.6197L44.8053 49.6222Z" fill="#414042"/>
<path d="M16.0388 54.9492L20.4061 54.5024L20.5287 54.49L20.4762 54.6042L18.2663 59.467L18.2087 59.5216C18.2537 59.4819 18.2212 59.683 18.2688 59.7798C18.3063 59.9014 18.3513 60.0206 18.4039 60.1397C18.5065 60.378 18.6317 60.6114 18.7593 60.8422C19.0196 61.3014 19.2999 61.7532 19.5952 62.1951C20.1834 63.0813 20.804 63.9451 21.4447 64.799C22.7412 66.5267 23.6521 68.4654 24.6858 70.3296C26.6805 74.1002 28.6301 77.8907 30.4821 81.7308L24.468 70.4438C23.4319 68.587 22.4458 66.6806 21.217 64.9628C20.5863 64.1015 19.9731 63.2252 19.39 62.3266C19.0997 61.8773 18.8194 61.4206 18.5616 60.949C18.4339 60.7131 18.3113 60.4724 18.2037 60.2216C18.1486 60.0975 18.1036 59.966 18.0635 59.8319C18.051 59.7599 18.026 59.6954 18.026 59.616C18.036 59.539 17.9734 59.4621 18.1361 59.3255L18.0785 59.3801L20.346 54.5421L20.4161 54.6439L16.0363 54.9468L16.0388 54.9492Z" fill="#414042"/>
<path d="M61.6638 71.9431C59.091 74.7679 56.1127 77.213 52.8216 79.2063C51.7454 77.913 50.2488 76.2871 48.597 74.1027C48.572 74.0779 48.5619 74.0431 48.5244 74.0084C48.5244 74.0084 48.5244 74.0042 48.5244 73.9959C47.8437 72.5115 49.0625 63.9923 50.021 58.2011C50.0811 57.8088 50.1412 57.4291 50.2012 57.0617C50.5967 54.6638 50.9195 52.9311 50.942 52.7425C50.9546 52.7301 50.9546 52.7176 50.9546 52.7176C52.8441 52.1492 54.3157 55.128 57.5593 63.0192C58.6255 65.6058 60.1446 68.7508 61.6638 71.9431Z" fill="black"/>
<path d="M13.849 51.6627C13.849 51.6627 13.7413 52.7176 13.5737 54.3435C13.4185 55.8627 13.2033 57.8808 12.963 60.0156V60.028C12.928 60.2887 12.9029 60.5493 12.8679 60.8124C12.3774 65.0596 11.8042 69.5476 11.3713 71.3026C11.0359 72.6555 10.6405 75.5399 10.3176 78.6726C9.02619 77.841 7.79234 76.9524 6.60855 75.9917C4.44368 74.2243 2.46902 72.2285 0.722107 70.059C1.46292 67.46 2.09861 65.1689 2.49405 63.4834C4.39613 55.3191 9.31401 52.6357 12.1871 51.9134C12.8804 51.7222 13.456 51.6651 13.839 51.6651H13.8515L13.849 51.6627Z" fill="black"/>
<defs>
<linearGradient id="paint0_linear_22_773" x1="31.2118" y1="-3.8147e-06" x2="31.2118" y2="66.6682" gradientUnits="userSpaceOnUse">
<stop stop-color="#EAB541"/>
<stop offset="1"/>
</linearGradient>
</defs>
</svg>
