<svg width="56" height="89" viewBox="0 0 56 89" fill="none" xmlns="http://www.w3.org/2000/svg">
<path d="M1.28597 78.4957C1.47081 78.6734 1.65564 78.8488 1.84279 79.0195C2.462 79.5941 3.09969 80.1456 3.75818 80.6764C4.60151 81.3571 5.47718 82.0009 6.38058 82.6055C6.42448 82.6332 6.46607 82.6608 6.50997 82.6908C6.83343 82.9031 7.15921 83.1131 7.48961 83.3139C7.90088 83.57 8.31908 83.8169 8.74189 84.0546C9.55287 84.5138 10.3846 84.9453 11.2349 85.3445C12.1337 85.7668 13.0509 86.1522 13.9867 86.5006C14.1738 86.5698 14.3633 86.6391 14.5528 86.706C14.8416 86.8075 15.1327 86.9067 15.4261 87.0013C16.1539 87.2413 16.891 87.4605 17.6396 87.6544C18.3674 87.8459 19.1044 88.0143 19.8507 88.1597C20.8835 86.1106 21.5443 84.3753 21.7245 83.0924C21.9833 81.2348 20.9851 78.8419 19.2269 76.6382C18.5476 75.7844 17.7528 74.9606 16.8725 74.206C16.8078 74.1506 16.7408 74.0952 16.6738 74.0399C15.8905 73.3868 15.0449 72.7892 14.153 72.2792C13.2034 71.7346 12.203 71.2847 11.1748 70.9685C11.0454 70.9247 10.9137 70.8878 10.7821 70.8508C10.5995 70.8001 10.417 70.7539 10.2322 70.7147C9.338 70.5093 8.42767 70.4101 7.51734 70.4355C6.9582 70.4516 6.39906 70.5139 5.84224 70.6293C5.84224 70.6293 4.59457 72.33 2.59369 75.0483C1.98604 75.8744 1.30907 76.7951 0.574335 77.7896C0.807693 78.0273 1.04568 78.2627 1.28597 78.4957Z" fill="black"/>
<path d="M23.5152 36.5908L37.1979 36.7107L35.033 65.3289L15.618 71.4162L17.2445 62.3729L23.5152 36.5908Z" fill="#FDCBB2"/>
<path d="M36.5742 44.9671L21.1818 46.1855L18.5571 56.9802L36.5742 44.9671Z" fill="#EAB7A0"/>
<path d="M16.5444 53.5327L36.574 44.9671L48.6486 8.03952C-1.93946 -14.2329 12.0228 48.26 12.0228 48.26C12.0228 48.26 4.48599 51.7006 16.5467 53.535L16.5444 53.5327Z" fill="#FDCBB2"/>
<path d="M37.1979 16.4505C37.3203 6.50041 21.5536 8.75026 38.9977 5.27972C55.7487 1.94762 47.9277 19.8149 45.4347 23.2093C39.5407 31.2304 42.9625 29.9981 39.0023 32.6287L33.7991 34.5001C36.574 22.9624 37.1077 23.6662 37.1979 16.4528V16.4505Z" fill="black"/>
<path d="M29.4162 15.1721C16.9673 17.5397 13.4808 13.1507 13.4808 13.1507C10.491 7.10036 10.863 -2.32596 25.2042 0.523855C34.9752 2.46681 48.3945 5.2174 46.5415 10.624C39.0024 32.6241 41.2713 12.9177 29.4162 15.1721Z" fill="black"/>
<path d="M37.8416 36.4532C36.139 35.1967 36.6091 31.6772 38.8915 28.592C41.174 25.5068 44.4046 24.0243 46.1072 25.2807C47.8098 26.5371 47.3397 30.0567 45.0572 33.1419C42.7747 36.2271 39.5442 37.7096 37.8416 36.4532Z" fill="#FDCBB2"/>
<path d="M45.1021 27.6098C43.0919 26.9937 41.2297 28.6274 40.421 30.3419C40.3124 30.5981 40.1992 30.8519 40.0975 31.108C40.2454 30.8727 40.3794 30.6327 40.5204 30.3973C41.4746 28.8143 43.1197 27.3075 45.1021 27.6098Z" fill="#CA807A"/>
<path d="M19.5529 24.4969L30.8535 25.4292C30.8535 25.4292 29.8392 22.4825 25.2229 22.1409C20.6065 21.7994 19.5506 24.4946 19.5506 24.4946L19.5529 24.4969Z" fill="black"/>
<path d="M10.2808 25.2769L16.2095 24.8638C16.2095 24.8638 15.1651 21.9286 12.6906 22.2932C10.2692 22.6486 10.2808 25.2769 10.2808 25.2769Z" fill="black"/>
<path d="M27.0596 30.8612C26.8147 29.3289 25.5324 27.8313 23.9266 27.6883C23.4137 27.6421 22.9008 27.7437 22.4294 27.9467C22.3624 27.9767 22.3024 27.8775 22.3717 27.8475C23.2011 27.4898 24.1092 27.4668 24.9363 27.8452C25.7011 28.1936 26.3249 28.8305 26.7269 29.562C26.9441 29.9566 27.1012 30.3881 27.1729 30.8335C27.1844 30.905 27.0735 30.9373 27.062 30.8635L27.0596 30.8612Z" fill="#001848"/>
<path d="M22.2797 30.2374C22.1366 29.1919 22.5741 28.2688 23.2569 28.1757C23.9396 28.0825 24.609 28.8545 24.752 29.9C24.895 30.9455 24.4575 31.8686 23.7748 31.9618C23.0921 32.0549 22.4227 31.2829 22.2797 30.2374Z" fill="#001848"/>
<path d="M18.7441 25.5907C14.9249 34.0894 11.041 38.9098 11.041 38.9098L13.9938 39.2629L18.2035 37.7515L18.7441 25.5907Z" fill="#EAB7A0"/>
<path d="M14.9919 29.4627C14.9202 28.872 14.5968 28.3067 14.2017 27.8705C13.8066 27.4344 13.289 27.0629 12.6952 27.0791C12.3256 27.0883 12.0044 27.2706 11.748 27.5244C11.6948 27.5775 11.6139 27.4944 11.6671 27.4436C12.1361 26.9798 12.7599 26.8414 13.3699 27.1044C13.9799 27.3675 14.4651 27.9098 14.7793 28.4844C14.9457 28.7889 15.0681 29.1166 15.1097 29.4627C15.1189 29.5366 15.0034 29.5366 14.9942 29.4627H14.9919Z" fill="#001848"/>
<path d="M12.012 29.4777C11.8339 28.6583 12.0069 27.9251 12.3984 27.8402C12.79 27.7553 13.2518 28.3508 13.43 29.1703C13.6081 29.9898 13.4351 30.7229 13.0436 30.8078C12.652 30.8927 12.1902 30.2972 12.012 29.4777Z" fill="#001848"/>
<path d="M22.8499 41.0836C22.0805 42.8281 19.8508 43.4026 18.1365 42.8604C17.8846 42.7865 17.649 42.6642 17.4364 42.5096C19.13 43.698 22.0597 43.0842 22.8499 41.0813V41.0836Z" fill="#CA807A"/>
<path fill-rule="evenodd" clip-rule="evenodd" d="M23.108 41.1379V41.0812L22.6449 40.9932L22.6135 40.9793C22.6124 40.9817 22.6113 40.9842 22.6103 40.9866L22.6095 40.9864C22.6075 40.9917 22.6054 40.9969 22.6033 41.0021C21.8946 42.5696 19.8407 43.1285 18.2143 42.6141L18.2117 42.6133L18.2091 42.6125C18.1229 42.5872 18.0383 42.5553 17.9558 42.5174C17.8261 42.4535 17.7019 42.3805 17.5847 42.2982L17.2844 42.7184C17.4229 42.8192 17.5716 42.9084 17.729 42.9816C18.5808 43.4009 19.6104 43.4713 20.5432 43.243C21.6354 42.9757 22.6387 42.287 23.0784 41.205C23.081 41.1993 23.0835 41.1935 23.0861 41.1877L23.108 41.1379ZM22.8498 41.0812V41.0835C22.8468 41.0902 22.8438 41.0969 22.8408 41.1036C22.1398 42.8365 19.8301 43.5175 18.1321 42.8751C18.132 42.8751 18.1319 42.875 18.1318 42.875C18.0332 42.8377 17.9367 42.7959 17.8427 42.7496C17.6999 42.6836 17.5639 42.6024 17.4363 42.5096C17.5651 42.6 17.7011 42.6799 17.8427 42.7496C17.9377 42.7936 18.0357 42.8308 18.1364 42.8603C19.8442 43.4005 22.0632 42.8324 22.8408 41.1036C22.8435 41.0969 22.8462 41.0902 22.8489 41.0835C22.8489 41.0834 22.849 41.0833 22.849 41.0832C22.8493 41.0825 22.8495 41.0819 22.8498 41.0812Z" fill="#CA807A"/>
<path d="M32.2927 88.4574C36.0334 87.9151 39.6054 86.8029 42.914 85.2107C43.7874 76.7835 43.9953 70.8462 43.1312 70.1586C42.4635 69.6255 41.902 68.9587 41.4099 68.2341C41.2366 67.978 41.0726 67.7149 40.9132 67.4472C39.2843 64.6874 38.4063 61.4961 36.4609 61.4961C36.2575 61.4961 35.9826 61.5145 35.6499 61.5491C35.5436 61.5607 35.4327 61.5745 35.3148 61.5884C34.8481 61.6437 34.2913 61.7245 33.6652 61.8237C33.6444 61.826 33.6213 61.8307 33.5982 61.8353C29.8783 62.4237 23.7532 63.6421 19.361 64.3159C19.056 64.362 18.7579 64.4082 18.4714 64.4474C17.9909 64.5166 17.538 64.5789 17.1175 64.6274C17.0204 64.6389 16.9257 64.6505 16.8333 64.6597C16.4151 64.7082 16.0362 64.7428 15.7035 64.7659C15.4817 64.7797 15.2807 64.7866 15.1004 64.7889C14.6037 64.7935 14.0053 65.2897 13.3283 66.2104C13.1273 66.4804 12.9216 66.7873 12.7091 67.1311C12.1107 68.1003 11.4614 69.3533 10.7821 70.8508C9.69622 73.2322 8.53173 76.232 7.34877 79.691C7.02761 80.6302 6.70414 81.6017 6.38067 82.6055C6.42457 82.6332 6.46616 82.6609 6.51006 82.6909C6.83353 82.9031 7.15931 83.1131 7.4897 83.3139C7.90097 83.57 8.31917 83.8169 8.74199 84.0546C9.55297 84.5138 10.3847 84.9453 11.235 85.3445C12.1338 85.7668 13.051 86.1522 13.9868 86.5006C14.1739 86.5698 14.3634 86.6391 14.5529 86.706C14.8417 86.8075 15.1328 86.9067 15.4262 87.0013C16.154 87.2413 16.8911 87.4605 17.6397 87.6544C18.3675 87.8459 19.1045 88.0144 19.8508 88.1597C20.4353 88.2728 21.0245 88.372 21.6183 88.4574C21.8632 88.4943 22.1104 88.5266 22.36 88.5566C23.0462 88.642 23.7393 88.7089 24.4394 88.7551C25.3913 88.8197 26.3363 88.8497 27.2744 88.8358C27.5955 88.8335 27.9144 88.8266 28.2332 88.8128C28.2494 88.8128 28.2679 88.8105 28.2841 88.8105H28.328C28.5821 88.7989 28.8247 88.7874 29.0673 88.7782C30.1509 88.7228 31.2322 88.612 32.2927 88.4574Z" fill="#D4D5D6"/>
<path d="M2.59375 75.0483C2.37656 76.029 2.12241 77.3697 1.84284 79.0196C2.46205 79.5941 3.09975 80.1456 3.75823 80.6764C4.60156 81.3571 5.47723 82.0009 6.38063 82.6055C6.42453 82.6332 6.46612 82.6609 6.51002 82.6909C6.78959 81.6617 7.06916 80.6602 7.34873 79.6911C8.34686 76.2228 9.33112 73.1769 10.2322 70.7147C11.131 68.2572 11.9443 66.3857 12.5981 65.2643C12.5981 65.2643 9.71004 67.3803 7.03681 69.6002C5.45413 70.9155 3.94538 72.2654 3.15751 73.2345C3.00964 73.4168 2.82018 74.0399 2.59375 75.0483Z" fill="black"/>
<path d="M11.2351 85.3445C12.1339 85.7668 13.0512 86.1521 13.9869 86.5006C14.174 86.5698 14.3635 86.639 14.553 86.706C15.4263 82.0401 16.2234 77.7342 16.8727 74.206C17.0991 72.9784 17.3071 71.8454 17.4942 70.8254C18.1619 67.1818 18.564 64.9597 18.564 64.9597C18.5593 64.9574 18.5524 64.9574 18.5478 64.9574C18.4207 64.9274 18.3098 64.9551 17.9794 64.8858C17.7853 64.8443 17.515 64.7681 17.1176 64.6274C17.0367 64.5974 16.9489 64.5674 16.8565 64.5305C16.5793 64.4266 16.2512 64.2951 15.8607 64.1266C15.8607 64.1266 15.8006 64.3643 15.7036 64.7658C15.5696 65.3243 15.3639 66.1988 15.1421 67.1795C14.7494 68.9217 14.3127 71.0054 14.1533 72.2792C14.1255 72.5053 14.107 72.7038 14.0978 72.8722C14.0631 73.5599 12.8825 78.5626 11.2351 85.3445Z" fill="url(#paint0_linear_22_712)"/>
<path d="M15.4263 87.0014C16.1541 87.2413 16.8911 87.4606 17.6397 87.6544C18.215 83.1362 18.7626 79.2434 19.227 76.6382C19.4904 75.1498 19.7284 74.0814 19.9271 73.5599C19.9271 73.5599 22.0874 71.0055 24.1276 68.9079C24.2038 68.8294 24.2801 68.751 24.3563 68.6748C25.3544 67.6595 26.3063 66.7827 26.9302 66.4065C26.9302 66.4065 19.2547 64.1636 18.5639 64.9597C18.1965 65.3774 17.9609 68.4972 17.4826 70.8301C17.3856 71.2916 17.2816 71.7231 17.1638 72.0969C17.0228 72.6069 16.8588 73.2622 16.6739 74.0399C16.0039 76.8505 15.0566 81.2856 13.9868 86.5006C14.174 86.5698 14.3635 86.6391 14.5529 86.706C14.8417 86.8075 15.1328 86.9067 15.4263 87.0014Z" fill="url(#paint1_linear_22_712)"/>
<path d="M3.75822 80.6764C4.60154 81.3571 5.47722 82.0009 6.38062 82.6055C6.42452 82.6332 6.4661 82.6609 6.51 82.6909C6.83347 82.9032 7.15925 83.1132 7.48965 83.3139C8.79738 78.5304 10.0843 74.1276 11.1749 70.9686C11.7502 69.3002 12.27 67.978 12.709 67.1311C12.8661 66.8311 13.0117 66.5888 13.1457 66.4135C13.2289 66.305 13.3121 66.1966 13.3906 66.0927C16.4358 62.1191 16.5444 61.7615 16.5444 61.7615L16.4289 60.8754C16.3157 60.9746 16.2025 61.0784 16.087 61.18C12.4064 64.4428 6.72257 69.0533 6.72257 69.0533L7.03679 69.6002L7.51737 70.4355L7.73687 70.8186L4.71014 72.5723L3.75822 80.6764Z" fill="#26282D"/>
<path d="M32.2928 88.4574C36.0335 87.9151 39.6055 86.8029 42.9141 85.2107C45.3147 84.0569 47.5721 82.6493 49.6584 81.0225C49.9241 80.8241 50.1875 80.6141 50.4532 80.381C52.2231 78.9296 53.8543 77.3143 55.3237 75.5513C55.1551 75.0021 54.9818 74.4852 54.8062 74.0007C54.2239 72.3808 53.6255 71.1093 53.1426 70.1471C51.7656 67.3988 46.9228 64.6574 42.9257 61.1661C41.105 59.5785 39.46 57.8363 38.3971 55.8657C38.3971 55.8657 37.4452 57.9217 35.65 61.5492C35.5252 61.803 35.3958 62.066 35.2595 62.336C34.7419 63.3813 34.1597 64.5397 33.5197 65.802C32.5008 67.8118 31.3317 70.0848 30.0216 72.5815C28.1756 76.0982 25.0749 81.9225 22.3601 88.5566C23.0463 88.642 23.7394 88.7089 24.4395 88.7551C25.3914 88.8197 26.3364 88.8497 27.2745 88.8359C27.5956 88.8336 27.9145 88.8266 28.2333 88.8128C28.2495 88.8128 28.268 88.8105 28.2841 88.8105H28.328C28.5822 88.7989 28.8248 88.7874 29.0674 88.7782C30.151 88.7228 31.2323 88.612 32.2928 88.4574Z" fill="black"/>
<path d="M28.9356 69.171C27.1542 72.4546 24.1922 80.2495 21.6183 88.4574C21.8632 88.4943 22.1105 88.5266 22.36 88.5566C23.0462 88.642 23.7393 88.7089 24.4394 88.7551C25.3913 88.8197 26.3363 88.8497 27.2744 88.8359C27.5955 88.8336 27.9144 88.8266 28.2332 88.8128C33.3209 80.8795 38.1868 73.4999 38.1868 73.4999L37.898 72.8469L35.2317 66.8288L40.9132 67.4472L42.2833 67.5949L42.9256 61.1661L43.0365 60.0446L39.245 54.2089C39.245 54.2089 38.4178 55.2565 37.1979 56.8787C36.6873 57.5571 36.112 58.3324 35.4997 59.1724C34.8897 60.0077 34.2474 60.9054 33.5982 61.8353C33.1291 62.5068 32.6555 63.1944 32.1934 63.8844L32.1403 63.9628C31.5003 64.9182 30.8787 65.8781 30.308 66.8104C29.8067 67.6272 29.3423 68.421 28.9356 69.171Z" fill="#26282D"/>
<path d="M17.0597 59.4124L13.1342 66.5612L11.6232 70.9593C11.6232 70.9593 17.2538 64.4751 18.2242 64.879C19.19 65.2897 17.0574 59.4124 17.0574 59.4124H17.0597Z" fill="white"/>
<path d="M37.1979 56.881L32.1934 63.8867L26.9301 71.4162C26.9301 71.4162 19.5342 64.5582 18.5638 64.962C17.977 65.2135 31.216 55.6395 36.8074 53.2166L37.1979 56.8833V56.881Z" fill="white"/>
<path d="M27.2744 88.8359C27.5956 88.8336 27.9144 88.8266 28.2333 88.8128C28.2495 88.8128 28.268 88.8105 28.2841 88.8105H28.328C28.5822 88.7989 28.8248 88.7874 29.0674 88.7782C30.151 88.7228 31.2323 88.612 32.2928 88.4574C36.0335 87.9151 39.6055 86.8029 42.9141 85.2107C45.3147 84.0569 47.572 82.6493 49.6584 81.0225C49.9241 80.8241 50.1875 80.6141 50.4532 80.381C52.223 78.9296 53.8542 77.3143 55.3237 75.5513C55.4415 75.4129 55.5571 75.2698 55.668 75.129C55.4069 74.7506 55.1181 74.3722 54.8062 74.0007C51.7332 70.3432 46.3752 67.2511 41.41 68.2341C41.2251 68.2687 41.0449 68.3103 40.8624 68.3564C40.8624 68.3564 39.7256 70.0825 37.898 72.8469C35.3172 76.7513 31.3571 82.7278 27.2744 88.8359Z" fill="black"/>
<defs>
<linearGradient id="paint0_linear_22_712" x1="18.564" y1="75.4175" x2="11.2351" y2="75.4175" gradientUnits="userSpaceOnUse">
<stop/>
<stop offset="0.48" stop-color="#372E2D"/>
<stop offset="1"/>
</linearGradient>
<linearGradient id="paint1_linear_22_712" x1="26.9302" y1="76.2228" x2="13.9868" y2="76.2228" gradientUnits="userSpaceOnUse">
<stop/>
<stop offset="1"/>
</linearGradient>
</defs>
</svg>
