<svg width="53" height="87" viewBox="0 0 53 87" fill="none" xmlns="http://www.w3.org/2000/svg">
<path d="M2.73187 61.8215C9.31008 41.0345 -0.0286024 1.44313 30.7984 0.0230207C54.2069 -1.05404 47.0004 35.9292 45.7589 54.9808C45.7589 54.9808 39.4558 60.6865 26.264 59.6876C13.0723 58.6912 2.73187 61.8215 2.73187 61.8215Z" fill="#603913"/>
<path d="M16.451 51.8707C17.9019 50.3421 17.9322 49.086 21.4168 48.6698C34.1216 47.1412 35.7264 46.0339 35.6961 49.6561C35.6734 53.2706 26.9403 60.4065 21.3209 58.4819C15.7092 56.5548 13.7788 54.7008 16.451 51.8707Z" fill="#A380B7"/>
<path d="M28.7899 32.8569L35.2167 33.823L32.5496 50.4935L41.6864 55.851L21.2402 73.8003C21.2402 73.8003 16.8144 64.301 13.9025 58.0203C12.2472 54.4511 21.9846 48.6597 21.9846 48.6597L28.7874 32.8544L28.7899 32.8569Z" fill="#FDCBB2"/>
<path d="M34.5959 35.9191L25.4742 40.5603L23.4102 45.3579L34.2073 40.1315L34.5959 35.9191Z" fill="#EAB7A0"/>
<path d="M42.5215 30.6927C43.5283 28.019 43.2987 24.2455 41.0656 23.6906C40.3994 23.5241 39.597 23.6578 38.7795 23.9933C33.3847 23.3879 41.4794 6.74519 28.1034 4.7626C20.6597 3.65779 11.7702 8.75554 12.2345 27.3329C12.4288 35.1422 17.9396 41.0926 17.9396 41.0926C24.9847 42.5227 32.2391 40.0533 35.9811 35.0943C38.4893 34.774 41.2422 34.0828 42.519 30.6927H42.5215Z" fill="#FDCBB2"/>
<path d="M30.0017 21.9809C29.8099 21.1788 29.3532 20.4044 28.6517 19.8722C27.9629 19.3374 27.0066 19.0675 26.0729 19.3072C26.9309 18.8733 28.0335 18.9086 28.9596 19.3526C29.8932 19.7889 30.6678 20.5936 31.1346 21.5647L30.0017 21.9809Z" fill="#001848"/>
<path d="M28.7444 21.9459C28.8668 21.0726 28.4336 20.2901 27.7767 20.198C27.1198 20.106 26.4879 20.7393 26.3655 21.6125C26.243 22.4858 26.6763 23.2684 27.3332 23.3604C27.9901 23.4525 28.6219 22.8192 28.7444 21.9459Z" fill="black"/>
<path d="M13.6123 18.2649C14.4122 17.71 15.4064 17.4124 16.3501 17.594C17.3089 17.763 18.0129 18.5046 18.2905 19.2941C17.8212 18.5802 17.0465 18.1413 16.2971 18.1943C15.5477 18.2296 14.8664 18.6433 14.3996 19.1755L13.6098 18.2624L13.6123 18.2649Z" fill="#001848"/>
<path d="M17.794 20.3107C17.9719 19.4599 17.748 18.6931 17.2938 18.5982C16.8395 18.5032 16.327 19.116 16.149 19.9669C15.9711 20.8178 16.195 21.5845 16.6492 21.6795C17.1035 21.7744 17.616 21.1616 17.794 20.3107Z" fill="black"/>
<path d="M21.6792 18.5979C18.5932 25.1561 16.842 25.1258 16.842 25.1258C17.9397 27.343 19.5798 29.5703 19.5798 29.5703L21.6792 18.5979Z" fill="#EAB7A0"/>
<path d="M32.8094 17.5561C32.8094 17.5561 29.9707 15.6946 26.8721 15.5559C23.771 15.4171 23.0771 16.4614 23.0771 16.4614C23.0771 16.4614 23.607 14.1484 26.2716 14.0097C30.44 13.7953 32.8094 17.5561 32.8094 17.5561Z" fill="#603913"/>
<path d="M14.1497 15.7703C14.1497 15.7703 14.889 14.6075 16.9102 15.1448C18.8632 15.6669 20.1324 16.7641 20.1324 16.7641C20.1324 16.7641 19.3805 15.2078 17.8665 14.2594C14.5711 12.1936 14.1497 15.7678 14.1497 15.7678V15.7703Z" fill="#603913"/>
<path d="M38.2522 29.3029C37.8459 28.9094 37.6819 28.3166 37.6971 27.7466C37.7021 27.1664 37.9216 26.6065 38.2219 26.1297C38.5348 25.653 38.9562 25.2847 39.4129 24.9972C39.8772 24.7222 40.3869 24.5406 40.9395 24.5003C40.6392 24.9745 40.3238 25.3478 40.0235 25.7135C39.7485 26.0969 39.4432 26.4249 39.2287 26.7956C38.7518 27.5145 38.4086 28.2258 38.2497 29.3054L38.2522 29.3029Z" fill="#CA807A"/>
<path d="M22.9459 30.8113C23.0065 31.2578 21.9088 31.7799 20.4907 31.9741C19.0727 32.1709 17.8741 31.9665 17.8135 31.5201L22.9459 30.8113Z" fill="#DF4B3F"/>
<path d="M16.5797 65.4765L13.2262 84.8207C9.99388 83.7234 6.95332 82.215 4.15499 80.3586C4.14238 80.3939 4.15499 80.4317 4.15499 80.467C4.14238 80.4317 4.14238 80.3939 4.14238 80.3586C3.03213 79.6346 1.96983 78.8502 0.945374 78.0203L1.81338 64.1648C1.89665 62.8028 2.36851 61.5113 3.14063 60.414C3.41819 60.0281 3.73108 59.6674 4.08182 59.3395L4.38461 59.0494C4.85647 58.603 5.38636 58.2297 5.92886 57.9396H5.94148C7.64217 57.024 9.60781 56.8423 11.3943 57.362C12.1185 57.5663 12.8174 57.8816 13.4583 58.3255C13.7839 58.5298 14.0993 58.7846 14.3869 59.062C14.6165 59.2664 14.8209 59.5085 15.0253 59.7507C16.0144 60.9438 16.5696 62.4269 16.6528 63.9479C16.6882 64.4549 16.6654 64.972 16.5797 65.479V65.4765Z" fill="#785C8D"/>
<path d="M24.6264 86.9647C23.8164 86.9294 23.0342 86.8815 22.2368 86.7957C19.113 86.4829 16.0952 85.8069 13.2262 84.8181C9.99385 83.7209 6.95329 82.2125 4.15497 80.356C4.12974 80.187 4.11965 80.0054 4.10703 79.8364C4.05909 79.0419 4.0818 78.2322 4.20291 77.4124C4.85392 72.9856 5.31316 67.5852 5.59072 63.4838C5.61595 62.9768 5.65128 62.495 5.6866 62.0359C5.71184 61.6979 5.73455 61.3725 5.75978 61.0724C5.84305 59.7809 5.89352 58.7442 5.92884 58.0808V58.0203C5.94146 57.985 5.94146 57.9598 5.94146 57.9371C5.96669 57.5032 5.97678 57.2737 5.97678 57.2737C8.48493 56.5018 11.4548 54.7664 14.566 52.7157C15.0732 52.3777 15.5804 52.0397 16.0977 51.6916L16.2415 52.1129L16.4585 52.7762L17.869 57.0567L18.6891 59.5287L18.8834 60.0962C18.9793 60.3737 19.0777 60.6738 19.1736 60.9765L21.7902 68.8867C21.7902 68.8867 21.8634 69.1516 21.9845 69.646C22.0198 69.7544 22.0451 69.8881 22.0804 70.0193C22.1056 70.1151 22.1283 70.211 22.1536 70.322C22.2015 70.5036 22.2495 70.6953 22.2974 70.9122C22.4059 71.3814 22.527 71.9363 22.6582 72.5518C23.2991 75.5055 24.094 79.8717 24.3362 84.1901C24.3842 85.0225 24.48 85.9633 24.6264 86.9647Z" fill="#785C8D"/>
<path d="M51.83 77.9194C44.8808 83.5998 36.0014 87 26.3271 87C25.7594 87 25.1942 86.9874 24.6264 86.9647C23.8164 86.9294 23.0342 86.8815 22.2369 86.7957C22.2495 85.2772 22.2848 83.7083 22.3706 82.1646C22.6355 77.3897 22.2142 75.3264 22.1057 73.0487C22.0804 72.5291 22.0703 71.9994 22.093 71.4217C22.1057 71.0711 22.1284 70.7104 22.1536 70.3245C22.1788 70.1303 22.2015 69.926 22.2268 69.7217C22.5296 67.2497 24.253 63.7285 27.1371 59.7355C27.7881 58.8426 28.4896 57.9396 29.2365 57.0113C30.7075 55.2154 32.3729 53.3463 34.23 51.4772C34.664 51.0308 35.1107 50.5843 35.5573 50.1505C35.5573 50.1505 35.5699 50.211 35.6052 50.3321C35.7617 50.8391 36.4026 52.2869 38.8502 53.2984C39.2716 53.48 39.756 53.6364 40.2985 53.7802C41.2751 54.045 43.4602 54.4057 45.6075 55.1196C47.8406 55.8561 50.046 56.9886 50.8181 58.7846C51.8678 66.4426 52.3018 72.7965 51.8325 77.9219L51.83 77.9194Z" fill="#785C8D"/>
<path d="M6.08535 60.6385V60.6638C6.07273 62.2554 6.06011 63.8722 5.97684 65.4866C5.88096 67.1034 5.69928 68.695 5.54284 70.2993C5.36116 71.9035 5.18201 73.5078 4.96501 75.112C4.85651 75.9066 4.73539 76.7036 4.61427 77.4881C4.48054 78.2599 4.39727 79.0318 4.40988 79.8163V79.8415L4.39727 80.3233V80.3586C4.39727 80.3586 4.39727 80.3712 4.38465 80.3939L4.39727 80.4418V80.515C4.31148 80.467 4.24082 80.4065 4.15503 80.3586H4.14242C4.04653 80.298 3.94812 80.2249 3.85224 80.1543L3.8043 79.8415C3.69579 79.0343 3.66047 78.2019 3.74374 77.3821L3.9128 74.9707C4.03391 73.3791 4.19036 71.7749 4.3468 70.1833L4.91454 65.421C5.0836 63.8294 5.26528 62.2251 5.48228 60.6209C5.54284 60.0433 5.63873 59.4757 5.7119 58.9208C5.79517 58.3659 5.86834 57.7882 5.96423 57.2207C5.99956 57.7882 6.0475 58.3659 6.0475 58.946L6.08282 60.6461L6.08535 60.6385Z" fill="#0D2263"/>
<path d="M20.256 64.75C18.9969 60.3031 18.0355 56.5422 16.5266 56.6885C15.0126 56.8373 10.0771 60.8706 10.0771 60.8706L12.4919 54.4183L18.6184 49.3937C18.6184 49.3937 16.0396 51.6588 17.4173 54.0627C18.5957 56.126 22.7389 66.102 21.8785 71.9464L20.256 64.7475V64.75Z" fill="white"/>
<path d="M21.8786 71.9489C22.2722 64.296 27.7806 56.9634 29.1633 55.4979C30.541 54.0324 35.4589 49.7393 35.2571 47.6684C36.7256 50.4178 39.0597 52.8545 39.0597 52.8545L35.5018 60.5906C35.5018 60.5906 32.5294 56.8222 30.8312 56.9861C29.1305 57.1526 25.9537 62.9818 24.8384 65.1864C23.7206 67.391 21.8811 71.9515 21.8811 71.9515L21.8786 71.9489Z" fill="white"/>
</svg>
