<svg width="65" height="90" viewBox="0 0 65 90" fill="none" xmlns="http://www.w3.org/2000/svg">
<path d="M14.211 58.742C18.6473 39.8579 6.89989 -0.0232366 34.3251 1.01585e-05C52.5526 0.015508 52.2016 24.7681 52.2016 40.0568C53.6649 64.1301 30.2243 50.7503 14.211 58.742Z" fill="url(#paint0_linear_22_744)"/>
<path d="M35.3598 31.2979L41.1199 31.7241L39.8735 46.6924L48.3304 50.8329L39.4683 51.5742C39.4683 51.5742 31.4294 58.2383 23.4602 52.1631C20.6782 50.0425 30.3919 45.7754 30.3919 45.7754L35.3598 31.2953V31.2979Z" fill="#FDCBB2"/>
<path d="M40.7097 33.6226L32.9392 38.352L31.4295 42.7482L39.5097 39.1889L40.7097 33.6226Z" fill="#EAB7A0"/>
<path d="M47.3835 28.4566C48.3848 25.1659 47.0661 20.8575 43.6183 22.7637C38.7975 22.5881 44.8544 7.27882 32.8696 6.41869C19.2538 4.15342 15.695 30.7012 26.2991 39.3335C32.6374 40.1291 38.9007 37.4531 41.8866 32.8012C44.088 32.3492 46.4803 31.551 47.3861 28.4592L47.3835 28.4566Z" fill="#FDCBB2"/>
<path d="M36.0646 21.6143C35.5665 20.7723 34.8078 20.111 33.9329 19.7933C33.0684 19.4679 32.08 19.5273 31.3548 19.9819C32.1729 19.721 33.0297 19.9121 33.6594 20.3461C34.2994 20.78 34.7381 21.4361 34.942 22.1232L36.0646 21.6117V21.6143Z" fill="#001848"/>
<path d="M31.1326 21.5368C31.2307 19.6952 33.4011 19.8321 33.2643 21.6737C33.1662 23.5154 30.9959 23.3785 31.1326 21.5368Z" fill="black"/>
<path d="M21.7492 20.1808C22.1054 19.6797 22.6576 19.2612 23.3054 19.1657C23.9506 19.052 24.6706 19.3723 25.1454 19.9664C24.859 19.2793 24.188 18.6491 23.3106 18.5483C22.4486 18.4347 21.566 18.7601 20.8718 19.3103L21.7467 20.1808H21.7492Z" fill="#001848"/>
<path d="M22.1286 20.6741C22.6086 18.7705 23.948 19.7882 23.5274 21.338C23.0474 23.2416 21.708 22.2239 22.1286 20.6741Z" fill="black"/>
<path d="M28.1028 19.1218C26.6241 26.0493 23.0369 25.3984 23.0369 25.3984C24.1595 27.2917 26.9777 28.9965 26.9777 28.9965L28.1028 19.1218Z" fill="#EAB7A0"/>
<path d="M31.8992 29.1334C30.6708 29.8618 29.5404 30.5643 28.312 31.0086C27.7081 31.2385 27.0836 31.3986 26.4771 31.409C25.8732 31.427 25.2848 31.1946 24.8719 30.5824C24.89 31.3056 25.5997 32.0366 26.3919 32.1244C27.1713 32.2794 27.9378 32.1219 28.632 31.8739C30.0127 31.347 31.1843 30.3758 31.8992 29.1282V29.1334Z" fill="#CA807A"/>
<path d="M37.8942 17.4506C37.7522 16.7015 29.7804 15.1724 29.1972 17.1303C30.0746 12.3389 37.6903 16.0351 37.8942 17.4506Z" fill="black"/>
<path d="M20.6187 17.2698C20.5852 15.5598 25.6434 15.9731 25.9453 16.4458C24.5156 14.6816 19.8032 13.8086 20.6187 17.2698Z" fill="black"/>
<path d="M43.5071 27.5061C43.6361 26.5168 43.9123 25.9098 44.2762 25.2537C44.4362 24.9179 44.6787 24.6106 44.8826 24.2464C45.1123 23.8977 45.3549 23.5335 45.5691 23.0634C45.0633 23.1099 44.6091 23.2933 44.2039 23.5619C43.8065 23.8434 43.4503 24.1999 43.1974 24.6519C42.96 25.1039 42.8026 25.6257 42.849 26.1552C42.8852 26.6718 43.089 27.1961 43.5071 27.5061Z" fill="#CA807A"/>
<path d="M12.6652 84.4761C12.6652 84.4761 12.691 84.502 12.7014 84.502C16.7479 86.6872 21.2022 88.206 25.9146 88.9214C25.9275 88.9214 25.9507 88.9214 25.9636 88.9344C26.0256 88.9344 26.1004 88.9473 26.1598 88.9602C26.1856 88.9602 26.1959 88.9731 26.2217 88.9731C27.6901 89.1952 29.1947 89.3321 30.7121 89.3941C31.218 89.407 31.7367 89.42 32.2425 89.42C35.4374 89.42 38.5601 89.0506 41.5588 88.3583C41.7189 88.3222 41.8789 88.2834 42.0518 88.2473C42.0879 88.0122 42.1266 87.7772 42.1627 87.5421C43.6053 78.7626 48.8623 61.4722 51.4765 57.138V57.125C51.7114 56.7428 51.9204 56.4586 52.1062 56.2985L51.6752 55.9653L47.9255 53.0259L46.408 51.8403L46.297 51.755L46.2609 51.7292L45.4351 51.086L43.3628 49.4562L42.4002 48.702C42.2402 48.9112 42.0311 49.1204 41.7343 49.3322H41.7214C38.8465 51.4942 29.9999 53.8653 29.9018 54.3328C28.8153 52.951 26.4101 53.2945 24.8668 51.7163C24.4359 51.272 24.0771 50.6779 23.8294 49.8643C23.8294 49.8643 23.7545 49.9005 23.6307 49.9754C23.6307 49.9754 23.6178 49.9883 23.6049 49.9883C22.8771 50.3964 20.397 51.7163 17.7441 52.6178C17.0034 52.8657 16.2395 53.0879 15.4989 53.2351C15.3518 53.2712 15.1892 53.2971 15.0292 53.3203C14.3375 53.4443 13.6846 53.4934 13.0678 53.4676C13.6356 54.728 14.0924 56.0738 14.4614 57.4686V57.4815C14.5492 57.8147 14.6343 58.1479 14.7092 58.494C14.735 58.6309 14.7711 58.7652 14.7943 58.915C15.3001 61.2991 15.5582 63.8175 15.6098 66.3488C15.6589 68.1027 15.5969 69.8436 15.4498 71.5587C15.0679 76.3759 14.0433 80.9065 12.7478 84.254C12.722 84.3289 12.6859 84.4012 12.6601 84.4761H12.6652Z" fill="#FF8B43"/>
<path d="M26.1623 88.9576C26.1881 88.9576 26.1984 88.9705 26.2242 88.9705C27.6927 89.1927 29.1972 89.3295 30.7147 89.3915C31.2205 89.4045 31.7392 89.4174 32.245 89.4174C35.4399 89.4174 38.5626 89.048 41.5614 88.3558C41.7214 88.3196 41.8814 88.2809 42.0543 88.2447C43.2001 87.9606 44.3382 87.6403 45.4479 87.258C45.5589 86.8008 45.7318 86.3075 45.9279 85.7883C46.7667 83.616 48.199 81.033 49.1487 78.7497C49.4455 77.1818 49.7784 75.2188 50.1474 73.0568C51.3578 65.7573 52.7617 56.2133 53.3552 52.2484C53.1462 52.0133 52.8262 51.817 52.4055 51.6569C51.7887 51.3986 50.9758 51.1997 50.0132 50.9517C49.0377 50.7167 47.928 50.4326 46.7564 50.0632H46.7434C46.6196 50.0141 46.4983 49.978 46.3744 49.9263C46.3486 49.9263 46.3254 49.9134 46.2996 49.9134V49.9005C45.3499 49.5802 44.3615 49.1721 43.3885 48.6529C43.4014 48.9009 43.4014 49.1592 43.3653 49.4562C43.3034 49.9883 43.1666 50.6056 42.9705 51.2849C42.6246 52.4344 42.1059 53.7801 41.453 55.2498C39.2207 60.2892 35.4941 66.7105 32.7302 71.6362C32.7302 71.6491 32.7173 71.6491 32.7173 71.6491C32.3973 72.2174 32.0876 72.7598 31.7908 73.279V73.2919C31.667 73.5269 31.5457 73.762 31.4218 73.9841C30.916 74.8856 30.4721 75.7121 30.1134 76.4173C30.0876 76.4663 30.0643 76.5283 30.0385 76.5774V76.5903C30.0024 76.6394 29.9766 76.6756 29.9637 76.7272V76.7401C29.5688 77.5047 29.2979 78.1117 29.1611 78.5301C29.1611 78.5431 29.1482 78.5663 29.1482 78.5792C29.1224 78.6283 29.112 78.6774 29.0991 78.7264C28.8153 79.7131 27.4578 84.3935 26.1623 88.9628V88.9576Z" fill="black"/>
<path d="M41.9174 46.6924L46.2969 48.4953V54.8339L42.8697 53.8989L44.8414 57.2309C44.8414 57.2309 42.9729 61.9061 38.818 66.8964C37.0889 68.9731 30.3016 82.9057 30.3016 82.9057C30.3016 82.9057 31.8836 71.9229 34.5469 66.8138C38.1496 59.1268 42.1161 52.1244 41.9148 46.6924H41.9174Z" fill="black"/>
<path d="M8.48169 81.8699C9.49332 82.5983 10.554 83.2776 11.6405 83.9079C11.7127 83.944 11.7876 83.9931 11.8624 84.0319C12.1205 84.1791 12.3811 84.3289 12.6521 84.4761H12.665C12.665 84.4761 12.6908 84.502 12.7011 84.502C16.7477 86.6872 21.202 88.206 25.9144 88.9214C25.9273 88.9214 25.9505 88.9214 25.9634 88.9343C26.0253 88.9343 26.1002 88.9473 26.1595 88.9602C26.1853 88.9602 26.1957 88.9731 26.2215 88.9731C27.6899 89.1952 29.1945 89.3321 30.7119 89.3941C30.9958 87.134 31.3906 84.3186 31.8965 80.5526C31.9094 80.4415 31.9223 80.3305 31.9455 80.2065V80.1703C31.9687 79.912 32.0074 79.6641 32.0436 79.3928V79.3799C32.1545 78.5895 32.2655 77.763 32.3765 76.8848C32.3145 76.5645 32.1184 75.9342 31.8087 75.0819C31.6977 74.7487 31.5635 74.3793 31.4139 73.9841C29.8577 69.7609 26.8125 62.0663 25.0111 55.9911C24.6524 54.7926 24.3453 53.6819 24.1234 52.6565V52.6436C23.8885 51.6569 23.7156 50.7554 23.6304 49.9754V49.9625C23.5324 49.061 23.5453 48.3326 23.6924 47.8263L23.6795 47.8393C21.2123 48.7769 19.3 49.4329 17.8058 49.9005C16.9774 50.1717 16.2754 50.3809 15.6844 50.5669C15.5244 50.616 15.3644 50.665 15.2148 50.7141C14.2392 51.0241 13.5605 51.2565 13.0315 51.5536C13.0315 51.5536 8.32942 73.4856 8.4791 75.6346C8.59008 77.0553 8.82492 79.3877 8.4791 81.8699H8.48169Z" fill="black"/>
<path d="M27.3261 47.2168L17.8368 48.8079L17.7104 54.0177L22.0408 53.6432L19.824 58.4889C19.824 58.4889 19.1091 58.7575 23.2899 64.4013C24.8976 66.602 32.0126 80.7722 32.0126 80.7722C35.5456 72.2122 18.7788 51.1015 27.3261 47.2142V47.2168Z" fill="black"/>
<path d="M15.5039 53.2325C15.6149 52.1709 15.6769 51.2694 15.6898 50.5643C15.553 50.5643 15.4059 50.5772 15.233 50.5901C12.8278 50.8252 6.62115 52.9122 4.45077 62.3711C3.77205 65.2846 2.36556 70.0631 0.959073 75.0276C1.36683 75.5106 1.7978 75.9911 2.22878 76.4483C4.11786 78.4604 6.2134 80.2762 8.48442 81.8699C9.49606 82.5983 10.5567 83.2776 11.6432 83.9079C12.1 77.0165 13.7542 66.5942 14.802 58.915C14.8278 58.742 14.851 58.5818 14.8768 58.4217C15.1349 56.4586 15.3594 54.6919 15.5065 53.2351L15.5039 53.2325Z" fill="black"/>
<path d="M41.4375 87.8702C41.4736 88.0303 41.5227 88.1905 41.5614 88.3506C41.7214 88.3144 41.8814 88.2757 42.0543 88.2395C43.2001 87.9554 44.3382 87.6351 45.4479 87.2528C53.012 84.6957 59.5876 80.005 64.4729 73.8911C62.5245 69.717 60.3515 65.3208 58.9708 61.901C55.763 54.0229 54.2946 51.0473 52.4184 51.613C52.4184 51.613 52.4184 51.6259 52.4055 51.6491C52.3565 51.9333 52.0597 53.6251 51.6777 55.9601C51.6158 56.3295 51.541 56.7247 51.479 57.1199V57.1328C50.5164 63.0969 49.2699 71.8893 50.0855 72.9767C50.1113 73.0026 50.1216 73.0258 50.1474 73.0517C51.5771 75.3014 52.9552 77.9593 53.6288 78.3209L45.9279 85.7831L42.1653 87.537L41.4375 87.8702Z" fill="black"/>
<path d="M11.8626 84.0293C12.1207 84.1765 12.3814 84.3263 12.6523 84.4736H12.6652C12.6652 84.4736 12.691 84.4994 12.7014 84.4994L12.7504 84.2514L13.6872 80.1522C14.3169 77.3006 14.9208 74.4335 15.4524 71.5561C15.4653 71.4812 15.4782 71.4192 15.4885 71.3469C16.0073 68.3945 16.4253 65.4319 16.6731 62.4434C16.797 60.8497 16.8718 59.2457 16.8331 57.639V57.6261C16.8073 56.2313 16.686 54.8469 16.4124 53.4779C16.5853 54.8985 16.6111 56.3062 16.5595 57.7269V57.7398C16.5105 59.2947 16.3505 60.8523 16.1776 62.384C16.0176 63.7168 15.8318 65.0393 15.6098 66.3488C15.3389 67.9787 15.0292 69.5956 14.7092 71.2022C14.1414 74.1287 13.4885 77.0423 12.8098 79.9585L11.8601 84.0344L11.8626 84.0293Z" fill="#414042"/>
<path d="M46.3383 48.5263C46.2764 50.6392 46.2428 52.7521 46.2351 54.865L46.3641 54.7668L42.9447 53.8034L42.6298 53.7155L42.795 53.9971C43.4479 55.1103 44.0802 56.2339 44.7563 57.3343L44.746 57.2077C44.0183 58.9512 43.1099 60.6301 42.1189 62.2497C41.1124 63.8614 40.0311 65.4267 38.8568 66.9274C40.1085 65.4939 41.2646 63.9673 42.284 62.353C43.306 60.7412 44.2454 59.0778 45.0144 57.3162L45.0428 57.2542L45.0067 57.1896C44.3667 56.0686 43.6853 54.9734 43.0221 53.8653L42.875 54.0591L46.3099 54.9657L46.439 54.9993V54.865C46.4312 52.7521 46.3951 50.6392 46.3357 48.5263H46.3383Z" fill="#414042"/>
<path d="M17.8575 53.8473L22.1957 53.5476L22.1234 53.4417L19.8756 58.2745L19.935 58.2202C19.7698 58.3597 19.8343 58.4372 19.8214 58.5147C19.8214 58.5948 19.8472 58.6593 19.8601 58.7317C19.8988 58.866 19.9453 58.9951 19.9995 59.1191C20.1027 59.3696 20.2266 59.6099 20.353 59.8449C20.6111 60.315 20.8847 60.7722 21.1737 61.2216C21.7492 62.1179 22.3583 62.9936 22.9828 63.8563C24.1983 65.5714 25.1764 67.475 26.2035 69.3296L32.1598 80.6043C30.3275 76.766 28.3997 72.9793 26.4255 69.2108C25.4035 67.3485 24.5028 65.4112 23.2176 63.6858C22.5854 62.8334 21.9686 61.9707 21.3879 61.0873C21.0963 60.6456 20.8176 60.1962 20.5595 59.7364C20.4331 59.5065 20.3092 59.2715 20.2085 59.0339C20.1543 58.915 20.113 58.7936 20.0743 58.6748C20.0253 58.5793 20.064 58.3778 20.0124 58.4217L20.0718 58.3649L22.2576 53.5063L22.3118 53.3875L22.1854 53.4004L17.8601 53.8498L17.8575 53.8473Z" fill="#414042"/>
<path d="M25.9661 88.9318C26.028 88.9318 26.1028 88.9447 26.1622 88.9576C26.188 88.9576 26.1983 88.9706 26.2241 88.9706C26.508 88.0329 26.7919 87.0824 27.0758 86.1422C27.8035 83.6238 28.5184 81.1157 29.1481 78.5715C29.1223 78.6206 29.1119 78.6697 29.099 78.7187C28.2474 81.139 27.5196 83.5954 26.779 86.0544C26.508 87.0178 26.2241 87.9684 25.9661 88.9318Z" fill="#414042"/>
<defs>
<linearGradient id="paint0_linear_22_744" x1="33.239" y1="0" x2="33.239" y2="58.742" gradientUnits="userSpaceOnUse">
<stop/>
<stop offset="1" stop-color="#4E0202"/>
</linearGradient>
</defs>
</svg>
