<svg width="817" height="689" viewBox="0 0 817 689" fill="none" xmlns="http://www.w3.org/2000/svg">
<path d="M511.511 17.3763L513.845 101.918C514.14 112.592 522.724 121.176 533.398 121.471L617.94 123.805L533.398 126.14C522.724 126.434 514.14 135.018 513.845 145.693L511.511 230.234L509.176 145.693C508.882 135.018 500.298 126.434 489.623 126.14L405.082 123.805L489.623 121.471C500.298 121.176 508.882 112.592 509.176 101.918L511.511 17.3763Z" fill="white"/>
<path d="M361.641 449.609L363.738 525.524C364.002 535.109 371.71 542.817 381.295 543.081L457.21 545.177L381.295 547.274C371.71 547.538 364.002 555.246 363.738 564.831L361.641 640.746L359.545 564.831C359.281 555.246 351.573 547.538 341.987 547.274L266.072 545.177L341.987 543.081C351.573 542.817 359.281 535.109 359.545 525.524L361.641 449.609Z" fill="white"/>
<path d="M870.929 200.274C890.65 254.936 864.257 320.672 805.03 382.874C745.849 445.026 654.097 503.394 543.791 543.19C433.484 582.985 325.601 596.638 240.37 586.585C155.073 576.524 92.7913 542.779 73.0709 488.116C53.3505 433.454 79.7426 367.718 138.97 305.517C198.151 243.365 289.902 184.996 400.209 145.201C510.516 105.406 618.399 91.7523 703.63 101.806C788.927 111.867 851.209 145.612 870.929 200.274Z" stroke="white" stroke-width="2"/>
</svg>
