<svg width="104" height="187" viewBox="0 0 104 187" fill="none" xmlns="http://www.w3.org/2000/svg">
<path d="M82.259 118.986C82.2079 119.761 82.0908 120.53 81.9088 121.288C81.5014 122.585 81.4299 123.881 82.9093 124.4C83.6668 124.679 84.796 124.121 86.1253 123.868C86.1253 124.257 86.4397 125.042 86.1753 125.619C85.1962 127.752 86.1753 128.517 88.5837 128.523C88.7409 130.371 89.2983 131.901 91.7353 132.141C92.157 132.18 92.7501 133.153 92.7787 133.717C93.0289 137.937 93.3433 138.255 97.4955 138.365L96.2234 140.466L99.1535 140.693C99.8682 142.106 95.7874 143.014 98.153 144.914C96.1734 146.632 96.3092 148.039 98.932 152.292C98.153 151.864 97.5884 151.553 96.9666 151.202C95.3015 152.992 97.9314 153.692 98.1744 155.43C94.3295 151.877 91.2922 153.99 87.9977 155.644C86.9614 156.169 85.2176 155.793 83.8884 155.501C82.4019 155.17 81.0297 154.321 79.5647 153.971C77.2778 153.426 74.9265 153.122 71.8964 152.59L74.3191 150.645C73.1769 149.448 71.9575 148.313 70.6672 147.248C70.1526 146.859 69.1307 147.027 68.7519 146.982L68.0372 155.546L68.4803 155.611C68.5663 155.363 68.6764 155.122 68.8091 154.892C69.025 154.646 69.2641 154.418 69.5237 154.211L70.8887 156.266C68.0301 157.141 64.271 156.914 63.5992 160.623C63.5349 160.986 63.9065 161.414 64.0709 161.796C62.0698 164.215 59.5542 166.523 58.1749 169.771C56.9028 168.876 56.031 167.748 54.7874 169.512C54.423 170.043 52.7936 169.862 51.7359 170.011L51.2142 171.003C51.7485 171.291 52.3135 171.53 52.9007 171.716C56.0095 172.41 57.6604 174.711 59.6757 176.631C60.762 177.668 60.8406 178.446 59.6114 179.47C58.5251 180.371 57.8819 181.752 56.7528 182.511C54.523 183.97 52.1003 186.09 49.6848 186.181C46.4402 186.304 43.3672 184.404 41.5377 181.577C39.9869 179.172 40.48 176.916 42.3881 174.893C44.1247 173.052 45.9614 171.295 47.891 169.401C45.3468 170.29 44.4606 168.105 42.8884 166.879C42.5167 166.594 41.8593 166.614 41.7949 166.231L39.4223 162.704C39.3437 162.302 39.165 161.518 39.0649 160.72C38.9649 159.923 38.6576 158.931 38.9077 158.159C39.3896 156.753 40.039 155.399 40.8444 154.12C41.2804 153.4 42.1809 152.921 42.6811 152.227C43.9318 150.489 45.9328 149.763 47.7838 148.797C48.0697 148.648 48.0768 148.045 48.0053 148.253C49.6705 147.604 50.864 147.17 52.1289 146.69L51.1784 144.965L52.7578 144.46L55.1734 140.505L52.4505 137.451L52.4505 139.442C50.1708 139.442 47.9767 139.442 45.7827 139.442C45.1896 139.508 44.5879 139.471 44.0104 139.331C42.3309 138.625 40.6801 137.853 39.0864 137.004C37.4927 136.154 35.5131 135.487 35.12 133.444C35.12 133.308 35.0343 133.094 34.9342 133.068C32.1899 132.219 32.4401 129.554 31.1251 127.843C30.8392 127.473 31.2037 126.702 31.2752 126.014L26.2725 124.847C27.4088 123.337 27.3731 121.327 29.8458 121.294C29.9475 120.686 30.0143 120.074 30.0459 119.46C30.2532 119.375 30.9893 119.097 31.9041 118.746C30.5605 116.613 29.8887 114.286 27.6161 113.871L23.3281 108.516L23.7427 107.037C22.7278 106.389 21.5201 105.955 20.8054 105.151C19.0187 103.141 17.6252 104.159 15.8742 105.203C14.4449 106.052 12.7155 106.434 11.1218 107.024L10.693 106.065L16.1458 103.776C16.9105 102.479 17.5751 101.403 18.1183 100.32C18.4041 99.7564 18.9115 98.8941 18.6686 98.57C16.9034 96.21 16.8819 92.884 13.6659 91.302C12.6424 90.788 11.7141 90.1317 10.9145 89.357C9.74558 88.1512 8.1217 87.3857 6.36214 87.211C2.13136 86.6923 -2.03511 85.7327 -6.20872 84.8899C-6.85354 84.6973 -7.45245 84.396 -7.97393 84.0017C-8.06683 83.9433 -7.88817 83.295 -7.80241 83.2885C-7.08087 83.1551 -6.33708 83.1551 -5.61555 83.2885C-1.79212 84.5463 2.00272 85.7716 6.19777 84.9612C6.49984 84.9275 6.80639 84.9548 7.09549 85.0411C7.38459 85.1274 7.64908 85.2706 7.87006 85.4604C9.97116 87.5287 12.9299 87.5481 15.6098 88.2029C16.0744 88.3132 16.7318 87.775 17.1749 87.2434C20.9054 87.9955 21.2628 84.8121 23.028 83.1329L21.2628 80.8248C22.9065 81.0517 24.2929 82.9449 25.6722 81.0841C26.5298 79.9301 27.2802 78.7112 28.2664 77.2459C29.5671 77.596 30.3747 76.8245 30.1246 74.9702C33.2691 74.5683 36.1634 73.8292 37.2711 71.0802C38.1626 71.8682 39.1182 72.5942 40.1298 73.2521C40.3656 73.3818 41.1517 72.701 42.1165 72.1435C45.1324 72.5001 46.7904 72.0981 46.6332 69.401C48.2269 70.8273 49.1488 70.743 51.257 68.5841C49.1702 68.2145 47.3907 67.8968 45.697 67.5986L45.697 57.8345L45.8328 57.8345L46.9834 64.2466C47.4193 66.6131 49.9135 67.6829 52.4862 67.2485C54.2729 66.9437 55.495 66.4964 55.5879 64.8691C55.6482 63.5942 55.4421 62.3205 54.9804 61.1151C53.4296 57.1408 51.7216 53.2248 50.3065 49.1532C50.7817 50.1448 51.3112 51.1142 51.8931 52.0578C53.4582 54.301 54.9804 56.5962 56.7742 58.6644C57.8105 59.8638 58.3107 62.2822 57.2459 63.514C55.5807 65.459 55.9452 66.3473 58.4537 66.9762C58.9825 67.1123 59.4041 67.8579 59.7257 68.396C60.4904 69.6927 61.055 71.0737 61.934 72.2861C62.32 72.8242 63.2776 73.0187 64.2067 73.4855L64.6212 69.2648L65.1357 69.2648L65.1357 72.4352C66.3068 71.8183 67.4379 71.1407 68.5232 70.4059C69.5952 69.576 70.317 69.6862 70.8959 70.8014C71.7963 72.5195 73.1828 73.2067 75.291 72.7464C75.7055 72.6557 76.2773 73.1289 76.7775 73.3494C77.1706 73.5179 77.5422 73.8292 77.9424 73.8551C78.9185 73.8031 79.8951 73.9493 80.801 74.283C81.4371 73.881 82.0731 73.4791 83.2738 72.7075L82.7664 75.3981C84.4387 75.664 86.1753 76.3772 86.9614 74.1469C87.035 74.0234 87.1538 73.9271 87.2973 73.8745C88.7838 73.1938 90.2774 72.513 92.0855 71.6961C91.2565 73.0382 90.6562 74.484 89.5914 75.6251C88.3121 77.0449 89.134 78.387 89.5914 79.5865C89.8272 80.1764 91.2637 80.3774 91.9783 80.6757C91.6853 81.4991 90.9706 82.5753 91.0135 83.6256C91.085 85.2724 91.5638 86.8674 90.7848 88.5206C90.6705 88.767 91.4638 89.4348 91.9211 89.8173C92.6358 90.4268 93.4076 90.9649 94.158 91.5354C93.1504 92.0411 92.1641 92.5922 91.1207 93.0201C90.6055 93.1043 90.0779 93.1043 89.5628 93.0201C89.4556 95.0494 87.7761 94.6539 86.8542 94.6215C84.9032 96.2618 83.4739 98.2393 81.5443 98.7969C80.3651 99.147 78.8715 99.3804 78.264 100.158C77.4564 101.189 77.2277 102.667 77.0848 103.984C77.0848 104.269 78.3784 104.801 79.1502 105.014C80.701 105.436 80.7725 106.46 79.093 108.905L77.2635 106.11C76.6918 106.324 76.1129 106.551 75.7484 106.694C75.6196 106.051 75.3783 105.432 75.0337 104.859C74.8908 104.71 73.9975 105.112 73.4543 105.261C73.7259 105.825 73.8403 106.558 74.2976 106.927C75.6269 108.023 77.092 108.982 78.5856 110.033C77.3707 110.739 74.8908 110.986 75.5126 112.892C73.3686 113.54 71.4747 114.098 69.5595 114.701C68.9877 114.882 68.4017 115.427 67.9086 115.349C65.343 114.954 65.5859 116.976 64.8927 118.143C64.7641 118.364 65.0714 119.012 65.3716 119.187C66.9224 120.069 68.7519 120.659 70.0383 121.781C70.6886 122.345 70.3885 123.803 70.5814 125.347C71.2961 125.184 72.8898 125.243 73.3329 124.627C73.876 123.881 73.4615 122.565 73.4615 121.184C74.2405 122.338 74.6621 123.674 75.5483 124.024C76.1843 124.27 77.5065 123.259 78.4069 122.669C79.3982 121.997 80.3301 121.255 81.1941 120.452C81.6308 119.998 82.0252 119.512 82.3733 118.999L82.259 118.986Z" fill="white"/>
<path d="M36.9591 94.8916C36.9591 96.5708 37.0091 98.2046 36.9591 99.8384C36.8733 101.913 33.1142 106.03 31.0346 105.583C29.1121 105.168 27.3469 103.476 25.9533 102.004C24.8813 100.876 25.5531 99.5856 26.3893 98.1138C28.2831 94.736 30.6201 93.8931 34.372 95.2676C35.1296 95.5205 36.2516 95.0018 36.9591 94.8916Z" fill="white"/>
<path d="M60.0569 11.8777C58.2345 11.1061 56.9481 10.0753 56.7909 7.98759C56.7051 6.85947 55.8904 5.77025 55.3616 4.66158C55.04 3.94192 54.6898 3.22875 54.3468 2.50908C54.554 2.4248 54.7541 2.34052 54.9542 2.26271L60.6072 11.5081L60.0569 11.8777Z" fill="white"/>
<path d="M10.3452 59.0058C5.26154 58.5347 0.168401 58.07 -4.93427 57.6119L-4.8485 56.769C0.220817 57.2488 5.28774 57.7307 10.3523 58.2148L10.3452 59.0058Z" fill="white"/>
<path d="M103.851 24.5853C102.358 25.3568 101.457 26.0181 100.442 26.2386C100.114 26.3099 99.4775 25.2336 99.013 24.6761C99.8039 24.0964 100.679 23.6186 101.614 23.2562C102.015 23.1265 102.708 23.8656 103.851 24.5853Z" fill="white"/>
<path d="M80.1601 66.2736C80.1601 63.1292 81.9754 60.6525 83.6763 58.1369L84.4695 58.4611L80.103 66.2412L80.1601 66.2736Z" fill="white"/>
<path d="M101.193 42.4601L92.6168 41.2736L92.7383 40.5669L101.271 42.0257L101.193 42.4601Z" fill="white"/>
<path d="M80.2817 56.1207L81.2607 58.9474C80.8462 59.0252 80.1173 59.2522 80.0673 59.1679C79.5956 58.325 79.2454 57.4303 78.8523 56.5745L80.2817 56.1207Z" fill="white"/>
<path d="M38.4528 5.13488L34.6365 0.298238C34.7866 0.200987 34.9295 0.0972525 35.0725 9.97202e-07L39.096 4.69401L38.4528 5.13488Z" fill="white"/>
<path d="M71.4129 13.9849L70.3052 16.7598C69.5905 15.891 68.7687 15.1714 68.8759 14.9834C69.3935 14.3885 70.0052 13.8664 70.6911 13.4338L71.4129 13.9849Z" fill="white"/>
</svg>
